<?xml version="1.0" encoding="UTF-8" standalone="no"?>
<svg width="512px" height="150px" viewBox="0 0 512 150" version="1.1" xmlns="http://www.w3.org/2000/svg" xmlns:xlink="http://www.w3.org/1999/xlink">
    <!-- Generator: sketchtool 41 (35326) - http://www.bohemiancoding.com/sketch -->
    <title>EBEA2822-F9BE-4BCD-98F0-5850DDD6F25C</title>
    <desc>Created with sketchtool.</desc>
    <defs></defs>
    <g id="Page-1" stroke="none" stroke-width="1" fill="none" fill-rule="evenodd">
        <g id="Grid" transform="translate(-280.000000, -2146.000000)">
            <g id="Rectangle-150-+-Group" transform="translate(280.000000, 2146.000000)">
                <rect id="Rectangle-150" fill="#FEEC6C" x="0" y="0" width="512" height="150"></rect>
                <g id="Group" transform="translate(16.000000, 5.000000)">
                    <rect id="Rectangle-17" fill="#E6E6E6" x="0" y="0" width="480" height="140"></rect>
                    <rect id="Rectangle-5" fill="#F2F2F2" x="5" y="0" width="30" height="140"></rect>
                    <rect id="Rectangle-5-Copy" fill="#F2F2F2" x="45" y="0" width="30" height="140"></rect>
                    <rect id="Rectangle-5-Copy-2" fill="#F2F2F2" x="85" y="0" width="30" height="140"></rect>
                    <rect id="Rectangle-5-Copy-3" fill="#F2F2F2" x="125" y="0" width="30" height="140"></rect>
                    <rect id="Rectangle-5-Copy-4" fill="#F2F2F2" x="165" y="0" width="30" height="140"></rect>
                    <rect id="Rectangle-5-Copy-5" fill="#F2F2F2" x="205" y="0" width="30" height="140"></rect>
                    <rect id="Rectangle-5-Copy-6" fill="#F2F2F2" x="245" y="0" width="30" height="140"></rect>
                    <rect id="Rectangle-5-Copy-7" fill="#F2F2F2" x="285" y="0" width="30" height="140"></rect>
                    <rect id="Rectangle-5-Copy-8" fill="#F2F2F2" x="325" y="0" width="30" height="140"></rect>
                    <rect id="Rectangle-5-Copy-9" fill="#F2F2F2" x="365" y="0" width="30" height="140"></rect>
                    <rect id="Rectangle-5-Copy-10" fill="#F2F2F2" x="405" y="0" width="30" height="140"></rect>
                    <rect id="Rectangle-5-Copy-11" fill="#F2F2F2" x="445" y="0" width="30" height="140"></rect>
                    <path d="M40,-1.2952602e-17 L40,140" id="Line" stroke="#FFFFFF" stroke-width="0.5" stroke-linecap="square"></path>
                    <path d="M80,-1.2952602e-17 L80,140" id="Line-Copy" stroke="#FFFFFF" stroke-width="0.5" stroke-linecap="square"></path>
                    <path d="M120,-1.2952602e-17 L120,140" id="Line-Copy-2" stroke="#FFFFFF" stroke-width="0.5" stroke-linecap="square"></path>
                    <path d="M160,-1.2952602e-17 L160,140" id="Line-Copy-3" stroke="#FFFFFF" stroke-width="0.5" stroke-linecap="square"></path>
                    <path d="M200,-1.2952602e-17 L200,140" id="Line-Copy-4" stroke="#FFFFFF" stroke-width="0.5" stroke-linecap="square"></path>
                    <path d="M240,-1.2952602e-17 L240,140" id="Line-Copy-5" stroke="#FFFFFF" stroke-width="0.5" stroke-linecap="square"></path>
                    <path d="M280,-1.2952602e-17 L280,140" id="Line-Copy-6" stroke="#FFFFFF" stroke-width="0.5" stroke-linecap="square"></path>
                    <path d="M320,-1.2952602e-17 L320,140" id="Line-Copy-7" stroke="#FFFFFF" stroke-width="0.5" stroke-linecap="square"></path>
                    <path d="M360,-1.2952602e-17 L360,140" id="Line-Copy-8" stroke="#FFFFFF" stroke-width="0.5" stroke-linecap="square"></path>
                    <path d="M400,-1.2952602e-17 L400,140" id="Line-Copy-9" stroke="#FFFFFF" stroke-width="0.5" stroke-linecap="square"></path>
                    <path d="M440,-1.2952602e-17 L440,140" id="Line-Copy-10" stroke="#FFFFFF" stroke-width="0.5" stroke-linecap="square"></path>
                </g>
            </g>
        </g>
    </g>
</svg>