<?xml version="1.0" encoding="UTF-8" standalone="no"?>
<svg width="347px" height="282px" viewBox="0 0 347 282" version="1.1" xmlns="http://www.w3.org/2000/svg" xmlns:xlink="http://www.w3.org/1999/xlink">
    <!-- Generator: sketchtool 40.3 (33839) - http://www.bohemiancoding.com/sketch -->
    <title>D1D505FB-1E92-41CB-9F0E-5A9DF98C9754</title>
    <desc>Created with sketchtool.</desc>
    <defs></defs>
    <g id="Page-1" stroke="none" stroke-width="1" fill="none" fill-rule="evenodd">
        <g id="Home" transform="translate(-50.000000, -236.000000)">
            <g id="air" transform="translate(50.000000, 236.000000)">
                <path d="M78.9603939,49.6863084 C80.979303,49.6863084 82.6158594,51.3237642 82.6158594,53.3437828 C82.6158594,55.3632572 80.979303,57.000713 78.9603939,57.000713 C76.9414848,57.000713 75.3049284,55.3632572 75.3049284,53.3437828 C75.3049284,51.3237642 76.9414848,49.6863084 78.9603939,49.6863084" id="Fill-1" fill="#41C5EC"></path>
                <path d="M248.048762,58.2299749 C249.081604,58.2299749 249.91919,59.0680214 249.91919,60.1014307 C249.91919,61.13484 249.081604,61.9723423 248.048762,61.9723423 C247.01592,61.9723423 246.178334,61.13484 246.178334,60.1014307 C246.178334,59.0680214 247.01592,58.2299749 248.048762,58.2299749" id="Fill-3" fill="#41C5EC"></path>
                <path d="M280.48989,65.7975349 C280.674268,65.982014 280.674268,66.2813163 280.48989,66.4657953 C280.305512,66.6508186 280.006374,66.6508186 279.821997,66.4657953 C279.637075,66.2813163 279.637075,65.982014 279.821997,65.7975349 C280.006374,65.6130558 280.305512,65.6130558 280.48989,65.7975349" id="Fill-5" fill="#41C5EC"></path>
                <path d="M68.070903,148.327648 C69.4224625,149.67995 69.4224625,151.871932 68.070903,153.224234 C66.7193434,154.575992 64.528566,154.575992 63.1770064,153.224234 C61.8259908,151.871932 61.8259908,149.67995 63.1770064,148.327648 C64.528566,146.975346 66.7193434,146.975346 68.070903,148.327648" id="Fill-26" fill="#41C5EC"></path>
                <path d="M160.800888,78.3060321 C159.551579,69.1326879 165.971623,60.682567 175.140472,59.4331158 C184.308778,58.1831205 192.754258,64.6066926 194.003023,73.7800367 C195.252331,82.9539251 188.832287,91.4035019 179.663438,92.6534972 C170.495132,93.9029484 162.050197,87.4793763 160.800888,78.3060321" id="Fill-28" fill="#41C5EC"></path>
                <path d="M152.031741,125.119256 C152.031741,136.887279 142.497399,146.42686 130.73584,146.42686 C118.974824,146.42686 109.439938,136.887279 109.439938,125.119256 C109.439938,113.351233 118.974824,103.811651 130.73584,103.811651 C142.497399,103.811651 152.031741,113.351233 152.031741,125.119256" id="Fill-30" fill="#41C5EC"></path>
                <path d="M147.829614,22.7800633 C149.908895,24.8604865 149.908895,28.2333516 147.829614,30.3132307 C145.750334,32.393654 142.379321,32.393654 140.300585,30.3132307 C138.221304,28.2333516 138.221304,24.8604865 140.300585,22.7800633 C142.379321,20.69964 145.750334,20.69964 147.829614,22.7800633" id="Fill-32" fill="#41C5EC"></path>
                <path d="M173.482596,5.28508047 C173.482596,7.71106186 171.516987,9.67775023 169.092339,9.67775023 C166.66769,9.67775023 164.702625,7.71106186 164.702625,5.28508047 C164.702625,2.85909907 166.66769,0.892410698 169.092339,0.892410698 C171.516987,0.892410698 173.482596,2.85909907 173.482596,5.28508047" id="Fill-34" fill="#41C5EC"></path>
                <path d="M177.38281,6.4531214 C175.954019,7.88269814 173.63706,7.88269814 172.207724,6.4531214 C170.778933,5.02354465 170.778933,2.70531209 172.207724,1.27519116 C173.63706,-0.154385581 175.954019,-0.154385581 177.38281,1.27519116 C178.811602,2.70531209 178.811602,5.02354465 177.38281,6.4531214" id="Fill-36" fill="#41C5EC"></path>
                <path d="M170.587593,99.9477126 C173.3897,97.144066 177.932245,97.144066 180.733808,99.9477126 C183.535914,102.751359 183.535914,107.296401 180.733808,110.099503 C177.932245,112.90315 173.3897,112.90315 170.587593,110.099503 C167.785487,107.296401 167.785487,102.751359 170.587593,99.9477126" id="Fill-38" fill="#41C5EC"></path>
                <path d="M192.652061,82.3653335 C206.026246,95.7468684 206.026246,117.441933 192.652061,130.823468 C179.277876,144.204459 157.594727,144.204459 144.220542,130.823468 C130.846901,117.441933 130.846901,95.7468684 144.220542,82.3653335 C157.594727,68.9837986 179.277876,68.9837986 192.652061,82.3653335" id="Fill-40" fill="#41C5EC"></path>
                <path d="M168.690787,129.835172 C168.690787,113.682642 181.777799,100.587893 197.922001,100.587893 C214.06566,100.587893 227.152672,113.682642 227.152672,129.835172 C227.152672,145.987702 214.06566,159.082451 197.922001,159.082451 C181.777799,159.082451 168.690787,145.987702 168.690787,129.835172" id="Fill-42" fill="#41C5EC"></path>
                <path d="M205.644274,169.735981 C205.644274,181.504005 196.109933,191.043586 184.348373,191.043586 C172.587357,191.043586 163.052472,181.504005 163.052472,169.735981 C163.052472,157.967958 172.587357,148.428377 184.348373,148.428377 C196.109933,148.428377 205.644274,157.967958 205.644274,169.735981" id="Fill-44" fill="#41C5EC"></path>
                <path d="M137.33901,161.370699 C137.33901,181.862025 120.736311,198.473848 100.256241,198.473848 C79.7761702,198.473848 63.1734712,181.862025 63.1734712,161.370699 C63.1734712,140.879373 79.7761702,124.26755 100.256241,124.26755 C120.736311,124.26755 137.33901,140.879373 137.33901,161.370699" id="Fill-46" fill="#41C5EC"></path>
                <path d="M253.974684,129.835172 C253.974684,135.129558 249.685047,139.421553 244.393568,139.421553 C239.10209,139.421553 234.812453,135.129558 234.812453,129.835172 C234.812453,124.540786 239.10209,120.248791 244.393568,120.248791 C249.685047,120.248791 253.974684,124.540786 253.974684,129.835172" id="Fill-48" fill="#41C5EC"></path>
                <path d="M177.728831,16.5177879 C177.728831,20.9469181 174.140264,24.5380019 169.713023,24.5380019 C165.286325,24.5380019 161.697214,20.9469181 161.697214,16.5177879 C161.697214,12.0886577 165.286325,8.49757395 169.713023,8.49757395 C174.140264,8.49757395 177.728831,12.0886577 177.728831,16.5177879" id="Fill-50" fill="#41C5EC"></path>
                <path d="M172.171719,27.4558186 C172.171719,30.8395674 169.429984,33.5828093 166.04755,33.5828093 C162.665659,33.5828093 159.923924,30.8395674 159.923924,27.4558186 C159.923924,24.0720698 162.665659,21.3288279 166.04755,21.3288279 C169.429984,21.3288279 172.171719,24.0720698 172.171719,27.4558186" id="Fill-52" fill="#41C5EC"></path>
                <path d="M170.625611,42.7492423 C176.940684,42.7492423 182.05975,47.8711214 182.05975,54.1896656 C182.05975,60.5076656 176.940684,65.6300888 170.625611,65.6300888 C164.310537,65.6300888 159.191471,60.5076656 159.191471,54.1896656 C159.191471,47.8711214 164.310537,42.7492423 170.625611,42.7492423" id="Fill-54" fill="#41C5EC"></path>
                <path d="M164.758972,61.961894 C169.049154,61.961894 172.526768,65.4414195 172.526768,69.7339591 C172.526768,74.0264986 169.049154,77.5065684 164.758972,77.5065684 C160.46879,77.5065684 156.991176,74.0264986 156.991176,69.7339591 C156.991176,65.4414195 160.46879,61.961894 164.758972,61.961894" id="Fill-56" fill="#41C5EC"></path>
                <path d="M172.597311,31.0289442 C176.887492,31.0289442 180.365107,34.5084698 180.365107,38.8010093 C180.365107,43.0935488 176.887492,46.5736186 172.597311,46.5736186 C168.307129,46.5736186 164.829514,43.0935488 164.829514,38.8010093 C164.829514,34.5084698 168.307129,31.0289442 172.597311,31.0289442" id="Fill-58" fill="#41C5EC"></path>
                <path d="M173.815237,41.9033595 C173.815237,48.2213595 168.696171,53.3437828 162.381097,53.3437828 C156.066024,53.3437828 150.946958,48.2213595 150.946958,41.9033595 C150.946958,35.5848153 156.066024,30.4629363 162.381097,30.4629363 C168.696171,30.4629363 173.815237,35.5848153 173.815237,41.9033595 Z" id="Fill-60" fill="#41C5EC"></path>
                <path d="M265.669999,140.903916 C279.044184,154.285451 279.044184,175.980516 265.669999,189.362051 C252.295814,202.743042 230.612665,202.743042 217.23848,189.362051 C203.864839,175.980516 203.864839,154.285451 217.23848,140.903916 C230.612665,127.522381 252.295814,127.522381 265.669999,140.903916" id="Fill-62" fill="#41C5EC"></path>
                <path d="M222.528435,189.336583 C220.009694,170.836979 232.956383,153.796337 251.445827,151.276211 C269.935814,148.756086 286.966553,161.70989 289.485294,180.209495 C292.004579,198.709644 279.057346,215.749741 260.567902,218.269867 C242.078458,220.790537 225.047176,207.836188 222.528435,189.336583" id="Fill-64" fill="#41C5EC"></path>
                <path d="M93.1823357,175.683064 C89.8994329,151.574534 106.7719,129.367934 130.867188,126.083227 C154.962477,122.799064 177.15688,139.68026 180.439782,163.78879 C183.722141,187.89732 166.850218,210.10392 142.75493,213.388627 C118.659641,216.673334 96.4652386,199.791594 93.1823357,175.683064" id="Fill-66" fill="#41C5EC"></path>
                <path d="M121.551979,86.7675265 C119.53307,86.7675265 117.896513,85.1300707 117.896513,83.1100521 C117.896513,81.0905777 119.53307,79.4531219 121.551979,79.4531219 C123.570888,79.4531219 125.207444,81.0905777 125.207444,83.1100521 C125.207444,85.1300707 123.570888,86.7675265 121.551979,86.7675265" id="Fill-68" fill="#41C5EC"></path>
                <path d="M165.502683,12.7510953 C167.581964,14.8315186 167.581964,18.2043837 165.502683,20.2842628 C163.423403,22.364686 160.05239,22.364686 157.973654,20.2842628 C155.894373,18.2043837 155.894373,14.8315186 157.973654,12.7510953 C160.05239,10.6706721 163.423403,10.6706721 165.502683,12.7510953" id="Fill-70" fill="#41C5EC"></path>
                <path d="M56.9075769,163.306563 C84.073908,159.60382 109.097078,178.636593 112.7984,205.817854 C116.499109,232.999114 97.4767905,258.036036 70.3104594,261.739392 C43.1441282,265.442749 18.1209582,246.409363 14.419636,219.228102 C10.7183139,192.046841 29.7412457,167.009919 56.9075769,163.306563 Z" id="Fill-72" fill="#FFFFFF"></path>
                <path d="M121.551979,173.224704 C121.551979,184.992727 112.017637,194.532308 100.256078,194.532308 C88.4950619,194.532308 78.9601763,184.992727 78.9601763,173.224704 C78.9601763,161.45668 88.4950619,151.917099 100.256078,151.917099 C112.017637,151.917099 121.551979,161.45668 121.551979,173.224704" id="Fill-74" fill="#FFFFFF"></path>
                <path d="M63.7769139,157.604007 C65.8561945,159.68443 65.8561945,163.057295 63.7769139,165.137174 C61.6976334,167.217597 58.3266208,167.217597 56.2478842,165.137174 C54.1686036,163.057295 54.1686036,159.68443 56.2478842,157.604007 C58.3266208,155.523583 61.6976334,155.523583 63.7769139,157.604007" id="Fill-76" fill="#FFFFFF"></path>
                <path d="M220.343205,161.370699 C220.343205,169.300034 213.91881,175.72796 205.993831,175.72796 C198.069395,175.72796 191.645,169.300034 191.645,161.370699 C191.645,153.441364 198.069395,147.013439 205.993831,147.013439 C213.91881,147.013439 220.343205,153.441364 220.343205,161.370699" id="Fill-78" fill="#FFFFFF"></path>
                <path d="M107.47792,148.413194 C110.280026,145.609547 114.822572,145.609547 117.624135,148.413194 C120.426241,151.21684 120.426241,155.761882 117.624135,158.564985 C114.822572,161.368631 110.280026,161.368631 107.47792,158.564985 C104.675813,155.761882 104.675813,151.21684 107.47792,148.413194" id="Fill-80" fill="#FFFFFF"></path>
                <path d="M171.958243,129.450487 C185.332428,142.832022 185.332428,164.527087 171.958243,177.908622 C158.584058,191.289613 136.900909,191.289613 123.526724,177.908622 C110.153083,164.527087 110.153083,142.832022 123.526724,129.450487 C136.900909,116.068952 158.584058,116.068952 171.958243,129.450487" id="Fill-82" fill="#FFFFFF"></path>
                <path d="M147.532108,177.660201 C147.532108,161.507671 160.619121,148.412922 176.763323,148.412922 C192.906981,148.412922 205.993994,161.507671 205.993994,177.660201 C205.993994,193.812731 192.906981,206.90748 176.763323,206.90748 C160.619121,206.90748 147.532108,193.812731 147.532108,177.660201" id="Fill-84" fill="#FFFFFF"></path>
                <path d="M250.296628,236.608927 C250.296628,261.346686 230.254329,281.4 205.530157,281.4 C180.807129,281.4 160.763686,261.346686 160.763686,236.608927 C160.763686,211.871168 180.807129,191.817854 205.530157,191.817854 C230.254329,191.817854 250.296628,211.871168 250.296628,236.608927" id="Fill-86" fill="#FFFFFF"></path>
                <path d="M346.940934,213.125459 C346.940934,224.893482 337.406592,234.433063 325.645033,234.433063 C313.884017,234.433063 304.349131,224.893482 304.349131,213.125459 C304.349131,201.357435 313.884017,191.817854 325.645033,191.817854 C337.406592,191.817854 346.940934,201.357435 346.940934,213.125459" id="Fill-88" fill="#FFFFFF"></path>
                <path d="M28.7167519,212.854345 C28.7167519,220.78368 22.2923569,227.211606 14.3673773,227.211606 C6.44294154,227.211606 0.0185465517,220.78368 0.0185465517,212.854345 C0.0185465517,204.92501 6.44294154,198.497085 14.3673773,198.497085 C22.2923569,198.497085 28.7167519,204.92501 28.7167519,212.854345" id="Fill-90" fill="#FFFFFF"></path>
                <path d="M246.074778,177.042441 C259.448963,190.423976 259.448963,212.119041 246.074778,225.500576 C232.700593,238.881567 211.017444,238.881567 197.643259,225.500576 C184.269618,212.119041 184.269618,190.423976 197.643259,177.042441 C211.017444,163.660906 232.700593,163.660906 246.074778,177.042441" id="Fill-92" fill="#FFFFFF"></path>
                <path d="M237.562292,219.072596 C234.279389,194.964066 251.151856,172.757466 275.247144,169.472759 C299.342433,166.188596 321.536835,183.069791 324.819738,207.178321 C328.102097,231.286852 311.230174,253.493452 287.134886,256.778159 C263.039597,260.062866 240.845194,243.181126 237.562292,219.072596" id="Fill-94" fill="#FFFFFF"></path>
                <path d="M90.8935498,219.072596 C87.610647,194.964066 104.483114,172.757466 128.578403,169.472759 C152.673691,166.188596 174.868094,183.069791 178.150997,207.178321 C181.433899,231.286852 164.561432,253.493452 140.466144,256.778159 C116.370855,260.062866 94.1764527,243.181126 90.8935498,219.072596" id="Fill-96" fill="#FFFFFF"></path>
                <path d="M248.048762,165.02801 C246.029853,165.02801 244.393297,163.390554 244.393297,161.370536 C244.393297,159.351061 246.029853,157.713606 248.048762,157.713606 C250.067671,157.713606 251.704228,159.351061 251.704228,161.370536 C251.704228,163.390554 250.067671,165.02801 248.048762,165.02801" id="Fill-98" fill="#FFFFFF"></path>
                <path d="M187.989534,125.658163 C187.989534,124.648154 188.808084,123.829698 189.816995,123.829698 C190.82645,123.829698 191.645,124.648154 191.645,125.658163 C191.645,126.668173 190.82645,127.486628 189.816995,127.486628 C188.808084,127.486628 187.989534,126.668173 187.989534,125.658163" id="Fill-100" fill="#FFFFFF"></path>
                <path d="M308.86024,169.458011 C310.939521,171.538434 310.939521,174.9113 308.86024,176.991179 C306.78096,179.071602 303.409947,179.071602 301.33121,176.991179 C299.25193,174.9113 299.25193,171.538434 301.33121,169.458011 C303.409947,167.377588 306.78096,167.377588 308.86024,169.458011" id="Fill-102" fill="#FFFFFF"></path>
                <path d="M335.370877,175.727742 C335.370877,179.503849 332.311512,182.564895 328.537479,182.564895 C324.76399,182.564895 321.704625,179.503849 321.704625,175.727742 C321.704625,171.951635 324.76399,168.890588 328.537479,168.890588 C332.311512,168.890588 335.370877,171.951635 335.370877,175.727742" id="Fill-104" fill="#FFFFFF"></path>
                <path d="M45.1749945,154.037574 C44.0045494,155.208663 42.1069271,155.208663 40.936482,154.037574 C39.7660368,152.866486 39.7660368,150.967821 40.936482,149.796733 C42.1069271,148.625644 44.0045494,148.625644 45.1749945,149.796733 C46.3454397,150.967821 46.3454397,152.866486 45.1749945,154.037574" id="Fill-106" fill="#FFFFFF"></path>
                <path d="M176.492413,27.0008247 C176.924259,26.5687409 177.624786,26.5687409 178.056632,27.0008247 C178.488479,27.4329084 178.488479,28.13382 178.056632,28.5659037 C177.624786,28.9979874 176.924259,28.9979874 176.492413,28.5659037 C176.060566,28.13382 176.060566,27.4329084 176.492413,27.0008247" id="Fill-110" fill="#41C5EC"></path>
                <path d="M130.70598,31.0289442 C130.70598,30.0189349 131.523987,29.2004791 132.533441,29.2004791 C133.542896,29.2004791 134.361446,30.0189349 134.361446,31.0289442 C134.361446,32.0389535 133.542896,32.8574093 132.533441,32.8574093 C131.523987,32.8574093 130.70598,32.0389535 130.70598,31.0289442" id="Fill-112" fill="#41C5EC"></path>
                <path d="M205.886358,83.34378 C206.318205,82.9116963 207.018732,82.9116963 207.450578,83.34378 C207.882424,83.7758637 207.882424,84.4767753 207.450578,84.9088591 C207.018732,85.3409428 206.318205,85.3409428 205.886358,84.9088591 C205.454512,84.4767753 205.454512,83.7758637 205.886358,83.34378" id="Fill-114" fill="#41C5EC"></path>
                <path d="M221.218592,94.0821488 C219.199682,94.0821488 217.563126,92.444693 217.563126,90.4246744 C217.563126,88.4052 219.199682,86.7677442 221.218592,86.7677442 C223.237501,86.7677442 224.874057,88.4052 224.874057,90.4246744 C224.874057,92.444693 223.237501,94.0821488 221.218592,94.0821488" id="Fill-116" fill="#41C5EC"></path>
                <path d="M208.300945,43.915433 C209.768353,45.383647 209.768353,47.7633726 208.300945,49.2315865 C206.833538,50.6998005 204.455119,50.6998005 202.987712,49.2315865 C201.520304,47.7633726 201.520304,45.383647 202.987712,43.915433 C204.455119,42.4472191 206.833538,42.4472191 208.300945,43.915433" id="Fill-118" fill="#41C5EC"></path>
                <path d="M237.553589,108.701816 C237.914187,109.062611 237.914187,109.647611 237.553589,110.008407 C237.192992,110.369202 236.608313,110.369202 236.247716,110.008407 C235.887119,109.647611 235.887119,109.062611 236.247716,108.701816 C236.608313,108.34102 237.192992,108.34102 237.553589,108.701816" id="Fill-120" fill="#41C5EC"></path>
                <path d="M282.767363,150.122591 C283.12796,150.483387 283.12796,151.068387 282.767363,151.429182 C282.406766,151.789977 281.822087,151.789977 281.46149,151.429182 C281.100893,151.068387 281.100893,150.483387 281.46149,150.122591 C281.822087,149.761796 282.406766,149.761796 282.767363,150.122591" id="Fill-122" fill="#41C5EC"></path>
                <path d="M110.093092,99.0109507 C110.45369,99.371746 110.45369,99.956746 110.093092,100.317541 C109.732495,100.678337 109.147817,100.678337 108.787219,100.317541 C108.426622,99.956746 108.426622,99.371746 108.787219,99.0109507 C109.147817,98.6501553 109.732495,98.6501553 110.093092,99.0109507" id="Fill-124" fill="#41C5EC"></path>
                <path d="M173.9511,101.076627 C176.996868,104.124068 176.996868,109.064733 173.9511,112.112175 C170.905332,115.159617 165.967381,115.159617 162.921613,112.112175 C159.875845,109.064733 159.875845,104.124068 162.921613,101.076627 C165.967381,98.0291847 170.905332,98.0291847 173.9511,101.076627" id="Fill-126" fill="#FFFFFF"></path>
                <path d="M20.6549846,166.187725 C22.6135223,168.147339 22.6135223,171.324841 20.6549846,173.284455 C18.696447,175.244069 15.52069,175.244069 13.5621524,173.284455 C11.6036147,171.324841 11.6036147,168.147339 13.5621524,166.187725 C15.52069,164.228111 18.696447,164.228111 20.6549846,166.187725" id="Fill-128" fill="#FFFFFF"></path>
                <path d="M268.391338,110.890587 C267.543962,110.890587 266.856488,110.20328 266.856488,109.354893 C266.856488,108.507052 267.543962,107.819745 268.391338,107.819745 C269.238714,107.819745 269.926187,108.507052 269.926187,109.354893 C269.926187,110.20328 269.238714,110.890587 268.391338,110.890587" id="Fill-130" fill="#FFFFFF"></path>
            </g>
        </g>
    </g>
</svg>