<?xml version="1.0" encoding="UTF-8" standalone="no"?>
<svg width="25px" height="25px" viewBox="0 0 25 25" version="1.1" xmlns="http://www.w3.org/2000/svg" xmlns:xlink="http://www.w3.org/1999/xlink">
    <!-- Generator: sketchtool 40.3 (33839) - http://www.bohemiancoding.com/sketch -->
    <title>7D060768-7DB2-4B0A-8995-B98571A8D411</title>
    <desc>Created with sketchtool.</desc>
    <defs></defs>
    <g id="Page-1" stroke="none" stroke-width="1" fill="none" fill-rule="evenodd">
        <g id="guidelines" transform="translate(-20.000000, -13.000000)">
            <g id="Group-2">
                <g id="Group" transform="translate(20.000000, 13.000000)">
                    <g id="Group-Copy">
                        <path d="M2.47937483,0 C1.18630453,0 0.138156265,1.04705746 0.138156265,2.3384185 C0.138156265,3.62948484 1.18630453,4.6762476 2.47937483,4.6762476 C3.77244513,4.6762476 4.82088848,3.62948484 4.82088848,2.3384185 C4.82088848,1.04705746 3.77244513,0 2.47937483,0" id="Fill-13" fill="#FFFFFE"></path>
                        <path d="M9.16781194,0 C7.87474164,0 6.82659337,1.04705746 6.82659337,2.3384185 C6.82659337,3.62948484 7.87474164,4.6762476 9.16781194,4.6762476 C10.4608822,4.6762476 11.5090305,3.62948484 11.5090305,2.3384185 C11.5090305,1.04705746 10.4608822,0 9.16781194,0" id="Fill-14" fill="#FFFFFE"></path>
                        <path d="M15.8565441,0 C14.5634738,0 13.5153256,1.04705746 13.5153256,2.3384185 C13.5153256,3.62948484 14.5634738,4.6762476 15.8565441,4.6762476 C17.1493193,4.6762476 18.1974676,3.62948484 18.1974676,2.3384185 C18.1974676,1.04705746 17.1493193,0 15.8565441,0" id="Fill-15" fill="#FFFFFE"></path>
                        <path d="M22.5446861,0 C21.2519109,0 20.2034676,1.04705746 20.2034676,2.3384185 C20.2034676,3.62948484 21.2519109,4.6762476 22.5446861,4.6762476 C23.8377564,4.6762476 24.8859047,3.62948484 24.8859047,2.3384185 C24.8859047,1.04705746 23.8377564,0 22.5446861,0" id="Fill-16" fill="#FFFFFE"></path>
                        <path d="M2.47937483,6.67959593 C3.77244513,6.67959593 4.8205934,7.72635869 4.8205934,9.01771973 C4.8205934,10.3087861 3.77244513,11.3558435 2.47937483,11.3558435 C1.18659962,11.3558435 0.138156265,10.3087861 0.138156265,9.01771973 C0.138156265,7.72635869 1.18659962,6.67959593 2.47937483,6.67959593" id="Fill-17" fill="#5BC0DE"></path>
                        <path d="M9.16781194,6.67959593 C10.4608822,6.67959593 11.5090305,7.72635869 11.5090305,9.01771973 C11.5090305,10.3087861 10.4608822,11.3558435 9.16781194,11.3558435 C7.87474164,11.3558435 6.82688846,10.3087861 6.82688846,9.01771973 C6.82688846,7.72635869 7.87474164,6.67959593 9.16781194,6.67959593" id="Fill-18" fill="#5BC0DE"></path>
                        <path d="M15.8565441,6.67959593 C17.1493193,6.67959593 18.1977627,7.72635869 18.1977627,9.01771973 C18.1977627,10.3087861 17.1493193,11.3558435 15.8565441,11.3558435 C14.5634738,11.3558435 13.5153256,10.3087861 13.5153256,9.01771973 C13.5153256,7.72635869 14.5634738,6.67959593 15.8565441,6.67959593" id="Fill-19" fill="#5BC0DE"></path>
                        <path d="M20.2034676,9.01771973 C20.2034676,10.3087861 21.2519109,11.3555488 22.5446861,11.3555488 C23.8377564,11.3555488 24.8859047,10.3087861 24.8859047,9.01771973 C24.8859047,7.72635869 23.8377564,6.67989063 22.5446861,6.67989063 C21.2519109,6.67989063 20.2034676,7.72635869 20.2034676,9.01771973 Z" id="Fill-20" fill="#FFFFFE"></path>
                        <path d="M2.47937483,13.3591919 C1.18630453,13.3591919 0.138156265,14.4062493 0.138156265,15.697021 C0.138156265,16.988382 1.18630453,18.0354395 2.47937483,18.0354395 C3.77244513,18.0354395 4.82088848,16.988382 4.82088848,15.697021 C4.82088848,14.4062493 3.77244513,13.3591919 2.47937483,13.3591919" id="Fill-21" fill="#FFFFFE"></path>
                        <path d="M9.16781194,13.3591919 C7.87474164,13.3591919 6.82659337,14.4062493 6.82659337,15.697021 C6.82659337,16.988382 7.87474164,18.0354395 9.16781194,18.0354395 C10.4608822,18.0354395 11.5090305,16.988382 11.5090305,15.697021 C11.5090305,14.4062493 10.4608822,13.3591919 9.16781194,13.3591919" id="Fill-22" fill="#FFFFFE"></path>
                        <path d="M15.8565441,13.3591919 C17.1493193,13.3591919 18.1977627,14.4062493 18.1977627,15.6973157 C18.1977627,16.9886767 17.1493193,18.0354395 15.8565441,18.0354395 C14.5634738,18.0354395 13.5153256,16.9886767 13.5153256,15.6973157 C13.5153256,14.4062493 14.5634738,13.3591919 15.8565441,13.3591919" id="Fill-23" fill="#5BC0DE"></path>
                        <path d="M22.5446861,13.3591919 C21.2519109,13.3591919 20.2034676,14.4062493 20.2034676,15.697021 C20.2034676,16.988382 21.2519109,18.0354395 22.5446861,18.0354395 C23.8377564,18.0354395 24.8859047,16.988382 24.8859047,15.697021 C24.8859047,14.4062493 23.8377564,13.3591919 22.5446861,13.3591919" id="Fill-24" fill="#FFFFFE"></path>
                        <path d="M2.47937483,20.0390825 C1.18630453,20.0390825 0.138156265,21.0855505 0.138156265,22.3769116 C0.138156265,23.6682726 1.18630453,24.7150354 2.47937483,24.7150354 C3.77244513,24.7150354 4.82088848,23.6682726 4.82088848,22.3769116 C4.82088848,21.0855505 3.77244513,20.0390825 2.47937483,20.0390825" id="Fill-25" fill="#FFFFFE"></path>
                        <path d="M9.16781194,20.0390825 C7.87474164,20.0390825 6.82659337,21.0855505 6.82659337,22.3769116 C6.82659337,23.6682726 7.87474164,24.7150354 9.16781194,24.7150354 C10.4608822,24.7150354 11.5090305,23.6682726 11.5090305,22.3769116 C11.5090305,21.0855505 10.4608822,20.0390825 9.16781194,20.0390825" id="Fill-26" fill="#FFFFFE"></path>
                        <path d="M15.8565441,20.0390825 C17.1493193,20.0390825 18.1977627,21.0855505 18.1977627,22.3769116 C18.1977627,23.6679779 17.1493193,24.7150354 15.8565441,24.7150354 C14.5634738,24.7150354 13.5153256,23.6679779 13.5153256,22.3769116 C13.5153256,21.0855505 14.5634738,20.0390825 15.8565441,20.0390825" id="Fill-27" fill="#5BC0DE"></path>
                        <path d="M22.5446861,20.0390825 C21.2519109,20.0390825 20.2034676,21.0855505 20.2034676,22.3769116 C20.2034676,23.6682726 21.2519109,24.7150354 22.5446861,24.7150354 C23.8377564,24.7150354 24.8859047,23.6682726 24.8859047,22.3769116 C24.8859047,21.0855505 23.8377564,20.0390825 22.5446861,20.0390825" id="Fill-28" fill="#FFFFFE"></path>
                    </g>
                </g>
            </g>
        </g>
    </g>
</svg>