<?xml version="1.0" encoding="UTF-8" standalone="no"?>
<svg width="200px" height="25px" viewBox="0 0 200 25" version="1.1" xmlns="http://www.w3.org/2000/svg" xmlns:xlink="http://www.w3.org/1999/xlink">
    <!-- Generator: sketchtool 40.3 (33839) - http://www.bohemiancoding.com/sketch -->
    <title>BF8B49B0-244E-4141-AEA8-938C7A01375A</title>
    <desc>Created with sketchtool.</desc>
    <defs>
        <polygon id="path-1" points="0.0176470588 0.116853933 199.82 0.116853933 199.82 24.9831461 0.0176470588 24.9831461"></polygon>
        <polygon id="path-3" points="0.0176470588 0.116853933 199.82 0.116853933 199.82 24.9831461 0.0176470588 24.9831461"></polygon>
        <polyline id="path-5" points="0.0176470588 0.116853933 199.82 0.116853933 199.82 24.9831461 0.0176470588 24.9831461"></polyline>
        <polyline id="path-7" points="0.0176470588 0.116853933 199.82 0.116853933 199.82 24.9831461 0.0176470588 24.9831461"></polyline>
        <polyline id="path-9" points="0.0176470588 0.116853933 199.82 0.116853933 199.82 24.9831461 0.0176470588 24.9831461"></polyline>
    </defs>
    <g id="Page-1" stroke="none" stroke-width="1" fill="none" fill-rule="evenodd">
        <g id="Home" transform="translate(-50.000000, -1332.000000)">
            <g id="Logo" transform="translate(50.000000, 1332.000000)">
                <g id="Group-4">
                    <mask id="mask-2" fill="white">
                        <use xlink:href="#path-1"></use>
                    </mask>
                    <g id="Clip-2"></g>
                    <path d="M199.196471,10.3842697 L199.196471,7.43483146 L197.979118,10.3842697 L197.761471,10.3842697 L196.537941,7.44044944 L196.537941,10.3842697 L195.914412,10.3842697 L195.914412,6.43483146 L196.667353,6.43483146 L197.872941,9.41235955 L199.073235,6.43483146 L199.82,6.43483146 L199.82,10.3842697 L199.196471,10.3842697 L199.196471,10.3842697 Z M194.161471,6.93483146 L194.161471,10.3842697 L193.532059,10.3842697 L193.532059,6.93483146 L192.314412,6.93483146 L192.314412,6.43483146 L195.384706,6.43483146 L195.384706,6.93483146 L194.161471,6.93483146 L194.161471,6.93483146 Z" id="Fill-1" fill="#FFFFFF" mask="url(#mask-2)"></path>
                    <path d="M47.7497059,17.9207865 C47.7497059,22.1682584 44.2244118,22.6640449 40.7732353,22.6640449 L34.1305882,22.6640449 L34.1305882,12.7884831 L40.9958824,12.7884831 C44.4097059,12.7884831 47.7497059,13.9918539 47.7497059,17.9207865 L47.7497059,17.9207865 Z M46.6738235,6.38174157 C46.6738235,9.70926966 43.9276471,10.5233146 40.9588235,10.5233146 L34.1305882,10.5233146 L34.1305882,2.45308989 L41.2926471,2.45308989 C44.1132353,2.45308989 46.6738235,3.23174157 46.6738235,6.38174157 L46.6738235,6.38174157 Z M50.4588235,17.8148876 C50.4588235,13.9564607 47.9726471,12.1160112 45.1894118,11.5143258 C48.1952941,10.7002809 49.3826471,8.71797753 49.3826471,6.34634831 C49.3826471,1.81601124 45.9314706,0.116853933 41.6267647,0.116853933 L31.4585294,0.116853933 L31.4585294,24.9997191 L39.9938235,24.9997191 C45.2635294,24.9997191 50.4588235,24.2213483 50.4588235,17.8148876 L50.4588235,17.8148876 Z" id="Fill-3" fill="#FFFFFF" mask="url(#mask-2)"></path>
                </g>
                <path d="M64.2241176,14.1570225 L53.5364706,14.1570225 C53.9073529,10.5469101 55.9858824,8.56460674 58.8802941,8.56460674 C62.4055882,8.56460674 63.9273529,11.1132022 64.2241176,14.1570225 L64.2241176,14.1570225 Z M66.8217647,15.3960674 C66.8217647,10.6530899 64.3726471,6.40561798 58.9173529,6.40561798 C54.4641176,6.40561798 50.8276471,9.80337079 50.8276471,15.5730337 C50.8276471,21.5547753 54.2785294,24.952809 58.9917647,24.952809 C62.5541176,24.952809 64.9291176,23.3601124 66.3764706,21.377809 L64.6320588,20.1033708 C62.9623529,22.1564607 61.2182353,22.7581461 59.14,22.7581461 C55.1691176,22.7581461 53.5738235,19.466573 53.4994118,16.1747191 L66.7476471,16.1747191 C66.7847059,15.9269663 66.8217647,15.7146067 66.8217647,15.3960674 L66.8217647,15.3960674 Z" id="Fill-5" fill="#FFFFFF"></path>
                <path d="M75.6179412,9.25730337 L75.6179412,7.21882022 L71.4161765,7.21882022 L71.4161765,0.23988764 L68.9532353,0.23988764 L68.9532353,7.21882022 L65.9829412,7.21882022 L65.9829412,9.25730337 L68.9532353,9.25730337 L68.9532353,20.3823034 C68.9532353,22.8005618 69.1705882,24.8735955 72.3217647,24.8735955 C73.5535294,24.8735955 74.4952941,24.6317416 75.4732353,24.1480337 L75.4732353,21.9022472 C74.6038235,22.3859551 73.9155882,22.7314607 73.01,22.7314607 C71.9235294,22.7314607 71.4161765,22.2477528 71.4161765,20.6929775 L71.4161765,9.25730337 L75.6179412,9.25730337" id="Fill-6" fill="#FFFFFF"></path>
                <path d="M83.6161765,9.25730337 L83.6161765,7.21882022 L79.4144118,7.21882022 L79.4144118,0.23988764 L76.9511765,0.23988764 L76.9511765,7.21882022 L73.9808824,7.21882022 L73.9808824,9.25730337 L76.9511765,9.25730337 L76.9511765,20.3823034 C76.9511765,22.8005618 77.1685294,24.8735955 80.3197059,24.8735955 C81.5514706,24.8735955 82.4932353,24.6317416 83.4711765,24.1480337 L83.4711765,21.9022472 C82.6017647,22.3859551 81.9138235,22.7314607 81.0079412,22.7314607 C79.9214706,22.7314607 79.4144118,22.2477528 79.4144118,20.6929775 L79.4144118,9.25730337 L83.6161765,9.25730337" id="Fill-7" fill="#FFFFFF"></path>
                <g id="Group-17">
                    <mask id="mask-4" fill="white">
                        <use xlink:href="#path-3"></use>
                    </mask>
                    <g id="Clip-9"></g>
                    <path d="M96.2467647,14.1570225 L85.5591176,14.1570225 C85.9302941,10.5469101 88.0082353,8.56460674 90.9029412,8.56460674 C94.4282353,8.56460674 95.9497059,11.1132022 96.2467647,14.1570225 L96.2467647,14.1570225 Z M98.8444118,15.3960674 C98.8444118,10.6530899 96.3952941,6.40561798 90.94,6.40561798 C86.4867647,6.40561798 82.85,9.80337079 82.85,15.5730337 C82.85,21.5547753 86.3011765,24.952809 91.0144118,24.952809 C94.5767647,24.952809 96.9517647,23.3601124 98.3991176,21.377809 L96.655,20.1033708 C94.985,22.1564607 93.2408824,22.7581461 91.1626471,22.7581461 C87.1920588,22.7581461 85.5961765,19.466573 85.5220588,16.1747191 L98.7702941,16.1747191 C98.8073529,15.9269663 98.8444118,15.7146067 98.8444118,15.3960674 L98.8444118,15.3960674 Z" id="Fill-8" fill="#FFFFFF" mask="url(#mask-4)"></path>
                    <path d="M110.826765,7.26685393 C110.047353,7.01910112 109.231176,6.91292135 108.229118,6.91292135 C105.520294,6.91292135 103.775882,8.22247191 102.885294,9.77977528 L102.885294,7.26685393 L100.324706,7.26685393 L100.324706,25 L102.885294,25 L102.885294,15.8679775 C102.885294,12.5053371 104.11,9.07219101 107.672353,9.07219101 C108.303529,9.07219101 109.045588,9.17837079 109.862059,9.4258427 L110.826765,7.26685393" id="Fill-10" fill="#FFFFFF" mask="url(#mask-4)"></path>
                    <polyline id="Fill-11" fill="#FFFFFF" mask="url(#mask-4)" points="139.108235 0.315168539 136.420882 0.315168539 131.487647 21.2426966 125.634412 0.315168539 123.241471 0.315168539 117.498529 21.2426966 112.455 0.315168539 109.694118 0.315168539 116.136471 25 118.676471 25 124.419706 4.31797753 130.199412 25 132.812941 25 139.108235 0.315168539"></polyline>
                    <path d="M150.646176,15.7146067 C150.646176,20.1033708 148.605,22.7935393 145.042647,22.7935393 C141.851176,22.7935393 139.476176,20.563764 139.476176,15.75 C139.476176,12.2457865 140.812059,8.52921348 145.079706,8.52921348 C149.569706,8.52921348 150.683235,12.8123596 150.646176,15.7146067 L150.646176,15.7146067 Z M153.281176,15.5730337 C153.281176,10.2283708 150.275,6.40561798 145.079706,6.40561798 C139.847353,6.40561798 136.804118,10.4407303 136.804118,15.7853933 C136.804118,21.3070225 140.032941,24.952809 145.005588,24.952809 C150.609118,24.952809 153.318235,20.3867978 153.281176,15.5730337 L153.281176,15.5730337 Z" id="Fill-12" fill="#FFFFFF" mask="url(#mask-4)"></path>
                    <path d="M164.755588,7.26685393 C163.976471,7.01910112 163.16,6.91292135 162.157941,6.91292135 C159.448824,6.91292135 157.705,8.22247191 156.814118,9.77977528 L156.814118,7.26685393 L154.253529,7.26685393 L154.253529,25 L156.814118,25 L156.814118,15.8679775 C156.814118,12.5053371 158.038529,9.07219101 161.601471,9.07219101 C162.232059,9.07219101 162.974412,9.17837079 163.790882,9.4258427 L164.755588,7.26685393" id="Fill-13" fill="#FFFFFF" mask="url(#mask-4)"></path>
                    <polyline id="Fill-14" fill="#FFFFFF" mask="url(#mask-4)" points="180.171765 24.9997191 173.120882 13.9210674 179.429412 7.26685393 176.386765 7.26685393 167.888529 16.4696629 167.888529 0.116853933 165.327941 0.116853933 165.327941 24.9997191 167.888529 24.9997191 167.888529 19.6550562 171.413824 15.797191 177.24 24.9997191 180.171765 24.9997191"></polyline>
                    <path d="M192.302353,19.8525281 C192.302353,17.2685393 190.632647,15.6758427 185.993824,14.1893258 C183.025,13.233427 182.060294,12.5255618 182.060294,11.0744382 C182.060294,9.48174157 183.396176,8.56123596 185.622647,8.56123596 C187.404118,8.56123596 188.888529,9.19859551 190.187353,10.6497191 L192.08,9.3755618 C190.187353,7.35786517 188.257647,6.43764045 185.659706,6.43764045 C181.763235,6.43764045 179.573824,8.56123596 179.573824,11.180618 C179.573824,13.3396067 181.058235,15.1095506 184.546471,16.1713483 C189.036765,17.5162921 189.816176,18.5426966 189.816176,19.9587079 C189.816176,21.5160112 188.777059,22.8258427 185.956765,22.8258427 C183.804412,22.8258427 182.32,21.9407303 181.243824,20.1002809 L179.351176,21.480618 C180.835588,23.8522472 182.987941,24.9848315 185.919706,24.9848315 C189.890294,24.9848315 192.302353,22.8258427 192.302353,19.8525281" id="Fill-15" fill="#FFFFFF" mask="url(#mask-4)"></path>
                    <path d="M2.45088235,0.21741573 C3.80441176,0.21741573 4.90147059,1.26516854 4.90147059,2.55786517 C4.90147059,3.8505618 3.80441176,4.89859551 2.45088235,4.89859551 C1.09735294,4.89859551 0,3.8505618 0,2.55786517 C0,1.26516854 1.09735294,0.21741573 2.45088235,0.21741573" id="Fill-16" fill="#FFFFFF" mask="url(#mask-4)"></path>
                </g>
                <path d="M9.45205882,0.21741573 C10.8055882,0.21741573 11.9026471,1.26516854 11.9026471,2.55786517 C11.9026471,3.8505618 10.8055882,4.89859551 9.45205882,4.89859551 C8.09852941,4.89859551 7.00117647,3.8505618 7.00117647,2.55786517 C7.00117647,1.26516854 8.09852941,0.21741573 9.45205882,0.21741573" id="Fill-18" fill="#FFFFFF"></path>
                <path d="M16.4535294,0.21741573 C17.8070588,0.21741573 18.9044118,1.26516854 18.9044118,2.55786517 C18.9044118,3.8505618 17.8070588,4.89859551 16.4535294,4.89859551 C15.1,4.89859551 14.0029412,3.8505618 14.0029412,2.55786517 C14.0029412,1.26516854 15.1,0.21741573 16.4535294,0.21741573" id="Fill-19" fill="#FFFFFF"></path>
                <g id="Group-23">
                    <mask id="mask-6" fill="white">
                        <use xlink:href="#path-5"></use>
                    </mask>
                    <g id="Clip-21"></g>
                    <path d="M23.4552941,0.21741573 C24.8088235,0.21741573 25.9058824,1.26516854 25.9058824,2.55786517 C25.9058824,3.8505618 24.8088235,4.89859551 23.4552941,4.89859551 C22.1017647,4.89859551 21.0044118,3.8505618 21.0044118,2.55786517 C21.0044118,1.26516854 22.1017647,0.21741573 23.4552941,0.21741573" id="Fill-20" fill="#FFFFFF" mask="url(#mask-6)"></path>
                    <path d="M2.45088235,6.90421348 C3.80441176,6.90421348 4.90147059,7.95224719 4.90147059,9.24494382 C4.90147059,10.5373596 3.80441176,11.5853933 2.45088235,11.5853933 C1.09735294,11.5853933 0,10.5373596 0,9.24494382 C0,7.95224719 1.09735294,6.90421348 2.45088235,6.90421348" id="Fill-22" fill="#5FBAD0" mask="url(#mask-6)"></path>
                </g>
                <path d="M9.45205882,6.90421348 C10.8055882,6.90421348 11.9026471,7.95224719 11.9026471,9.24494382 C11.9026471,10.5373596 10.8055882,11.5853933 9.45205882,11.5853933 C8.09852941,11.5853933 7.00117647,10.5373596 7.00117647,9.24494382 C7.00117647,7.95224719 8.09852941,6.90421348 9.45205882,6.90421348" id="Fill-24" fill="#5FBAD0"></path>
                <path d="M16.4535294,6.90421348 C17.8070588,6.90421348 18.9044118,7.95224719 18.9044118,9.24494382 C18.9044118,10.5373596 17.8070588,11.5853933 16.4535294,11.5853933 C15.1,11.5853933 14.0029412,10.5373596 14.0029412,9.24494382 C14.0029412,7.95224719 15.1,6.90421348 16.4535294,6.90421348" id="Fill-25" fill="#5FBAD0"></path>
                <g id="Group-29">
                    <mask id="mask-8" fill="white">
                        <use xlink:href="#path-7"></use>
                    </mask>
                    <g id="Clip-27"></g>
                    <path d="M23.4552941,6.90421348 C24.8088235,6.90421348 25.9058824,7.95224719 25.9058824,9.24494382 C25.9058824,10.5373596 24.8088235,11.5853933 23.4552941,11.5853933 C22.1017647,11.5853933 21.0044118,10.5373596 21.0044118,9.24494382 C21.0044118,7.95224719 22.1017647,6.90421348 23.4552941,6.90421348" id="Fill-26" fill="#FFFFFF" mask="url(#mask-8)"></path>
                    <path d="M2.45088235,13.5907303 C3.80441176,13.5907303 4.90147059,14.638764 4.90147059,15.9314607 C4.90147059,17.2241573 3.80441176,18.2719101 2.45088235,18.2719101 C1.09735294,18.2719101 0,17.2241573 0,15.9314607 C0,14.638764 1.09735294,13.5907303 2.45088235,13.5907303" id="Fill-28" fill="#FFFFFF" mask="url(#mask-8)"></path>
                </g>
                <path d="M9.45205882,13.5907303 C10.8055882,13.5907303 11.9026471,14.638764 11.9026471,15.9314607 C11.9026471,17.2241573 10.8055882,18.2719101 9.45205882,18.2719101 C8.09852941,18.2719101 7.00117647,17.2241573 7.00117647,15.9314607 C7.00117647,14.638764 8.09852941,13.5907303 9.45205882,13.5907303" id="Fill-30" fill="#FFFFFF"></path>
                <path d="M16.4535294,13.5907303 C17.8070588,13.5907303 18.9044118,14.638764 18.9044118,15.9314607 C18.9044118,17.2241573 17.8070588,18.2719101 16.4535294,18.2719101 C15.1,18.2719101 14.0029412,17.2241573 14.0029412,15.9314607 C14.0029412,14.638764 15.1,13.5907303 16.4535294,13.5907303" id="Fill-31" fill="#5FBAD0"></path>
                <g id="Group-35">
                    <mask id="mask-10" fill="white">
                        <use xlink:href="#path-9"></use>
                    </mask>
                    <g id="Clip-33"></g>
                    <path d="M23.4552941,13.5907303 C24.8088235,13.5907303 25.9058824,14.638764 25.9058824,15.9314607 C25.9058824,17.2241573 24.8088235,18.2719101 23.4552941,18.2719101 C22.1017647,18.2719101 21.0044118,17.2241573 21.0044118,15.9314607 C21.0044118,14.638764 22.1017647,13.5907303 23.4552941,13.5907303" id="Fill-32" fill="#FFFFFF" mask="url(#mask-10)"></path>
                    <path d="M2.45088235,20.277809 C3.80441176,20.277809 4.90147059,21.3255618 4.90147059,22.6182584 C4.90147059,23.9109551 3.80441176,24.9589888 2.45088235,24.9589888 C1.09735294,24.9589888 0,23.9109551 0,22.6182584 C0,21.3255618 1.09735294,20.277809 2.45088235,20.277809" id="Fill-34" fill="#FFFFFF" mask="url(#mask-10)"></path>
                </g>
                <path d="M9.45205882,20.277809 C10.8055882,20.277809 11.9026471,21.3255618 11.9026471,22.6182584 C11.9026471,23.9109551 10.8055882,24.9589888 9.45205882,24.9589888 C8.09852941,24.9589888 7.00117647,23.9109551 7.00117647,22.6182584 C7.00117647,21.3255618 8.09852941,20.277809 9.45205882,20.277809" id="Fill-36" fill="#FFFFFF"></path>
                <path d="M16.4535294,20.277809 C17.8070588,20.277809 18.9044118,21.3255618 18.9044118,22.6182584 C18.9044118,23.9109551 17.8070588,24.9589888 16.4535294,24.9589888 C15.1,24.9589888 14.0029412,23.9109551 14.0029412,22.6182584 C14.0029412,21.3255618 15.1,20.277809 16.4535294,20.277809" id="Fill-37" fill="#5FBAD0"></path>
                <path d="M23.4552941,20.277809 C24.8088235,20.277809 25.9058824,21.3255618 25.9058824,22.6182584 C25.9058824,23.9109551 24.8088235,24.9589888 23.4552941,24.9589888 C22.1017647,24.9589888 21.0044118,23.9109551 21.0044118,22.6182584 C21.0044118,21.3255618 22.1017647,20.277809 23.4552941,20.277809" id="Fill-38" fill="#FFFFFF"></path>
            </g>
        </g>
    </g>
</svg>