<?xml version="1.0" encoding="UTF-8" standalone="no"?>
<svg width="27px" height="50px" viewBox="0 0 27 50" version="1.1" xmlns="http://www.w3.org/2000/svg" xmlns:xlink="http://www.w3.org/1999/xlink">
    <!-- Generator: sketchtool 40.3 (33839) - http://www.bohemiancoding.com/sketch -->
    <title>414445D2-7FE5-4607-9AF3-F7DA5B93B08E</title>
    <desc>Created with sketchtool.</desc>
    <defs></defs>
    <g id="Page-1" stroke="none" stroke-width="1" fill="none" fill-rule="evenodd">
        <g id="Home" transform="translate(-210.000000, -183.000000)">
            <g id="rocket" transform="translate(223.685413, 209.316884) rotate(-45.000000) translate(-223.685413, -209.316884) translate(204.685413, 190.316884)">
                <path d="M15.7007878,21.4916218 C16.3157854,22.1333119 17.3117014,22.1480534 17.9422467,21.5237063 C18.5451517,20.9271079 18.551198,19.9463626 17.9560669,19.3280855 C17.3453881,18.6941998 16.3183767,18.6733882 15.7120167,19.2838609 C15.1263869,19.8735221 15.1212044,20.8863519 15.7007878,21.4916218 M18.8716532,13.2450367 C17.378211,14.7070496 17.3643908,17.0258055 18.8405578,18.538113 C20.2614441,19.9931886 22.6419685,20.0261403 24.0827213,18.6100863 C25.5597521,17.1584792 25.5899837,14.7781558 24.1509584,13.2909956 C22.7041593,11.7960311 20.3711417,11.7760867 18.8716532,13.2450367 M11.1306301,13.4219351 C12.3286661,11.9573208 13.3850454,10.3418226 14.7489235,9.05410662 C19.8105611,4.27264817 25.8534307,2.33196917 32.7652436,3.17743925 C33.9961026,3.32832314 34.9773347,2.55395926 35.1086263,1.28792203 C35.1846372,0.550845552 35.752128,0.0539692932 36.4880521,0.0791166083 C37.2248399,0.104263923 37.776783,0.648833365 37.7966495,1.36943401 C37.816516,2.10737764 37.2524803,2.72131898 36.5131012,2.76554357 C35.2364629,2.84185266 34.4633971,3.76276468 34.5705034,5.04787919 C35.167362,12.2235355 32.9103554,18.3464731 27.7174262,23.3091656 C26.487431,24.4832851 24.9957164,25.3807841 23.6240644,26.405754 C22.2999193,26.9694007 21.001687,27.6145594 19.6421277,28.0732811 C18.392266,28.4955826 17.075031,28.7184398 15.7871638,29.0297462 C15.1376158,29.0696351 14.4863403,29.0939152 13.8393835,29.1563499 C13.408367,29.1988402 13.1250535,29.0479563 12.8728353,28.6950268 C12.480688,28.1443873 12.0358512,27.6319024 11.6134723,27.1038088 C11.0382077,26.5193505 10.4629431,25.9357593 9.88767846,25.351301 C9.40310872,24.9211952 8.93408668,24.4702779 8.42705917,24.068788 C8.09105626,23.8034404 7.95458208,23.5216171 8.01590909,23.089777 C8.10055763,22.4931786 8.12560669,21.8887759 8.17570481,21.2878418 C8.35277575,20.5906542 8.52984668,19.8943337 8.70605386,19.1971461 C9.22431026,17.1498078 10.131259,15.2663606 11.1306301,13.4219351" id="Fill-7" fill="#FEFEFE"></path>
                <path d="M4.39407421,34.3447613 C4.05807131,34.4704979 3.72984226,34.6586692 3.38261047,34.7072295 C2.95936774,34.7661956 2.2925445,34.8711206 2.1431139,34.6604035 C1.92976502,34.3612371 2.03687134,33.7837161 2.11288228,33.3432045 C2.17680057,32.9755334 2.3936045,32.635611 2.5430351,32.2826815 C3.55709012,30.770374 4.54868737,29.2415907 5.59211027,27.7492276 C6.44896085,26.5230792 7.5701222,25.8571089 9.12489141,26.3444466 C9.83922149,26.7173205 10.3566141,27.2731629 10.6718868,28.0163094 C10.956064,29.3300398 10.5561428,30.3957657 9.44448286,31.1285064 C7.77742476,32.2263168 6.07927128,33.2746997 4.39407421,34.3447613" id="Fill-9" fill="#ED6A68"></path>
                <path d="M23.5395886,27.6769941 C23.368564,30.3642882 22.3648741,32.7220658 20.6520367,34.763334 C20.0206276,35.5160192 19.2527444,36.1551079 18.528913,36.8271482 C18.3259292,37.0161866 18.0607547,37.1384546 17.6858826,37.3803891 C17.6789725,34.7754741 17.1546697,32.4159623 16.2943641,30.1266894 C16.4558874,30.0573175 16.6113643,29.9584626 16.7797976,29.9246438 C17.5692749,29.7633541 18.3967576,29.7173952 19.1473656,29.4503134 C20.633034,28.9222198 22.0781056,28.2753268 23.5395886,27.6769941" id="Fill-11" fill="#5BC0DE"></path>
                <path d="M7.19291792,20.6358326 C5.44553008,20.1294177 3.70505233,19.5961212 1.9464356,19.1330638 C1.37376227,18.983047 0.752718352,19.017733 0.09366896,18.9631026 C0.149813404,18.7757985 0.155859728,18.6335861 0.226688103,18.5425354 C2.46296448,15.6531957 5.39629572,13.9717941 9.00249652,13.4749179 C9.19425139,13.4480363 9.39723515,13.5078695 9.59590011,13.5269468 C9.0491396,14.9135177 8.46005482,16.2836128 7.97116628,17.689261 C7.63861842,18.6465933 7.44772732,19.6516187 7.19291792,20.6358326" id="Fill-13" fill="#5BC0DE"></path>
            </g>
        </g>
    </g>
</svg>