<?xml version="1.0" encoding="UTF-8" standalone="no"?>
<svg width="84px" height="110px" viewBox="0 0 84 110" version="1.1" xmlns="http://www.w3.org/2000/svg" xmlns:xlink="http://www.w3.org/1999/xlink">
    <!-- Generator: Sketch 40.3 (33839) - http://www.bohemiancoding.com/sketch -->
    <title>telescope</title>
    <desc>Created with Sketch.</desc>
    <defs>
        <rect id="path-1" x="0" y="0" width="167" height="110"></rect>
        <path d="M3.13426609,3.08988324 L2.44205597,4.7555205 L1.74984584,3.08988324 L0.0708680913,2.40317314 L1.74984584,1.71646304 L2.44205597,0.0508257876 L3.13426609,1.71646304 L4.81324384,2.40317314 L3.13426609,3.08988324 Z" id="path-3"></path>
        <rect id="path-5" x="0" y="0" width="3.25459054" height="41.0082169" rx="1.62729527"></rect>
        <ellipse id="path-7" cx="12.5594721" cy="11.8471098" rx="8.5677328" ry="8.63635385"></ellipse>
        <rect id="path-9" x="0.0300728599" y="8.04328568" width="34.0113029" height="8.89806155" rx="1.6"></rect>
        <rect id="path-11" x="2.05256162" y="7.59909829" width="34.0113029" height="17.2727077" rx="1.6"></rect>
        <rect id="path-13" x="1.36316361" y="1.4209086" width="4.6654953" height="6.54269231" rx="1.6"></rect>
        <path d="M5.32696368,5.30529749 L4.13844607,8.1651794 L2.94992846,5.30529749 L0.0671410636,4.12622337 L2.94992846,2.94714926 L4.13844607,0.0872673505 L5.32696368,2.94714926 L8.20975108,4.12622337 L5.32696368,5.30529749 Z" id="path-15"></path>
        <path d="M5.32696368,5.30529749 L4.13844607,8.1651794 L2.94992846,5.30529749 L0.0671410636,4.12622337 L2.94992846,2.94714926 L4.13844607,0.0872673505 L5.32696368,2.94714926 L8.20975108,4.12622337 L5.32696368,5.30529749 Z" id="path-17"></path>
    </defs>
    <g id="prototype-(manager)" stroke="none" stroke-width="1" fill="none" fill-rule="evenodd">
        <g id="receive_null" transform="translate(-780.000000, -310.000000)">
            <g id="telescope" transform="translate(817.500000, 365.000000) scale(-1, 1) translate(-817.500000, -365.000000) translate(734.000000, 310.000000)">
                <mask id="mask-2" fill="white">
                    <use xlink:href="#path-1"></use>
                </mask>
                <g id="Mask"></g>
                <g mask="url(#mask-2)" id="Group-4">
                    <g transform="translate(80.646667, 63.500000) scale(-1, 1) translate(-80.646667, -63.500000) translate(32.146667, 0.000000)">
                        <g transform="translate(16.848232, 0.000000)">
                            <g id="Rectangle-2">
                                <mask id="mask-4" fill="white">
                                    <use xlink:href="#path-3"></use>
                                </mask>
                                <use id="Mask" fill="#FFFFFF" xlink:href="#path-3"></use>
                                <rect fill="#E6E6E8" mask="url(#mask-4)" x="2.41209611" y="-0.134556554" width="3.40392922" height="5.04587076"></rect>
                            </g>
                        </g>
                        <g transform="translate(0.000000, 16.950063)">
                            <rect id="Rectangle" fill="#DADADD" x="48.6736402" y="41.5549931" width="1.62729527" height="28.1589756" rx="0.813647635"></rect>
                            <g id="Rectangle" transform="translate(47.859993, 63.972818)">
                                <mask id="mask-6" fill="white">
                                    <use xlink:href="#path-5"></use>
                                </mask>
                                <use id="Mask" fill="#E6E6E8" xlink:href="#path-5"></use>
                            </g>
                            <rect id="Rectangle" fill="#E6E6E8" transform="translate(35.498541, 83.635464) rotate(-315.000000) translate(-35.498541, -83.635464) " x="33.871246" y="63.1313559" width="3.25459054" height="41.0082169" rx="1.62729527"></rect>
                            <rect id="Rectangle" fill="#E6E6E8" transform="translate(63.162561, 83.635464) scale(-1, 1) rotate(-315.000000) translate(-63.162561, -83.635464) " x="61.5352656" y="63.1313559" width="3.25459054" height="41.0082169" rx="1.62729527"></rect>
                            <rect id="Rectangle-4" fill="#DADADD" x="44.8766179" y="55.4977868" width="8.67890811" height="5.46776225" rx="1.6"></rect>
                            <ellipse id="Oval-2" fill="#F5F5F7" cx="49.6228957" cy="44.6989564" rx="3.93263024" ry="3.96412763"></ellipse>
                            <g id="Group-3" transform="translate(49.298168, 29.000000) scale(-1, 1) translate(-49.298168, -29.000000) translate(5.798168, 0.000000)">
                                <rect id="Rectangle-5" fill="#F5F5F7" transform="translate(8.103529, 50.431463) rotate(-30.000000) translate(-8.103529, -50.431463) " x="1.09356552" y="48.206948" width="14.0199264" height="4.44903077" rx="1.6"></rect>
                                <g id="Oval-5" transform="translate(61.583484, 0.000000)">
                                    <mask id="mask-8" fill="white">
                                        <use xlink:href="#path-7"></use>
                                    </mask>
                                    <use id="Mask" fill="#E6E6E8" transform="translate(12.559472, 11.847110) rotate(-30.000000) translate(-12.559472, -11.847110) " xlink:href="#path-7"></use>
                                    <ellipse fill="#FBFBFC" mask="url(#mask-8)" transform="translate(14.180220, 14.804748) rotate(-30.000000) translate(-14.180220, -14.804748) " cx="14.18022" cy="14.804748" rx="8.5677328" ry="8.63635385"></ellipse>
                                </g>
                                <g id="Path-3" transform="translate(10.901651, 26.245259)">
                                    <mask id="mask-10" fill="white">
                                        <use xlink:href="#path-9"></use>
                                    </mask>
                                    <use id="Mask" fill="#DADADD" transform="translate(17.035724, 12.492316) rotate(-30.000000) translate(-17.035724, -12.492316) " xlink:href="#path-9"></use>
                                    <polygon fill="#E6E6E8" mask="url(#mask-10)" points="0.275981368 17.4419488 41.038222 4.23045067 30.4389723 12.4511819 3.73087078 26.4981598"></polygon>
                                </g>
                                <g id="Path-2" transform="translate(37.209591, 6.014538)">
                                    <mask id="mask-12" fill="white">
                                        <use xlink:href="#path-11"></use>
                                    </mask>
                                    <use id="Mask" fill="#DADADD" transform="translate(19.058213, 16.235452) rotate(-30.000000) translate(-19.058213, -16.235452) " xlink:href="#path-11"></use>
                                    <polygon fill="#E6E6E8" mask="url(#mask-12)" points="-0.8407113 17.8337937 42.5180748 12.0435976 17.3301768 36.5170729 3.46292034 32.0717337"></polygon>
                                </g>
                                <path d="M65.071545,5.41957802 C64.6968099,4.76428737 64.9156044,3.92846305 65.5662918,3.54918233 L69.740258,1.11620937 C70.3882342,0.73850901 71.2161337,0.961491387 71.5920406,1.61883105 L81.7702682,19.4172641 C82.1450033,20.0725547 81.9262089,20.9083791 81.2755214,21.2876598 L77.1015552,23.7206327 C76.453579,24.0983331 75.6256795,23.8753507 75.2497727,23.2180111 L65.071545,5.41957802" id="Rectangle-5" fill="#5BC0DE"></path>
                                <g id="Path-4" transform="translate(0.000000, 48.253002)">
                                    <mask id="mask-14" fill="white">
                                        <use xlink:href="#path-13"></use>
                                    </mask>
                                    <use id="Mask" fill="#5BC0DE" transform="translate(3.695911, 4.692255) rotate(-30.000000) translate(-3.695911, -4.692255) " xlink:href="#path-13"></use>
                                    <polygon mask="url(#mask-14)" points="6.91487686 2.80222815 -0.529920089 7.07497106 3.26167904 10.7162892 8.91605951 6.50882751"></polygon>
                                </g>
                            </g>
                        </g>
                        <g transform="translate(8.724569, 65.613147)">
                            <g id="Rectangle-2">
                                <mask id="mask-16" fill="white">
                                    <use xlink:href="#path-15"></use>
                                </mask>
                                <use id="Mask" fill="#FFFFFF" xlink:href="#path-15"></use>
                                <rect fill="#E6E6E8" mask="url(#mask-16)" x="4.0870053" y="-0.231032208" width="5.84451118" height="8.66370779"></rect>
                            </g>
                        </g>
                        <g transform="translate(77.775704, 32.806573)">
                            <g id="Rectangle-2">
                                <mask id="mask-18" fill="white">
                                    <use xlink:href="#path-17"></use>
                                </mask>
                                <use id="Mask" fill="#FFFFFF" xlink:href="#path-17"></use>
                                <rect fill="#E6E6E8" mask="url(#mask-18)" x="4.0870053" y="-0.231032208" width="5.84451118" height="8.66370779"></rect>
                            </g>
                        </g>
                    </g>
                </g>
            </g>
        </g>
    </g>
</svg>