<?xml version="1.0" standalone="no"?>
<!DOCTYPE svg PUBLIC "-//W3C//DTD SVG 1.1//EN" "http://www.w3.org/Graphics/SVG/1.1/DTD/svg11.dtd" >
<svg xmlns="http://www.w3.org/2000/svg">
<metadata></metadata>
<defs>
<font id="district_light_italicLtIt" horiz-adv-x="1089" >
<font-face units-per-em="2048" ascent="1638" descent="-410" />
<missing-glyph horiz-adv-x="579" />
<glyph unicode="&#xfb01;" horiz-adv-x="1171" d="M240 0l192 907h-168l25 121h168l37 170q28 131 111.5 197.5t201.5 66.5q109 0 145 -41l-26 -129q-41 54 -119 54q-66 0 -113.5 -36.5t-60.5 -109.5l-33 -172h578l-220 -1028h-143l193 907h-433l-192 -907h-143z" />
<glyph unicode="&#xfb02;" horiz-adv-x="1255" d="M240 0l192 907h-168l25 121h168l37 170q27 130 105 197t185 67q93 0 127 -41l-28 -129q-31 54 -97 54q-129 0 -155 -146l-31 -172h236l-27 -121h-236l-190 -907h-143zM805 0l305 1440h143l-303 -1440h-145z" />
<glyph horiz-adv-x="0" />
<glyph horiz-adv-x="682" />
<glyph unicode=" "  horiz-adv-x="579" />
<glyph unicode="&#x09;" horiz-adv-x="579" />
<glyph unicode="&#xa0;" horiz-adv-x="579" />
<glyph unicode="!" horiz-adv-x="489" d="M158 78q0 43 29.5 72.5t70.5 29.5q43 0 72.5 -29.5t29.5 -72.5q0 -42 -30 -71.5t-72 -29.5q-41 0 -70.5 30t-29.5 71zM268 367l43 321l160 752h145l-159 -752l-95 -321h-94z" />
<glyph unicode="&#x22;" horiz-adv-x="684" d="M334 838l74 598q3 25 33.5 36t68.5 11h2q82 0 82 -39q0 -6 -2 -10l-178 -596h-80zM690 838l76 598q3 25 32.5 36t67.5 11h2h2q82 0 82 -39q0 -2 -1 -5t-1 -5l-180 -596h-80z" />
<glyph unicode="#" horiz-adv-x="1464" d="M238 444l26 127h277l67 328h-276l28 127h277l88 414h137l-88 -414h303l88 414h140l-88 -414h288l-26 -127h-289l-70 -328h291l-29 -127h-288l-95 -444h-139l94 444h-303l-94 -444h-139l94 444h-274zM676 571h305l70 328h-306z" />
<glyph unicode="$" horiz-adv-x="1220" d="M166 287l127 82q29 -128 112 -187t230 -59q74 0 146 19t135.5 55t103 99t39.5 142q0 39 -18 71.5t-38 53.5t-73.5 46.5t-85 37.5t-111.5 41q-15 5 -22 8q-324 116 -324 344q0 96 39 172t105 123.5t148 73.5t175 31l20 96h138l-21 -100q121 -18 208 -80.5t136 -151.5 l-112 -80q-54 94 -134.5 141.5t-201.5 47.5q-68 0 -128 -13t-114.5 -41t-86.5 -80.5t-32 -123.5q0 -75 58.5 -130t189.5 -100q47 -17 68 -24.5t65.5 -25t67.5 -29.5t60.5 -33t57.5 -39t45.5 -44t38.5 -53t22 -60.5t9 -70.5q0 -102 -46 -186t-122.5 -138t-167.5 -86t-188 -40 l-22 -102h-138l23 100q-149 11 -249.5 85t-131.5 208z" />
<glyph unicode="%" horiz-adv-x="1900" d="M297 854q0 99 27.5 202.5t79 195t137 150t190.5 58.5q128 0 194 -86t66 -221q0 -77 -16.5 -159t-52.5 -163t-86 -144t-123 -102.5t-158 -39.5q-124 0 -191 86t-67 223zM426 856q0 -203 145 -203q58 0 108 35.5t83 90.5t57 122t34.5 129t10.5 113q0 98 -36.5 154.5 t-108.5 56.5q-59 0 -109 -36t-83 -92t-56.5 -124t-34 -131t-10.5 -115zM485 -20l1123 1503l125 -23l-1125 -1501zM1221 289q0 99 27.5 202t79 194.5t137 149.5t190.5 58q128 0 194 -86t66 -221q0 -99 -28 -202.5t-79.5 -195t-137.5 -150t-191 -58.5q-125 0 -191.5 85.5 t-66.5 223.5zM1350 289q0 -203 145 -203q58 0 107.5 35t82.5 89.5t57 121t35 130t11 116.5q0 96 -37 152t-109 56q-71 0 -129.5 -53t-92.5 -132.5t-52 -161.5t-18 -150z" />
<glyph unicode="&#x26;" horiz-adv-x="1288" d="M178 340q0 130 92.5 246t264.5 172l-78 114q-43 64 -43 156q0 61 20 121.5t63 118.5t103.5 102t149 71t192.5 27q58 0 109.5 -9t88.5 -21.5t72 -35t56 -39.5t45 -45.5t34 -43t27 -41.5l-123 -88q-55 102 -127.5 148t-199.5 46q-160 0 -262.5 -94.5t-102.5 -204.5 q0 -52 27 -92l438 -680q47 53 61 129h140q-28 -137 -127 -239l100 -158h-154l-47 70q-158 -95 -379 -95q-106 0 -191 30.5t-138.5 82t-82 116t-28.5 136.5zM332 360q0 -106 84.5 -181t228.5 -75q169 0 283 70q-141 213 -330 488q-130 -44 -198 -126.5t-68 -175.5z" />
<glyph unicode="'" horiz-adv-x="389" d="M334 838l74 598q3 25 33.5 36t68.5 11h2q82 0 82 -39q0 -6 -2 -10l-178 -596h-80z" />
<glyph unicode="(" horiz-adv-x="665" d="M217 436q0 356 186 673.5t494 514.5l25 -80q-264 -226 -415 -526t-151 -633q0 -173 48.5 -332.5t142.5 -285.5l-58 -60q-138 133 -205 325.5t-67 403.5z" />
<glyph unicode=")" horiz-adv-x="665" d="M16 -209q264 226 415 527t151 634q0 173 -48.5 332t-142.5 285l58 61q138 -133 205 -326t67 -405q0 -357 -185 -674t-495 -514z" />
<glyph unicode="*" horiz-adv-x="811" d="M319 1020l273 94l-225 90l59 101l192 -136l39 271h111l-74 -264l246 133l27 -101l-258 -96l213 -100l-66 -97l-184 142l-43 -273h-111l74 265l-248 -129z" />
<glyph unicode="+" horiz-adv-x="1277" d="M227 580l27 131h487l103 489h135l-102 -489h487l-27 -131h-489l-105 -490h-135l105 490h-486z" />
<glyph unicode="," horiz-adv-x="415" d="M4 -203l182 371h176l-247 -393z" />
<glyph unicode="-" horiz-adv-x="714" d="M238 637l30 141h510l-28 -141h-512z" />
<glyph unicode="." horiz-adv-x="366" d="M96 80q0 42 30 72t71 30q43 0 72.5 -29.5t29.5 -72.5q0 -41 -29.5 -70.5t-72.5 -29.5q-41 0 -71 29.5t-30 70.5z" />
<glyph unicode="/" horiz-adv-x="933" d="M20 -92l1049 1624h158l-1047 -1624h-160z" />
<glyph unicode="0" horiz-adv-x="1253" d="M225 465q0 127 27.5 262t87 267.5t141.5 236.5t201.5 168.5t257.5 64.5q103 0 180.5 -37.5t123.5 -105t68.5 -154t22.5 -192.5q0 -104 -20 -216.5t-58 -225t-99.5 -212.5t-138 -177.5t-179.5 -123t-219 -45.5q-100 0 -176.5 36t-124 102t-71.5 154.5t-24 197.5zM375 461 q0 -75 13 -135.5t43 -112t85 -80.5t133 -29q90 0 169.5 42.5t136.5 114t102 161t72 188t41 191t14 172.5q0 173 -69.5 268.5t-203.5 95.5q-90 0 -169 -43t-136 -115t-102.5 -162.5t-73 -189.5t-41.5 -192t-14 -174z" />
<glyph unicode="1" horiz-adv-x="755" d="M383 1130l23 107q261 10 321 203h133l-305 -1440h-152l246 1159q-18 -12 -100 -20.5t-146 -8.5h-2h-4h-4h-10z" />
<glyph unicode="2" horiz-adv-x="1179" d="M102 0q10 40 29 81t40 76t56 75.5t61.5 69t72 68t73 62.5t79.5 61.5t75.5 55.5t77 55t69.5 49q143 101 195 148q159 143 166 308v15q0 105 -68 160t-192 55q-118 0 -223 -73t-146 -154l-105 72q76 122 202.5 201t279.5 79q185 0 291 -89t106 -242q0 -59 -13.5 -115 t-35 -101.5t-57 -92t-68.5 -81t-82 -75t-86.5 -67.5t-91.5 -64q-224 -150 -326.5 -235t-154.5 -171h733l-29 -131h-928z" />
<glyph unicode="3" horiz-adv-x="1173" d="M145 297l131 70q10 -134 92.5 -197.5t213.5 -63.5q179 0 297 98t118 273q0 209 -305 209h-149l26 125h138q107 0 193 33.5t142 109t56 183.5q0 92 -64 147t-194 55q-113 0 -211 -67.5t-144 -159.5l-106 68q165 284 485 284q168 0 275.5 -76t107.5 -221 q0 -163 -91.5 -276.5t-248.5 -145.5q115 -12 178.5 -80t63.5 -178q0 -120 -49 -218.5t-131.5 -162t-188 -97.5t-221.5 -34q-177 0 -293 91q-101 83 -121 231z" />
<glyph unicode="4" horiz-adv-x="1257" d="M176 350l27 119l893 971h170l-54 -248l-151 -717h211l-27 -125h-211l-76 -350h-139l76 350h-719zM379 475h543l161 762z" />
<glyph unicode="5" horiz-adv-x="1183" d="M154 246l118 78q72 -220 312 -220q133 0 240 65.5t166 175t59 239.5q0 117 -69.5 181t-201.5 64q-211 0 -354 -184l-125 37l227 758h793l-29 -137h-665l-162 -480q141 133 348 133q185 0 286 -97t101 -263q0 -132 -47.5 -247.5t-130.5 -197.5t-200 -129t-251 -47 q-152 0 -269 70t-146 201z" />
<glyph unicode="6" horiz-adv-x="1222" d="M209 416q0 111 25.5 230t72 235.5t118 220.5t158.5 183.5t199.5 126t233.5 46.5q80 0 152.5 -23t109.5 -55l-78 -106q-85 55 -188 55h-6q-104 1 -197.5 -42t-167 -120t-129 -177t-92.5 -218q152 156 416 156q184 0 292.5 -100.5t108.5 -266.5q0 -167 -78 -300.5 t-214 -207t-304 -73.5q-116 0 -201.5 34.5t-134.5 96.5t-72.5 138t-23.5 167zM348 395q0 -55 16 -104t49 -92t93 -68t139 -25q188 0 314 128t126 315q0 121 -75.5 186.5t-210.5 65.5q-119 0 -221 -49.5t-166 -143.5t-64 -213z" />
<glyph unicode="7" horiz-adv-x="1134" d="M358 1303l31 137h928l-29 -135q-303 -311 -485.5 -621t-284.5 -684h-153q88 339 290.5 682t472.5 621h-770z" />
<glyph unicode="8" horiz-adv-x="1241" d="M178 319q0 170 98.5 284t268.5 175q-75 33 -118.5 98.5t-43.5 149.5q0 85 31.5 157.5t85 123.5t124 87t148 53t156.5 17q192 0 296.5 -84t104.5 -221q0 -138 -83.5 -245.5t-217.5 -149.5q94 -33 149.5 -108t55.5 -181q0 -96 -35 -179t-95 -141t-139 -99.5t-167 -61 t-179 -19.5q-216 0 -328 95t-112 249zM328 340q0 -108 81.5 -171t235.5 -63q82 0 159.5 23t141 66t101.5 112.5t38 155.5q0 112 -87 173.5t-230 61.5q-81 0 -158.5 -23.5t-141 -67.5t-102 -113.5t-38.5 -153.5zM528 1032q0 -91 72.5 -148t200.5 -57q95 0 180 35t142 108 t57 169q0 52 -22 91t-61 62t-86.5 34t-103.5 11q-70 0 -136.5 -19.5t-121 -56.5t-88 -96.5t-33.5 -132.5z" />
<glyph unicode="9" horiz-adv-x="1222" d="M264 57l80 105q85 -54 188 -56h7q137 0 255 76.5t198 200t130 283.5q-149 -156 -413 -156q-184 0 -293 99.5t-109 267.5q0 167 78 300.5t214 207t304 73.5q93 0 167 -23t122.5 -63t80.5 -96t46 -119t14 -135q0 -111 -25.5 -230.5t-72 -236t-118 -220.5t-158.5 -183 t-199 -125.5t-234 -46.5q-80 0 -152.5 22.5t-109.5 54.5zM457 889q0 -120 76.5 -186t211.5 -66q117 0 219.5 49t167 142.5t64.5 211.5q0 44 -9.5 84.5t-32 78.5t-56 66t-85 45t-114.5 17q-188 0 -315 -127.5t-127 -314.5z" />
<glyph unicode=":" horiz-adv-x="407" d="M117 80q0 43 29.5 72.5t72.5 29.5q41 0 70.5 -29.5t29.5 -72.5q0 -41 -29.5 -70.5t-70.5 -29.5q-43 0 -72.5 29.5t-29.5 70.5zM297 924q0 43 29.5 72.5t72.5 29.5q41 0 71 -30t30 -72q0 -41 -30 -71t-71 -30q-43 0 -72.5 29.5t-29.5 71.5z" />
<glyph unicode=";" horiz-adv-x="438" d="M4 -203l180 371h176l-247 -393zM287 924q0 43 29.5 72.5t72.5 29.5q41 0 70.5 -29.5t29.5 -72.5q0 -41 -29.5 -71t-70.5 -30q-43 0 -72.5 29.5t-29.5 71.5z" />
<glyph unicode="&#x3c;" horiz-adv-x="1112" d="M219 643l29 143l1071 580l-39 -176l-918 -488l711 -493l-33 -150z" />
<glyph unicode="=" horiz-adv-x="1314" d="M184 381l27 131h1110l-27 -131h-1110zM270 784l27 134h1110l-29 -134h-1108z" />
<glyph unicode="&#x3e;" horiz-adv-x="1112" d="M94 59l39 179l918 485l-711 496l33 147l821 -582l-29 -145z" />
<glyph unicode="?" horiz-adv-x="1050" d="M334 1182q58 90 125 150.5t159 95t205 34.5q172 0 278.5 -83.5t106.5 -221.5q0 -48 -11 -92.5t-26.5 -80t-44.5 -71.5t-54.5 -62t-66.5 -57.5t-69.5 -51.5t-75.5 -50q-45 -30 -72.5 -49t-51 -43.5t-34.5 -40.5t-23.5 -50t-19 -60.5t-18.5 -83.5h-141q15 70 25 109t26 82 t33 67t48 56t67 58t94 64q51 33 78.5 52t70.5 55.5t65.5 67.5t40 76t17.5 93q0 84 -65.5 139t-186.5 55q-125 0 -208.5 -47.5t-170.5 -177.5zM430 78q0 43 29.5 72.5t72.5 29.5q42 0 71.5 -30t29.5 -72q0 -41 -30 -71t-71 -30q-42 0 -72 29.5t-30 71.5z" />
<glyph unicode="@" horiz-adv-x="1759" d="M252 598q0 173 63.5 330.5t174 274t267.5 185t335 68.5q152 0 279.5 -50.5t213.5 -138.5t134 -207.5t48 -256.5q0 -249 -112.5 -411.5t-272.5 -162.5q-156 0 -192 146q-106 -125 -281 -125q-103 0 -178.5 85t-75.5 228q0 93 37 191t97 177t144 130t171 51q96 0 155 -36.5 t95 -112.5l41 110h131q0 -14 -191 -616q-8 -27 -8 -56q0 -77 82 -77q61 0 112.5 53t82.5 130.5t48 156t17 139.5q0 251 -160 406t-422 155q-153 0 -289.5 -59t-234.5 -160.5t-155.5 -244t-57.5 -302.5q0 -150 52 -273t142 -203t210.5 -123.5t257.5 -43.5q256 0 487 180 l45 -78q-245 -194 -530 -194q-119 0 -230.5 30.5t-208 92t-169 148t-113.5 206t-41 258.5zM805 590q0 -99 41 -158t121 -59q79 0 166.5 76t121.5 182q33 103 33 182q0 84 -42 128t-122 44q-76 0 -151.5 -62t-121.5 -154t-46 -179z" />
<glyph unicode="A" horiz-adv-x="1347" d="M61 0l850 1440h146l233 -1440h-149l-60 399h-618l-230 -399h-172zM535 528h528l-109 736z" />
<glyph unicode="B" horiz-adv-x="1302" d="M143 0l306 1440h565q162 0 262 -73t100 -212q0 -146 -80 -241t-227 -134q99 -23 162 -99.5t63 -191.5q0 -86 -20 -156.5t-54 -120.5t-85 -88t-107.5 -61.5t-127 -37.5t-138 -19.5t-146.5 -5.5h-473zM324 135h362q453 0 453 348q0 61 -26 105.5t-72 69.5t-101.5 37 t-120.5 12h-375zM473 838h361q76 0 142 16t122 50t88.5 93.5t32.5 139.5q0 168 -256 168h-392z" />
<glyph unicode="C" horiz-adv-x="1331" d="M231 522q0 134 34.5 268.5t103 256t162.5 216t222.5 150t272.5 55.5q188 0 300.5 -101t146.5 -271l-136 -49q-56 290 -342 290q-110 0 -209 -53t-169.5 -139.5t-123 -194t-78.5 -219t-26 -213.5q0 -89 20 -162.5t60.5 -130.5t108 -89t155.5 -32q115 0 220.5 61t181.5 161 l112 -84q-106 -131 -235.5 -201t-306.5 -70q-122 0 -215 45t-148.5 123t-83 174.5t-27.5 208.5z" />
<glyph unicode="D" horiz-adv-x="1333" d="M143 0l306 1442l419 -2q267 0 405 -125.5t138 -368.5q0 -200 -56 -371t-161.5 -299.5t-271.5 -202t-373 -73.5h-406zM326 135h241q140 1 255 43.5t195 117t134.5 176.5t80 220t25.5 250q0 185 -102 274t-315 89h-265z" />
<glyph unicode="E" horiz-adv-x="1150" d="M143 0l306 1440h905l-29 -137h-754l-102 -482h567l-28 -137h-568l-116 -549h794l-28 -135h-947z" />
<glyph unicode="F" horiz-adv-x="1077" d="M143 0l306 1440h894l-28 -133h-744l-102 -484h557l-29 -131h-557l-147 -692h-150z" />
<glyph unicode="G" horiz-adv-x="1413" d="M231 524q0 111 25.5 224t72.5 218t118 196.5t157 159.5t195 107t227 39q104 0 186.5 -33t134 -89t82.5 -117.5t46 -130.5l-140 -49q-11 43 -23.5 76.5t-38 75.5t-58.5 69.5t-86.5 47t-120.5 19.5q-112 0 -213 -50.5t-174 -133.5t-127 -188t-80.5 -216.5t-26.5 -216.5 q0 -87 19 -162t58 -136.5t107 -96.5t158 -35q117 0 231.5 63.5t202.5 177t125 253.5h-416l29 137h563l-22 -108q-25 -120 -86.5 -234t-152 -209t-217 -153t-267.5 -58q-122 0 -217 44t-153 121t-88 175.5t-30 212.5z" />
<glyph unicode="H" horiz-adv-x="1382" d="M143 0l306 1440h151l-133 -631h793l135 631h151l-307 -1440h-152l146 676h-795l-145 -676h-150z" />
<glyph unicode="I" horiz-adv-x="434" d="M143 0l306 1440h151l-305 -1440h-152z" />
<glyph unicode="J" horiz-adv-x="1062" d="M106 326v34l144 39q-2 -16 -2 -49q0 -126 55 -189t189 -63q278 0 364 404l199 938h153l-192 -910q-22 -102 -48 -178t-69.5 -150.5t-100 -122t-141 -77t-192.5 -29.5q-185 0 -272 84.5t-87 268.5z" />
<glyph unicode="K" horiz-adv-x="1294" d="M143 0l306 1440h151l-160 -756l844 756h205l-647 -572l362 -868h-160l-317 768l-332 -293l-100 -475h-152z" />
<glyph unicode="L" d="M143 0l308 1440h153l-276 -1305h749l-28 -135h-906z" />
<glyph unicode="M" horiz-adv-x="1550" d="M143 0l306 1440h161l228 -1161l708 1161h170l-307 -1440h-152l238 1114l-684 -1114h-47l-229 1128l-240 -1128h-152z" />
<glyph unicode="N" horiz-adv-x="1372" d="M143 0l306 1440h151l522 -1225l260 1225h152l-307 -1440h-152l-520 1221l-260 -1221h-152z" />
<glyph unicode="O" horiz-adv-x="1421" d="M231 504q0 134 33 270t100.5 260.5t160 221.5t221.5 154.5t276 57.5q122 0 215 -40.5t149 -112.5t83.5 -165t27.5 -204q0 -133 -33 -269.5t-100.5 -263t-159.5 -225.5t-220 -158t-273 -59q-123 0 -217 42t-150.5 116t-84.5 168.5t-28 206.5zM387 514q0 -88 19 -160.5 t58.5 -129.5t105.5 -88.5t153 -31.5q112 0 212.5 52.5t172.5 139t125.5 194.5t79.5 221t26 217q0 118 -32.5 207.5t-109.5 145.5t-193 56q-115 0 -216.5 -52.5t-173 -138t-124 -193.5t-78 -221t-25.5 -218z" />
<glyph unicode="P" horiz-adv-x="1224" d="M143 0l306 1440h530q225 0 332.5 -82t107.5 -228q0 -131 -48 -232.5t-133 -164t-195 -94t-240 -31.5h-383l-129 -608h-148zM449 739h372q91 0 169.5 22.5t141 67.5t98.5 119t36 170q0 42 -12 74.5t-36 52.5t-52.5 33.5t-70.5 20t-79.5 8.5t-89.5 2h-357z" />
<glyph unicode="Q" horiz-adv-x="1421" d="M231 508q0 112 23.5 225.5t68 220.5t113 200.5t153.5 163.5t196.5 110t234.5 40q98 0 178.5 -27.5t135.5 -76t92.5 -116t55 -145.5t17.5 -167q0 -168 -54.5 -337.5t-163 -316t-251.5 -227.5l66 -131l-133 -65l-68 139q-89 -27 -190 -27q-122 0 -215 42.5t-148.5 117.5 t-83 170t-27.5 207zM389 518q0 -88 19.5 -161.5t59 -131t106 -89.5t153.5 -32q55 0 109 13l-70 137l133 65l74 -147q111 68 196.5 197.5t127.5 274t42 280.5q0 119 -33.5 209.5t-111 147t-193.5 56.5q-96 0 -182.5 -36.5t-152 -99.5t-119 -144.5t-88 -173.5t-52.5 -185 t-18 -180z" />
<glyph unicode="R" horiz-adv-x="1243" d="M143 0l306 1440h516q232 0 343 -85t111 -235q0 -216 -133 -340.5t-358 -148.5l260 -631h-164l-252 625h-348l-133 -625h-148zM453 756h378q92 0 169 20.5t138 62.5t95.5 114t34.5 167q0 47 -17.5 81.5t-46 55t-74.5 32.5t-93 16t-111 4h-357z" />
<glyph unicode="S" horiz-adv-x="1153" d="M162 281l121 86q28 -137 104.5 -202t220.5 -65q165 0 278.5 78t131.5 189q2 12 2 36q0 86 -78.5 159.5t-269.5 146.5q-322 126 -322 358q0 31 6 68q30 164 164.5 249.5t341.5 85.5q146 0 261 -65t180 -174l-113 -82q-56 96 -134.5 144t-203.5 48q-147 0 -242.5 -61.5 t-113.5 -161.5q-4 -32 -4 -45q0 -79 62 -136.5t212 -119.5q213 -89 302 -185.5t89 -217.5q0 -45 -8 -84q-30 -160 -180 -259.5t-373 -99.5q-165 0 -282.5 79t-151.5 231z" />
<glyph unicode="T" horiz-adv-x="1107" d="M317 1305l29 135h1028l-28 -135h-439l-276 -1305h-152l279 1305h-441z" />
<glyph unicode="U" horiz-adv-x="1288" d="M217 358q0 135 41 320l162 762h153l-182 -854q-29 -141 -29 -217q0 -127 67.5 -195t227.5 -68q90 0 164 23.5t125.5 64t91.5 100t65 125t42 146.5l184 875h152l-160 -754q-20 -92 -39.5 -164t-50 -149t-65.5 -134t-86 -110t-112.5 -86t-143 -52.5t-179.5 -19.5 q-121 0 -206.5 28t-133 81.5t-68 121t-20.5 156.5z" />
<glyph unicode="V" horiz-adv-x="1296" d="M367 1440h151l189 -1264l720 1264h170l-849 -1440h-148z" />
<glyph unicode="W" horiz-adv-x="1757" d="M367 1440h149l21 -1227l581 1227h129l68 -1227l536 1227h164l-659 -1440h-148l-69 1196l-572 -1196h-151z" />
<glyph unicode="X" horiz-adv-x="1292" d="M61 0l670 774l-287 666h162l232 -566l477 566h188l-596 -688l330 -752h-160l-274 653l-557 -653h-185z" />
<glyph unicode="Y" horiz-adv-x="1251" d="M336 1440h160l268 -725l586 725h186l-717 -865l-123 -575h-149l123 575z" />
<glyph unicode="Z" horiz-adv-x="1191" d="M72 0l24 115l1108 1188h-809l29 137h1003l-26 -123l-1102 -1186h844l-29 -131h-1042z" />
<glyph unicode="[" horiz-adv-x="598" d="M88 -260l393 1847h373l-25 -117h-235l-344 -1613h235l-24 -117h-373z" />
<glyph unicode="\" horiz-adv-x="913" d="M356 1532h138l352 -1624h-137z" />
<glyph unicode="]" horiz-adv-x="598" d="M27 -260l24 117h236l344 1613h-236l25 117h373l-394 -1847h-372z" />
<glyph unicode="^" horiz-adv-x="1187" d="M303 750l541 690h110l240 -690h-154l-170 505l-387 -505h-180z" />
<glyph unicode="_" horiz-adv-x="1024" d="M-72 -285l25 117h1044l-24 -117h-1045z" />
<glyph unicode="`" horiz-adv-x="729" d="M459 1487h211l155 -307h-102z" />
<glyph unicode="a" d="M154 223q0 173 152 295.5t386 122.5q96 0 207 -27l29 144q4 24 4 33q0 63 -53.5 101t-133.5 38q-178 0 -305 -166l-96 80q73 101 187 154t233 53q132 0 221.5 -65t89.5 -181q0 -29 -6 -64l-127 -596q-2 -10 -2 -24q0 -15 7.5 -22t29.5 -7h31l-17 -92h-127q-76 0 -76 70 q0 14 15 77q-64 -77 -165 -124.5t-200 -47.5q-122 0 -203 63.5t-81 184.5zM293 244q0 -68 49 -106t123 -38q92 0 195.5 59t177.5 169l36 166q-15 12 -36 16q-70 12 -136 12q-172 0 -290.5 -78.5t-118.5 -199.5z" />
<glyph unicode="b" horiz-adv-x="1087" d="M143 0l303 1440h144l-117 -555q145 164 342 164q144 0 224.5 -101t80.5 -274q0 -117 -34 -236.5t-97 -224t-166.5 -170.5t-228.5 -66q-187 0 -279 164l-28 -141h-144zM350 305q26 -102 93 -152.5t151 -50.5q94 0 169 57t118 145.5t65.5 184.5t22.5 185q0 121 -53 185.5 t-154 64.5q-110 0 -199 -80.5t-141 -200.5z" />
<glyph unicode="c" horiz-adv-x="1005" d="M193 356q0 102 24.5 201t74 188t117.5 157t162.5 107.5t202.5 39.5q58 0 107.5 -13t82 -31.5t61 -47.5t43.5 -50.5t32 -50.5l-113 -68q-69 136 -221 136q-98 0 -180.5 -54t-134 -138.5t-79.5 -182.5t-28 -191q0 -54 11 -98t36 -81t70.5 -58t109.5 -21q158 0 289 140 l107 -74q-169 -189 -410 -189q-94 0 -165.5 30.5t-114 83.5t-63.5 120t-21 145z" />
<glyph unicode="d" horiz-adv-x="1087" d="M190 352q0 92 21 188t65 187.5t105 163t148.5 115t187.5 43.5q194 0 276 -160l119 551h143l-307 -1440h-143l29 135q-71 -77 -158.5 -117.5t-177.5 -40.5q-144 0 -226 101t-82 274zM344 354q0 -122 53 -186t154 -64q106 0 192 74.5t140 190.5l78 360q-28 99 -93.5 147 t-148.5 48q-94 0 -169 -57t-118 -145.5t-65.5 -183.5t-22.5 -184z" />
<glyph unicode="e" horiz-adv-x="1077" d="M195 371q0 99 23 195.5t70 184t112.5 154t157 105.5t196.5 39q170 0 265 -103.5t95 -267.5q0 -113 -31 -195h-729q-12 -65 -12 -129q0 -55 11.5 -98.5t37 -79t70 -55t106.5 -19.5q176 0 346 156l91 -86q-173 -195 -453 -195q-95 0 -165.5 32t-111 88t-60 124.5 t-19.5 149.5zM369 600h581q6 40 6 78q0 113 -52.5 179.5t-168.5 66.5t-217 -86t-149 -238z" />
<glyph unicode="f" horiz-adv-x="688" d="M240 0l192 907h-168l25 121h168l37 170q27 130 105 197t185 67q93 0 127 -41l-28 -129q-31 54 -97 54q-129 0 -155 -146l-31 -172h236l-27 -121h-236l-190 -907h-143z" />
<glyph unicode="g" horiz-adv-x="1107" d="M96 -250l115 74q46 -70 109 -104.5t133 -34.5q129 0 241 103t146 271l16 78q-144 -160 -342 -160q-145 0 -227 100.5t-82 272.5q0 118 35 238.5t99 224.5t168.5 170t229.5 66q187 0 279 -156l26 129h144l-205 -981q-24 -113 -80 -206.5t-130 -153.5t-159 -92.5 t-170 -32.5q-106 0 -196 48.5t-150 145.5zM354 352q0 -122 54 -186t157 -64q110 0 200.5 79.5t141.5 197.5l74 348q-28 98 -94.5 146.5t-149.5 48.5q-77 0 -142.5 -38t-108.5 -98t-74 -136.5t-44.5 -152t-13.5 -145.5z" />
<glyph unicode="h" horiz-adv-x="1067" d="M143 0l306 1440h145l-117 -549q127 158 320 158q148 0 218 -76.5t70 -214.5q0 -70 -18 -156l-127 -602h-145l129 618q16 75 16 130q0 86 -41 130t-133 44q-130 0 -230 -109.5t-137 -286.5l-110 -526h-146z" />
<glyph unicode="i" horiz-adv-x="473" d="M168 0l219 1026h145l-219 -1026h-145zM438 1368q0 38 28 66t66 28t66.5 -28t28.5 -66q0 -39 -28 -66.5t-67 -27.5t-66.5 27.5t-27.5 66.5z" />
<glyph unicode="j" horiz-adv-x="460" d="M-166 -397l41 110q32 -32 84 -32q126 0 154 145l252 1200h143l-256 -1198q-24 -119 -101 -191.5t-198 -72.5q-83 0 -119 39zM387 1368q0 39 27.5 66.5t66.5 27.5q38 0 65 -28t27 -66q0 -40 -27 -67t-65 -27q-40 0 -67 27t-27 67z" />
<glyph unicode="k" horiz-adv-x="1013" d="M143 0l306 1440h145l-199 -928l559 516h185l-437 -399l250 -629h-149l-209 528l-242 -219l-65 -309h-144z" />
<glyph unicode="l" horiz-adv-x="428" d="M143 0l303 1440h144l-303 -1440h-144z" />
<glyph unicode="m" horiz-adv-x="1622" d="M143 0l219 1024h144l-29 -133q69 86 152 121t159 35q102 0 168.5 -53t69.5 -154q77 107 155 157t193 50q141 0 199.5 -69t58.5 -190q0 -88 -28 -221l-121 -567h-146l125 580q3 15 10.5 49t10.5 53q10 55 10 96q0 68 -34 106t-118 38q-74 0 -135.5 -37.5t-102 -100 t-67 -129t-41.5 -139.5l-110 -516h-144l125 586q27 128 27 182q0 154 -150 154q-84 0 -157.5 -60.5t-120 -152t-68.5 -199.5l-108 -510h-146z" />
<glyph unicode="n" horiz-adv-x="1077" d="M143 0l217 1026h146l-29 -135q128 156 320 156q148 0 218 -76t70 -213q0 -74 -18 -156l-127 -602h-145l129 616q16 78 16 132q0 86 -41 130t-133 44q-130 0 -230 -110.5t-137 -287.5l-110 -524h-146z" />
<glyph unicode="o" horiz-adv-x="1114" d="M193 360q0 127 39.5 250t110 222t180.5 160t239 61q175 0 276 -107.5t101 -281.5q0 -124 -38.5 -244.5t-108.5 -220t-181 -161t-244 -61.5q-171 0 -272.5 104t-101.5 279zM342 365q0 -128 61.5 -193.5t169.5 -65.5q101 0 183 52.5t131 135.5t75.5 179t26.5 191 q0 55 -11 100.5t-36.5 84.5t-72 61t-111.5 22q-79 0 -148 -35.5t-117 -94t-83 -132.5t-51.5 -152t-16.5 -153z" />
<glyph unicode="p" horiz-adv-x="1087" d="M55 -408l307 1434h144l-29 -137q71 78 158 119t178 41q144 0 224.5 -101t80.5 -274q0 -117 -34 -236.5t-97 -224t-166.5 -170.5t-228.5 -66q-190 0 -277 160l-114 -545h-146zM350 297q28 -98 93.5 -146.5t146.5 -48.5q64 0 120 26.5t96 72t72 103t51 122t28.5 126.5 t9.5 120q0 122 -53 186t-154 64q-106 0 -193.5 -75.5t-138.5 -189.5z" />
<glyph unicode="q" horiz-adv-x="1087" d="M190 350q0 93 20.5 189t64.5 188t105 163.5t148.5 115t188.5 43.5q186 0 278 -164l29 141h143l-305 -1436h-141l117 551q-145 -164 -342 -164q-144 0 -225 100.5t-81 272.5zM342 352q0 -120 53.5 -185t153.5 -65q110 0 199 80.5t141 200.5l72 338q-26 101 -92.5 152 t-149.5 51q-76 0 -140.5 -38t-107.5 -98.5t-72.5 -137t-43 -152.5t-13.5 -146z" />
<glyph unicode="r" horiz-adv-x="753" d="M143 0l217 1026h146l-31 -143q63 77 146 120.5t176 43.5q63 0 125 -19l-80 -117q-42 11 -76 11q-130 0 -230 -110.5t-137 -287.5l-110 -524h-146z" />
<glyph unicode="s" horiz-adv-x="897" d="M141 178l115 74q31 -80 83.5 -115t141.5 -35q48 0 92.5 10.5t83.5 32t62.5 60.5t23.5 90q0 55 -53 99t-198 95q-116 43 -172 110.5t-56 150.5q0 75 32.5 134.5t87.5 95t121 53.5t138 18q225 0 338 -172l-115 -72q-41 63 -97 92t-138 29q-54 0 -105 -16t-91 -56t-40 -98 q0 -52 44.5 -88.5t150.5 -75.5q151 -56 220 -128t69 -167q0 -82 -35.5 -145.5t-95 -101t-130.5 -56.5t-149 -19q-250 0 -328 201z" />
<glyph unicode="t" horiz-adv-x="729" d="M285 907l24 121h168l88 412h142l-86 -412h237l-24 -121h-240l-143 -680q-9 -40 -9 -65q0 -31 14 -43.5t48 -12.5q70 0 168 50l-35 -133q-79 -43 -186 -43q-150 0 -150 159q0 58 14 127l138 641h-168z" />
<glyph unicode="u" horiz-adv-x="1056" d="M195 268q0 74 18 156l127 602h145l-129 -616q-16 -78 -16 -131q0 -87 41 -131t133 -44q130 0 230 110.5t137 287.5l112 524h144l-217 -1026h-146l29 135q-127 -155 -320 -155q-148 0 -218 75.5t-70 212.5z" />
<glyph unicode="v" horiz-adv-x="983" d="M279 1026h143l104 -825l461 825h160l-596 -1026h-127z" />
<glyph unicode="w" horiz-adv-x="1435" d="M279 1026h137l53 -819l405 819h123l58 -817l393 817h151l-516 -1026h-131l-55 821l-401 -821h-131z" />
<glyph unicode="x" horiz-adv-x="964" d="M61 0l467 547l-204 479h137l160 -373l319 373h164l-428 -502l223 -524h-137l-178 416l-357 -416h-166z" />
<glyph unicode="y" horiz-adv-x="1007" d="M80 -410l47 119q46 -16 74 -16q68 0 110 71l140 238l-142 1024h137l109 -864l494 864h163l-788 -1331q-37 -63 -100.5 -96t-133.5 -33q-58 0 -110 24z" />
<glyph unicode="z" horiz-adv-x="837" d="M51 0l21 94l710 813h-493l26 119h684l-18 -96l-709 -807h543l-24 -123h-740z" />
<glyph unicode="{" horiz-adv-x="749" d="M279 633l22 106q91 36 138.5 93t66.5 147l43 197q23 107 55 179t85 124.5t130 78.5t187 31l-21 -98q-141 -27 -204 -96.5t-95 -218.5l-45 -213q-28 -125 -69.5 -186.5t-133.5 -92.5q94 -55 94 -190q0 -51 -10 -99l-53 -248q-18 -79 -18 -139q0 -77 41.5 -119t140.5 -55 l-23 -100q-161 10 -231 68t-70 180q0 64 23 168l49 233q10 48 10 84q0 123 -112 166z" />
<glyph unicode="|" horiz-adv-x="364" d="M0 -444l432 2031h137l-432 -2031h-137z" />
<glyph unicode="}" horiz-adv-x="749" d="M25 -262l22 100q140 27 202.5 96.5t94.5 217.5l51 235q12 53 22 88.5t27 74.5t37 63t50.5 44t70.5 29q-94 57 -94 178q0 36 18 133l37 183q17 90 17 139q0 78 -41 119.5t-140 56.5l21 98q162 -10 231.5 -67.5t69.5 -179.5q0 -58 -21 -168l-41 -191q-8 -41 -8 -82 q0 -66 24 -109.5t87 -60.5l-23 -104q-88 -26 -135 -86t-69 -154l-52 -239q-24 -108 -56 -179t-84.5 -124t-129.5 -79t-188 -32z" />
<glyph unicode="~" horiz-adv-x="1234" d="M274 616q142 211 324 211q45 0 98.5 -22.5t94.5 -50t90 -50t86 -22.5q58 0 105 35.5t104 109.5q17 -18 37 -37t49 -51q-154 -207 -328 -207q-43 0 -94 23t-91 50t-90 50t-92 23q-55 0 -93 -30t-109 -118z" />
<glyph unicode="&#xa1;" horiz-adv-x="784" d="M256 -410l160 752l96 322h94l-43 -322l-160 -752h-147zM514 952q0 41 29.5 71t70.5 30t71 -30t30 -71q0 -42 -29.5 -72t-71.5 -30q-41 0 -70.5 29.5t-29.5 72.5z" />
<glyph unicode="&#xa2;" horiz-adv-x="1177" d="M317 530q0 116 36 228.5t101.5 204.5t165.5 154t218 75l51 248h135l-51 -246q92 -11 149.5 -55.5t108.5 -126.5l-111 -68q-61 133 -229 133q-98 0 -181 -53t-134.5 -136t-80 -179.5t-28.5 -188.5q0 -124 56 -198t179 -74q8 0 21.5 1t51.5 8t72.5 20t74 41.5t65.5 66.5 l103 -68q-36 -65 -130 -121t-215 -67l-51 -240h-133l49 240q-99 13 -167 74.5t-97 144.5t-29 182z" />
<glyph unicode="&#xa3;" horiz-adv-x="1505" d="M317 0l234 1090q35 169 170 270.5t326 101.5q129 0 218 -36t142 -123l-129 -68q-35 55 -91.5 76.5t-148.5 21.5q-280 0 -336 -254l-34 -168h452l-28 -139h-455l-135 -637h432q106 0 185 62t79 163q0 46 -23 88.5t-67 67.5l100 111q65 -43 103.5 -113.5t38.5 -146.5 q0 -113 -62.5 -198.5t-158.5 -127t-207 -41.5h-605z" />
<glyph unicode="&#xa4;" horiz-adv-x="1626" d="M256 508l41 131h174q8 51 14 80q7 35 15 59h-187l41 133h189q97 251 284.5 404t427.5 153q188 0 300.5 -101t146.5 -271l-135 -49q-56 290 -342 290q-166 0 -304 -119.5t-219 -306.5h517l-45 -133h-517q-10 -34 -16 -63q-6 -23 -14 -76h534l-45 -131h-498 q2 -87 22.5 -158.5t61 -127.5t107.5 -87t154 -31q115 0 220 61t181 161l113 -84q-108 -132 -237 -201.5t-306 -69.5q-121 0 -213.5 40.5t-148.5 114t-84 169.5t-27 213h-205z" />
<glyph unicode="&#xa5;" horiz-adv-x="1290" d="M334 326l22 104h324l31 145l-23 54h-291l23 104h229l-272 707h160l268 -725l586 725h186l-586 -707h240l-23 -104h-303l-45 -54l-31 -145h336l-22 -104h-336l-70 -326h-149l69 326h-323z" />
<glyph unicode="&#xa6;" horiz-adv-x="555" d="M0 0l119 561h141l-121 -561h-139zM186 877l119 563h141l-120 -563h-140z" />
<glyph unicode="&#xa7;" horiz-adv-x="1486" d="M317 -78l109 105q132 -142 319 -142q65 0 125 21t104 69.5t44 114.5q0 58 -48.5 97.5t-140.5 76.5q-23 10 -67.5 27.5t-72 28.5t-67.5 30t-65.5 35t-54.5 40t-45.5 49t-27.5 58t-11 70q0 143 90.5 252.5t234.5 153.5q-96 79 -96 180q0 102 59.5 181.5t152 120t198.5 40.5 q112 0 212 -43.5t173 -118.5l-115 -104q-123 131 -285 131q-90 0 -161.5 -50.5t-71.5 -136.5q0 -59 49 -96.5t146 -75.5l52 -19.5t54.5 -21t52 -21.5t52.5 -24.5t47 -27.5t44 -32t35 -36.5t28.5 -43.5t16.5 -50t7 -58q0 -140 -88 -244.5t-228 -158.5q97 -74 97 -182 q0 -109 -60.5 -194.5t-159 -130t-213.5 -44.5q-131 0 -243 49t-181 125zM567 627q0 -37 27 -70t77 -61t91.5 -46t101.5 -40t76 -29q2 -1 19.5 -8t19.5 -8q47 21 91 51.5t84 69.5t64.5 89t24.5 101q0 111 -244 207q-35 14 -94.5 34t-60.5 21q-51 -21 -97 -49.5t-88 -67 t-67 -89t-25 -105.5z" />
<glyph unicode="&#xa8;" horiz-adv-x="720" d="M436 1384q0 35 24.5 59.5t59.5 24.5q34 0 59 -24.5t25 -59.5q0 -34 -25 -59t-59 -25q-35 0 -59.5 25t-24.5 59zM784 1384q0 35 24.5 59.5t59.5 24.5q34 0 59 -24.5t25 -59.5q0 -34 -25 -59t-59 -25q-35 0 -59.5 25t-24.5 59z" />
<glyph unicode="&#xa9;" horiz-adv-x="1714" d="M268 719q0 157 57 294t155.5 233.5t234.5 152t289 55.5t288 -55t233 -151.5t155 -233.5t57 -295q0 -206 -95 -373.5t-263.5 -263.5t-377.5 -96q-149 0 -283 54t-233.5 148.5t-158 232.5t-58.5 298zM350 719q0 -183 85.5 -332.5t235.5 -235t333 -85.5q177 0 324.5 81.5 t236 232t88.5 339.5l2 -2q0 183 -84 333.5t-233.5 237t-333.5 86.5q-181 0 -330.5 -84.5t-236.5 -235t-87 -335.5zM602 719q0 192 116 322t294 130q198 0 327 -163l-86 -74q-48 60 -103 94.5t-136 34.5q-127 0 -212 -96t-85 -242q0 -152 86 -249t209 -97q141 0 248 133 l81 -74l2 2q-21 -25 -32.5 -38t-36.5 -35t-51 -37q-100 -60 -215 -60q-170 0 -288 126.5t-118 322.5z" />
<glyph unicode="&#xaa;" horiz-adv-x="927" d="M315 973q0 66 34.5 120t90 86t118 49t124.5 17q56 0 106 -12l9 35q4 28 4 39q0 45 -29.5 61t-79.5 16q-69 0 -107 -22t-85 -78l-76 64q42 49 80 77q82 60 205 60q50 0 97 -13.5t84.5 -49t37.5 -87.5q0 -8 -4 -28l-78 -373v-4q0 -7 6 -10q10 -5 18 -5h23l-19 -79h-102 q-23 0 -39 15t-16 38v8q-94 -78 -213 -78q-82 0 -135.5 38.5t-53.5 115.5zM436 991q0 -71 92 -71q68 0 134 36.5t86 79.5l16 82q-7 10 -14 15q-24 12 -64 12q-37 0 -77.5 -8.5t-80.5 -25t-66 -48t-26 -72.5z" />
<glyph unicode="&#xab;" horiz-adv-x="1183" d="M256 584l426 458l143 -32l-417 -445l217 -407h-144zM616 584l424 458l146 -32l-418 -445l219 -407h-147z" />
<glyph unicode="&#xac;" horiz-adv-x="1560" d="M317 580l29 131h1124l-100 -467h-135l72 336h-990z" />
<glyph unicode="&#xad;" horiz-adv-x="714" d="M238 637l30 141h510l-28 -141h-512z" />
<glyph unicode="&#xae;" horiz-adv-x="1714" d="M268 719q0 210 98.5 379.5t265.5 262.5t369 93q208 0 377 -95.5t265 -264t96 -375.5h-2q0 -208 -96.5 -376t-265 -262.5t-374.5 -94.5q-149 0 -283 54t-233.5 148.5t-158 232.5t-58.5 298zM350 721q0 -185 87 -335.5t236 -235t328 -84.5q182 0 331.5 84.5t235.5 234 t87 334.5q0 184 -84.5 334t-233 235.5t-331.5 85.5t-333.5 -85t-236.5 -234.5t-86 -333.5zM723 295v866h305q127 0 193 -35q55 -28 85.5 -79.5t30.5 -116.5q0 -92 -54 -149.5t-144 -75.5q43 -16 80.5 -94t71 -184t46.5 -132h-139q-12 25 -28.5 78.5t-32.5 102t-38.5 97 t-56.5 78t-77 29.5h-121v-385h-121zM844 782h180q190 0 190 142q0 55 -32 92q-24 26 -61 35.5t-105 9.5h-172v-279z" />
<glyph unicode="&#xaf;" horiz-adv-x="802" d="M420 1229l31 135h516l-29 -135h-518z" />
<glyph unicode="&#xb0;" horiz-adv-x="948" d="M317 1051q0 108 59 206t157.5 157t207.5 59q124 0 200.5 -76t76.5 -193q0 -109 -59 -208t-157.5 -158.5t-207.5 -59.5q-125 0 -201 76.5t-76 196.5zM449 1073q0 -75 47.5 -122.5t124.5 -47.5q107 0 186.5 84t79.5 193q0 74 -46.5 121t-125.5 47q-107 0 -186.5 -84 t-79.5 -191z" />
<glyph unicode="&#xb2;" horiz-adv-x="968" d="M39 414q3 8 8 25.5t8 25.5q26 64 72 123t108.5 108.5t118 87.5t130.5 86t116 78q86 62 132 122t46 130t-51 100.5t-129 30.5q-82 0 -155 -45.5t-113 -118.5l-113 72q68 102 166.5 159.5t218.5 57.5q49 0 95 -8.5t88 -28.5t73 -48.5t49.5 -71.5t18.5 -95q0 -62 -24 -119.5 t-52.5 -96t-90.5 -87.5t-96.5 -71.5t-113.5 -70.5l-39 -24q-59 -37 -94.5 -61t-78 -60t-69.5 -71h539l-27 -129h-741z" />
<glyph unicode="&#xb3;" horiz-adv-x="995" d="M37 645l131 64q13 -102 65.5 -143.5t157.5 -41.5q56 0 107 13t94.5 39t69.5 71.5t26 104.5q0 133 -223 133h-94l26 125h76q52 0 99.5 10.5t90 33t68 63.5t25.5 95q0 119 -189 119q-83 0 -150 -44t-108 -120l-114 68q69 114 162.5 167.5t226.5 53.5q59 0 111.5 -12 t98.5 -37.5t73.5 -71t27.5 -106.5q0 -97 -52.5 -171t-144.5 -110q133 -48 133 -186q0 -90 -40 -162t-106 -115.5t-145.5 -66.5t-164.5 -23q-136 0 -226 61t-112 189z" />
<glyph unicode="&#xb4;" horiz-adv-x="647" d="M508 1180l287 307h235l-395 -307h-127z" />
<glyph unicode="&#xb6;" horiz-adv-x="1130" d="M135 936q0 50 10 86q23 113 99.5 209.5t184.5 152.5t222 56h584l-25 -115h-34l-369 -1733h-129l369 1733h-254l-369 -1733h-129l215 1012h-37q-149 0 -243.5 94t-94.5 238z" />
<glyph unicode="&#xb7;" horiz-adv-x="528" d="M317 719q0 41 30 70.5t71 29.5q43 0 72.5 -29.5t29.5 -70.5q0 -43 -29.5 -73t-72.5 -30q-41 0 -71 30t-30 73z" />
<glyph unicode="&#xb8;" horiz-adv-x="671" d="M233 -377l33 60q60 -29 121 -29q55 0 100 25t45 75q0 25 -18 40.5t-51 15.5q-41 0 -78 -21l-61 12l143 215h72l-93 -141q43 16 91 16t81 -26t33 -76q0 -98 -81.5 -152.5t-184.5 -54.5q-65 0 -152 41z" />
<glyph unicode="&#xb9;" horiz-adv-x="612" d="M174 1190l23 110q98 2 156 30t85 110h131l-219 -1026h-145l168 788q-64 -12 -160 -12h-2h-2h-4h-31z" />
<glyph unicode="&#xba;" horiz-adv-x="884" d="M313 1081q0 107 45.5 199t132 149.5t195.5 57.5q115 0 183.5 -64.5t68.5 -177.5q0 -164 -108 -289t-271 -125q-117 0 -181.5 68.5t-64.5 181.5zM436 1087q0 -69 35 -111t102 -42q72 0 128.5 44t85 110t28.5 137q0 74 -33.5 117.5t-103.5 43.5q-57 0 -104.5 -28.5 t-76.5 -73t-45 -96t-16 -101.5z" />
<glyph unicode="&#xbb;" horiz-adv-x="1259" d="M256 158l434 460l-211 396l129 28l234 -442l-408 -442h-178zM616 158l435 460l-211 396l129 28l233 -442l-409 -442h-177z" />
<glyph unicode="&#xbc;" horiz-adv-x="1941" d="M184 1190l23 110q48 2 81 7.5t66.5 19.5t57 42t37.5 71h131l-220 -1026h-145l168 788q-64 -12 -162 -12h-2h-2h-4h-29zM244 -20l1124 1503l125 -23l-1126 -1501zM891 242l22 108l670 676h156l-43 -207l-97 -454h158l-26 -123h-158l-51 -242h-142l52 242h-541zM1110 365 h348l94 444z" />
<glyph unicode="&#xbd;" horiz-adv-x="2027" d="M174 1190l23 110q98 2 156 30t85 110h131l-219 -1026h-145l168 788q-64 -12 -160 -12h-2h-2h-4h-31zM233 -23l1125 1506l125 -23l-1127 -1501zM1012 0q3 15 16 53q31 79 101 154t133 119.5t165.5 111t145.5 97.5q86 62 132 122t46 131q0 70 -52 101t-128 31 q-82 0 -155.5 -46t-112.5 -118l-113 69q68 103 166.5 161t218.5 58q62 0 118 -14.5t103 -43t74.5 -78.5t27.5 -115q0 -62 -22 -118t-54.5 -98t-84.5 -84.5t-98.5 -73t-109.5 -69.5q-31 -19 -46 -28q-172 -102 -242 -193h539l-29 -129h-739z" />
<glyph unicode="&#xbe;" horiz-adv-x="2277" d="M37 645l131 64q13 -102 65.5 -143.5t157.5 -41.5q56 0 107 13t94.5 39t69.5 71.5t26 104.5q0 133 -223 133h-94l26 125h76q52 0 99.5 10.5t90 33t68 63.5t25.5 95q0 119 -189 119q-83 0 -150 -44t-108 -120l-114 68q69 114 162.5 167.5t226.5 53.5q59 0 111.5 -12 t98.5 -37.5t73.5 -71t27.5 -106.5q0 -97 -52.5 -171t-144.5 -110q133 -48 133 -186q0 -90 -40 -162t-106 -115.5t-145.5 -66.5t-164.5 -23q-136 0 -226 61t-112 189zM563 -20l1125 1503l124 -23l-1126 -1501zM1210 242l23 108l670 676h155l-43 -207l-96 -454h158l-27 -123 h-158l-51 -242h-141l51 242h-541zM1430 365h348l94 444z" />
<glyph unicode="&#xbf;" horiz-adv-x="1181" d="M154 -125q0 48 11 92.5t26.5 80t44.5 71.5t54.5 62t66.5 57.5t69.5 51.5t75.5 50q45 30 72.5 49.5t51 44.5t34.5 41t23.5 50t19 60.5t18.5 82.5h143q-16 -70 -26 -108.5t-26.5 -81t-33.5 -67t-47.5 -56t-67 -58t-94.5 -64.5q-44 -29 -65.5 -44t-60.5 -45t-59 -53.5 t-43.5 -56.5t-33.5 -69.5t-10 -77.5q0 -84 65.5 -139t186.5 -55q125 0 208.5 48t170.5 177l100 -68q-88 -137 -205.5 -208.5t-283.5 -71.5q-171 0 -278 84t-107 221zM729 954q0 41 29.5 71t70.5 30q43 0 73 -30t30 -71q0 -42 -30 -72t-73 -30q-41 0 -70.5 30.5t-29.5 71.5z " />
<glyph unicode="&#xc0;" horiz-adv-x="1347" d="M61 0l850 1440h146l233 -1440h-149l-60 399h-618l-230 -399h-172zM535 528h528l-109 736zM694 1872h211l156 -307h-103z" />
<glyph unicode="&#xc1;" horiz-adv-x="1347" d="M61 0l850 1440h146l233 -1440h-149l-60 399h-618l-230 -399h-172zM535 528h528l-109 736zM897 1565l285 307h235l-393 -307h-127z" />
<glyph unicode="&#xc2;" horiz-adv-x="1347" d="M61 0l850 1440h146l233 -1440h-149l-60 399h-618l-230 -399h-172zM535 528h528l-109 736zM655 1565l322 305h113l200 -305h-108l-168 172l-230 -172h-129z" />
<glyph unicode="&#xc3;" horiz-adv-x="1347" d="M61 0l850 1440h146l233 -1440h-149l-60 399h-618l-230 -399h-172zM535 528h528l-109 736zM639 1608q28 92 96 156.5t152 64.5q45 0 85 -18.5t64 -40t54.5 -40t58.5 -18.5q65 0 115 113l102 -10q-36 -102 -102.5 -164t-147.5 -62q-42 0 -83 19t-67 41.5t-57 41.5t-57 19 q-62 0 -109 -113z" />
<glyph unicode="&#xc4;" horiz-adv-x="1347" d="M61 0l426 719l424 721h146l233 -1440h-149l-60 399h-618l-230 -399h-172zM535 528h528l-37 244l-35 246l-37 246zM727 1661q0 35 24.5 59.5t59.5 24.5t59.5 -24.5t24.5 -59.5q0 -34 -25 -59t-59 -25q-35 0 -59.5 25t-24.5 59zM1075 1661q0 35 25 59.5t59 24.5t59 -24.5 t25 -59.5q0 -34 -24.5 -59t-59.5 -25q-34 0 -59 25t-25 59z" />
<glyph unicode="&#xc5;" horiz-adv-x="1347" d="M61 0l850 1440h146l233 -1440h-149l-60 399h-618l-230 -399h-172zM535 528h528l-109 736zM815 1708q0 84 57.5 141.5t143.5 57.5t143.5 -57.5t57.5 -141.5q0 -85 -57.5 -143t-143.5 -58t-143.5 58t-57.5 143zM899 1708q0 -51 32 -84t83 -33t82.5 33t31.5 84 q0 50 -31.5 82.5t-82.5 32.5t-83 -32.5t-32 -82.5z" />
<glyph unicode="&#xc6;" horiz-adv-x="2066" d="M-59 0l1251 1440h950l-28 -137h-754l-103 -482h568l-29 -137h-567l-117 -549h795l-29 -135h-946l84 391h-549l-336 -391h-190zM584 528h460l154 719z" />
<glyph unicode="&#xc7;" horiz-adv-x="1331" d="M231 500q0 134 34.5 271t103.5 262t162.5 222t222 155t272.5 58q188 0 300.5 -101t146.5 -271l-136 -49q-56 290 -342 290q-110 0 -209 -53t-169.5 -139.5t-123 -194t-78.5 -219t-26 -213.5q0 -89 20 -162.5t60.5 -130.5t108 -89t155.5 -32q115 0 220.5 61t181.5 161 l112 -84q-108 -131 -231 -202t-289 -71q-14 0 -22 2h-9l-49 -84q43 19 88 19q49 0 82 -26.5t33 -76.5q0 -98 -81.5 -152t-184.5 -54q-65 0 -152 38l33 62q57 -31 121 -31q34 0 65 9t55.5 33t24.5 59q0 27 -18 42t-51 15q-38 0 -76 -23l-64 13l107 161q-102 13 -180 59 t-125 117.5t-70 159t-23 189.5z" />
<glyph unicode="&#xc8;" horiz-adv-x="1150" d="M143 0l306 1440h905l-29 -137h-754l-102 -482h567l-28 -137h-568l-116 -549h794l-28 -135h-947zM688 1872h211l154 -307h-103z" />
<glyph unicode="&#xc9;" horiz-adv-x="1150" d="M143 0l306 1440h905l-29 -137h-754l-102 -482h567l-28 -137h-568l-116 -549h794l-28 -135h-947zM848 1565l287 307h235l-395 -307h-127z" />
<glyph unicode="&#xca;" horiz-adv-x="1150" d="M143 0l306 1440h905l-29 -137h-754l-102 -482h567l-28 -137h-568l-116 -549h794l-28 -135h-947zM629 1565l321 305h113l199 -305h-107l-168 172l-231 -172h-127z" />
<glyph unicode="&#xcb;" horiz-adv-x="1150" d="M143 0l306 1440h905l-29 -137h-754l-102 -482h567l-28 -137h-568l-116 -549h794l-28 -135h-947zM721 1661q0 35 24.5 59.5t59.5 24.5q34 0 59 -24.5t25 -59.5q0 -34 -25 -59t-59 -25q-35 0 -59.5 25t-24.5 59zM1069 1661q0 35 24.5 59.5t59.5 24.5q34 0 59 -24.5 t25 -59.5q0 -34 -25 -59t-59 -25q-35 0 -59.5 25t-24.5 59z" />
<glyph unicode="&#xcc;" horiz-adv-x="434" d="M143 0l306 1440h151l-305 -1440h-152zM260 1872h211l154 -307h-103z" />
<glyph unicode="&#xcd;" horiz-adv-x="434" d="M143 0l306 1440h151l-305 -1440h-152zM446 1565l285 307h236l-394 -307h-127z" />
<glyph unicode="&#xce;" horiz-adv-x="434" d="M143 0l306 1440h151l-305 -1440h-152zM225 1565l322 305h112l199 -305h-106l-168 172l-232 -172h-127z" />
<glyph unicode="&#xcf;" horiz-adv-x="434" d="M143 0l306 1440h151l-305 -1440h-152zM311 1661q0 35 24.5 59.5t59.5 24.5q34 0 59 -24.5t25 -59.5q0 -34 -25 -59t-59 -25q-35 0 -59.5 25t-24.5 59zM659 1661q0 35 24.5 59.5t59.5 24.5q34 0 59 -24.5t25 -59.5q0 -34 -25 -59t-59 -25q-35 0 -59.5 25t-24.5 59z" />
<glyph unicode="&#xd0;" horiz-adv-x="1386" d="M41 0l149 696h-147l29 129h145l131 617l424 -2q266 0 403.5 -123t137.5 -365q0 -199 -56 -371t-162.5 -302t-272.5 -204.5t-373 -74.5h-408zM225 135h240q141 0 256.5 43t196 117.5t135.5 177.5t80.5 221t25.5 250q0 185 -101.5 273t-314.5 88h-268l-102 -480h366 l-26 -129h-367z" />
<glyph unicode="&#xd1;" horiz-adv-x="1372" d="M143 0l306 1440h151l522 -1225l260 1225h152l-307 -1440h-152l-520 1221l-260 -1221h-152zM692 1608q27 92 96 156.5t152 64.5q46 0 86 -18.5t64.5 -40t55 -40t58.5 -18.5q67 0 113 113l104 -10q-36 -102 -103 -164t-147 -62q-43 0 -84 19t-67 41.5t-57 41.5t-56 19 q-63 0 -110 -113z" />
<glyph unicode="&#xd2;" horiz-adv-x="1421" d="M231 504q0 134 33 270t100.5 260.5t160 221.5t221.5 154.5t276 57.5q159 0 268 -67q104 -65 155.5 -184t51.5 -271q0 -133 -33 -269.5t-100.5 -263t-159.5 -225.5t-220 -158t-273 -59q-162 0 -271 70q-105 68 -157 189.5t-52 273.5zM387 514q0 -88 19 -160.5t58.5 -129.5 t105.5 -88.5t153 -31.5q112 0 212.5 52.5t172.5 139t125.5 194.5t79.5 221t26 217q0 118 -32.5 207.5t-109.5 145.5t-193 56q-209 0 -369 -170q-62 -64 -119 -161q-62 -114 -95.5 -243.5t-33.5 -248.5zM727 1872h211l154 -307h-103z" />
<glyph unicode="&#xd3;" horiz-adv-x="1421" d="M231 504q0 134 33 270t100.5 260.5t160 221.5t221.5 154.5t276 57.5q159 0 268 -67q104 -65 155.5 -184t51.5 -271q0 -133 -33 -269.5t-100.5 -263t-159.5 -225.5t-220 -158t-273 -59q-162 0 -271 70q-105 68 -157 189.5t-52 273.5zM387 514q0 -88 19 -160.5t58.5 -129.5 t105.5 -88.5t153 -31.5q112 0 212.5 52.5t172.5 139t125.5 194.5t79.5 221t26 217q0 160 -61 262q-26 47 -72 84q-78 63 -202 63q-115 0 -216.5 -52.5t-173 -138t-124 -193.5t-78 -221t-25.5 -218zM928 1565l286 307h236l-395 -307h-127z" />
<glyph unicode="&#xd4;" horiz-adv-x="1421" d="M231 504q0 134 33 270t100.5 260.5t160 221.5t221.5 154.5t276 57.5q159 0 268 -67q104 -65 155.5 -184t51.5 -271q0 -133 -33 -269.5t-100.5 -263t-159.5 -225.5t-220 -158t-273 -59q-162 0 -271 70q-105 68 -157 189.5t-52 273.5zM387 514q0 -88 19 -160.5t58.5 -129.5 t105.5 -88.5t153 -31.5q112 0 212.5 52.5t172.5 139t125.5 194.5t79.5 221t26 217q0 118 -32.5 207.5t-109.5 145.5t-193 56q-172 0 -314 -116q-62 -53 -112 -121q-52 -68 -97 -166q-50 -108 -71 -221q-23 -112 -23 -199zM729 1565l322 305h112l199 -305h-107l-168 172 l-231 -172h-127z" />
<glyph unicode="&#xd5;" horiz-adv-x="1421" d="M231 504q0 134 33 270t100.5 260.5t160 221.5t221.5 154.5t276 57.5q159 0 268 -67q104 -65 155.5 -184t51.5 -271q0 -133 -33 -269.5t-100.5 -263t-159.5 -225.5t-220 -158t-273 -59q-162 0 -271 70q-105 68 -157 189.5t-52 273.5zM387 514q0 -210 105 -321 q89 -89 231 -89q141 0 256.5 77t198.5 208q77 121 119 265t42 274q0 208 -102 319q-90 90 -233 90q-141 0 -255.5 -74t-197.5 -200q-78 -121 -121 -267.5t-43 -281.5zM711 1608q28 92 96 156.5t151 64.5q46 0 86.5 -18.5t64.5 -40t55 -40t59 -18.5q66 0 112 113l105 -10 q-36 -102 -103 -164t-147 -62q-43 0 -84 19t-67 41.5t-57 41.5t-56 19q-64 0 -111 -113z" />
<glyph unicode="&#xd6;" horiz-adv-x="1421" d="M231 504q0 134 33 270t100.5 260.5t160 221.5t221.5 154.5t276 57.5q122 0 215 -40.5t149 -112.5t83.5 -165t27.5 -204q0 -133 -33 -269.5t-100.5 -263t-159.5 -225.5t-220 -158t-273 -59q-123 0 -217 42t-150.5 116t-84.5 168.5t-28 206.5zM387 514q0 -88 19 -160.5 t58.5 -129.5t105.5 -88.5t153 -31.5q141 0 257.5 78.5t199.5 210.5q76 119 117.5 261.5t41.5 273.5q0 118 -32.5 207.5t-109.5 145.5t-193 56q-144 0 -260 -77t-199 -209q-75 -120 -116.5 -263t-41.5 -274zM801 1661q0 35 24.5 59.5t59.5 24.5q25 0 43 -12q39 -22 39 -72 q0 -34 -24 -59t-58 -25q-27 0 -45 12q-39 22 -39 72zM1149 1661q0 35 24.5 59.5t59.5 24.5q34 0 59 -24.5t25 -59.5q0 -34 -25 -59t-59 -25q-35 0 -59.5 25t-24.5 59z" />
<glyph unicode="&#xd7;" horiz-adv-x="1187" d="M37 158l459 379l-289 368l104 82l287 -364l467 387l84 -103l-471 -389l299 -381l-105 -82l-294 379l-457 -379z" />
<glyph unicode="&#xd8;" horiz-adv-x="1554" d="M229 -39l162 195q-90 131 -90 344q0 135 32 271t97.5 261.5t156 222.5t216.5 155t270 58q99 0 187 -25.5t143 -70.5l117 139l110 -36l-153 -185q92 -134 92 -342q0 -111 -23 -226t-66 -224t-110 -204.5t-150 -167.5t-191 -113.5t-228 -41.5q-100 0 -190.5 27t-145.5 74 l-125 -148zM459 524q0 -137 45 -233l794 956q-90 90 -235 90q-112 0 -211.5 -52t-169.5 -136.5t-121.5 -191.5t-76.5 -218t-25 -215zM567 195q91 -91 236 -91q110 0 209 52.5t169.5 138t122.5 192.5t77.5 218t25.5 213q0 135 -43 233z" />
<glyph unicode="&#xd9;" horiz-adv-x="1288" d="M217 358q0 135 41 320l162 762h153l-182 -854q-29 -145 -29 -217q0 -127 67.5 -195t227.5 -68q90 0 164 23.5t125.5 64t91.5 100t65 125t42 146.5l184 875h152l-160 -754q-20 -92 -39.5 -164t-50 -149t-65.5 -134t-86 -110t-112.5 -86t-143 -52.5t-179.5 -19.5 q-121 0 -206.5 28t-133 81.5t-68 121t-20.5 156.5zM700 1872h211l154 -307h-102z" />
<glyph unicode="&#xda;" horiz-adv-x="1288" d="M217 358q0 135 41 320l162 762h153l-182 -854q-29 -145 -29 -217q0 -127 67.5 -195t227.5 -68q90 0 164 23.5t125.5 64t91.5 100t65 125t42 146.5l184 875h152l-160 -754q-20 -92 -39.5 -164t-50 -149t-65.5 -134t-86 -110t-112.5 -86t-143 -52.5t-179.5 -19.5 q-121 0 -206.5 28t-133 81.5t-68 121t-20.5 156.5zM840 1565l286 307h236l-395 -307h-127z" />
<glyph unicode="&#xdb;" horiz-adv-x="1288" d="M217 358q0 135 41 320l162 762h153l-182 -854q-29 -145 -29 -217q0 -127 67.5 -195t227.5 -68q90 0 164 23.5t125.5 64t91.5 100t65 125t42 146.5l184 875h152l-160 -754q-20 -92 -39.5 -164t-50 -149t-65.5 -134t-86 -110t-112.5 -86t-143 -52.5t-179.5 -19.5 q-121 0 -206.5 28t-133 81.5t-68 121t-20.5 156.5zM662 1565l321 305h113l198 -305h-106l-168 172l-232 -172h-126z" />
<glyph unicode="&#xdc;" horiz-adv-x="1288" d="M217 358q0 135 41 320l162 762h153l-182 -854q-29 -145 -29 -217q0 -127 67.5 -195t227.5 -68q90 0 164 23.5t125.5 64t91.5 100t65 125t42 146.5l184 875h152l-160 -754q-20 -92 -39.5 -164t-50 -149t-65.5 -134t-86 -110t-112.5 -86t-143 -52.5t-179.5 -19.5 q-121 0 -206.5 28t-133 81.5t-68 121t-20.5 156.5zM733 1661q0 35 24.5 59.5t59.5 24.5q34 0 59 -24.5t25 -59.5q0 -34 -25 -59t-59 -25q-35 0 -59.5 25t-24.5 59zM1081 1661q0 35 24.5 59.5t59.5 24.5q34 0 59 -24.5t25 -59.5q0 -34 -25 -59t-59 -25q-35 0 -59.5 25 t-24.5 59z" />
<glyph unicode="&#xdd;" horiz-adv-x="1251" d="M336 1440h160l268 -725l586 725h186l-717 -865l-123 -575h-149l123 575zM827 1565l285 307h236l-394 -307h-127z" />
<glyph unicode="&#xde;" horiz-adv-x="1253" d="M0 0l305 1440h152l-51 -242h362q80 0 144 -7.5t124 -27.5t99.5 -53t63.5 -86.5t24 -124.5q0 -134 -48.5 -237.5t-134 -167t-196 -95.5t-240.5 -32h-375l-77 -367h-152zM258 498h373q93 0 171.5 23t138.5 68t94 119.5t34 170.5q0 50 -18.5 85.5t-47 55.5t-76 31.5 t-91.5 14.5t-107 3h-350z" />
<glyph unicode="&#xdf;" horiz-adv-x="1103" d="M143 -199l252 1190q104 494 475 494q149 0 228.5 -79.5t79.5 -197.5q0 -131 -78.5 -243t-202.5 -148q101 -37 161 -124t60 -204q0 -152 -68.5 -267.5t-187.5 -176.5t-270 -61q-34 0 -68.5 9.5t-52.5 22.5l25 125q50 -28 125 -28q154 0 253 104t99 258q0 118 -97 196.5 t-264 78.5l27 124q70 0 138 20t124.5 57t91.5 98.5t35 136.5q0 77 -46 123.5t-134 46.5q-48 0 -91.5 -18.5t-85 -60.5t-76 -118t-56.5 -182l-240 -1131z" />
<glyph unicode="&#xe0;" d="M154 223q0 173 152 295.5t386 122.5q96 0 207 -27l29 144q4 24 4 33q0 63 -53.5 101t-133.5 38q-178 0 -305 -166l-96 80q73 101 187 154t233 53q132 0 221.5 -65t89.5 -181q0 -29 -6 -64l-127 -596q-2 -10 -2 -24q0 -15 7.5 -22t29.5 -7h31l-17 -92h-127q-76 0 -76 70 q0 14 15 77q-64 -77 -165 -124.5t-200 -47.5q-122 0 -203 63.5t-81 184.5zM293 244q0 -68 49 -106t123 -38q92 0 195.5 59t177.5 169l36 166q-15 12 -36 16q-70 12 -136 12q-172 0 -290.5 -78.5t-118.5 -199.5zM500 1487h211l155 -307h-102z" />
<glyph unicode="&#xe1;" d="M154 223q0 173 152 295.5t386 122.5q96 0 207 -27l29 144q4 24 4 33q0 63 -53.5 101t-133.5 38q-178 0 -305 -166l-96 80q73 101 187 154t233 53q132 0 221.5 -65t89.5 -181q0 -29 -6 -64l-127 -596q-2 -10 -2 -24q0 -15 7.5 -22t29.5 -7h31l-17 -92h-127q-76 0 -76 70 q0 14 15 77q-64 -77 -165 -124.5t-200 -47.5q-122 0 -203 63.5t-81 184.5zM293 244q0 -68 49 -106t123 -38q92 0 195.5 59t177.5 169l36 166q-15 12 -36 16q-70 12 -136 12q-172 0 -290.5 -78.5t-118.5 -199.5zM641 1180l287 307h235l-395 -307h-127z" />
<glyph unicode="&#xe2;" d="M154 223q0 173 152 295.5t386 122.5q96 0 207 -27l29 144q4 24 4 33q0 63 -53.5 101t-133.5 38q-178 0 -305 -166l-96 80q73 101 187 154t233 53q132 0 221.5 -65t89.5 -181q0 -29 -6 -64l-127 -596q-2 -10 -2 -24q0 -15 7.5 -22t29.5 -7h31l-17 -92h-127q-76 0 -76 70 q0 14 15 77q-64 -77 -165 -124.5t-200 -47.5q-122 0 -203 63.5t-81 184.5zM293 244q0 -68 49 -106t123 -38q92 0 195.5 59t177.5 169l36 166q-15 12 -36 16q-70 12 -136 12q-172 0 -290.5 -78.5t-118.5 -199.5zM459 1180l321 305h113l199 -305h-107l-168 172l-231 -172h-127 z" />
<glyph unicode="&#xe3;" d="M154 223q0 173 152 295.5t386 122.5q96 0 207 -27l29 144q4 24 4 33q0 63 -53.5 101t-133.5 38q-178 0 -305 -166l-96 80q73 101 187 154t233 53q132 0 221.5 -65t89.5 -181q0 -29 -6 -64l-127 -596q-2 -10 -2 -24q0 -15 7.5 -22t29.5 -7h31l-17 -92h-127q-76 0 -76 70 q0 14 15 77q-64 -77 -165 -124.5t-200 -47.5q-122 0 -203 63.5t-81 184.5zM293 244q0 -68 49 -106t123 -38q92 0 195.5 59t177.5 169l36 166q-15 12 -36 16q-70 12 -136 12q-172 0 -290.5 -78.5t-118.5 -199.5zM438 1219q28 92 96.5 157.5t151.5 65.5q46 0 86 -18.5 t64.5 -41t55 -41t58.5 -18.5q67 0 113 113l104 -11q-38 -101 -99 -163t-128 -62q-43 0 -84 19t-67 41.5t-57 41.5t-56 19q-37 0 -81.5 -30.5t-66.5 -80.5z" />
<glyph unicode="&#xe4;" d="M154 223q0 173 152 295.5t386 122.5q96 0 207 -27l29 144q4 24 4 33q0 63 -53.5 101t-133.5 38q-178 0 -305 -166l-96 80q73 101 187 154t233 53q132 0 221.5 -65t89.5 -181q0 -29 -6 -64l-127 -596q-2 -10 -2 -24q0 -15 7.5 -22t29.5 -7h31l-17 -92h-127q-76 0 -76 70 q0 14 15 77q-64 -77 -165 -124.5t-200 -47.5q-122 0 -203 63.5t-81 184.5zM293 244q0 -68 49 -106t123 -38q92 0 195.5 59t177.5 169l36 166q-15 12 -36 16q-70 12 -136 12q-172 0 -290.5 -78.5t-118.5 -199.5zM528 1384q0 35 24.5 59.5t59.5 24.5q34 0 59 -24.5t25 -59.5 q0 -34 -25 -59t-59 -25q-35 0 -59.5 25t-24.5 59zM877 1384q0 35 24.5 59.5t59.5 24.5q34 0 58.5 -24.5t24.5 -59.5q0 -34 -24.5 -59t-58.5 -25q-35 0 -59.5 25t-24.5 59z" />
<glyph unicode="&#xe5;" d="M154 223q0 173 152 295.5t386 122.5q96 0 207 -27l29 144q4 24 4 33q0 63 -53.5 101t-133.5 38q-178 0 -305 -166l-96 80q73 101 187 154t233 53q132 0 221.5 -65t89.5 -181q0 -29 -6 -64l-127 -596q-2 -10 -2 -24q0 -15 7.5 -22t29.5 -7h31l-17 -92h-127q-76 0 -76 70 q0 14 15 77q-64 -77 -165 -124.5t-200 -47.5q-122 0 -203 63.5t-81 184.5zM293 244q0 -68 49 -106t123 -38q92 0 195.5 59t177.5 169l36 166q-15 12 -36 16q-70 12 -136 12q-172 0 -290.5 -78.5t-118.5 -199.5zM621 1378q0 85 57 143t143 58t143.5 -57.5t57.5 -141.5 q0 -85 -57.5 -143.5t-143.5 -58.5t-143 58t-57 142zM707 1380q0 -51 31.5 -84.5t82.5 -33.5t83 33.5t32 84.5v-2q0 50 -32.5 83.5t-82.5 33.5q-51 0 -82.5 -32.5t-31.5 -82.5z" />
<glyph unicode="&#xe6;" horiz-adv-x="1742" d="M154 223q0 173 152 295.5t386 122.5q99 0 207 -27l2 7q0 1 2.5 10t7 25.5t7.5 31.5q16 74 16 103q0 63 -53 101t-133 38q-82 0 -165.5 -41t-146.5 -123l-90 78q71 98 183.5 152.5t236.5 54.5q105 0 186 -42.5t111 -119.5q76 78 171.5 119t195.5 41q171 0 260.5 -102.5 t89.5 -268.5q0 -113 -31 -193h-731q-12 -67 -12 -129q0 -115 53 -184.5t172 -69.5q178 0 348 156l90 -84q-80 -90 -201 -143.5t-268 -53.5q-236 0 -315 211q-85 -102 -203 -157.5t-233 -55.5q-128 0 -211.5 65t-83.5 183zM301 244q0 -67 44.5 -104.5t117.5 -37.5 q92 0 199.5 61.5t193.5 178.5v16v9v2q0 61 12 129q-44 24 -166 24q-171 0 -286 -78t-115 -200zM1044 600h588q4 27 4 78q0 246 -219 246q-124 0 -224 -84.5t-149 -239.5z" />
<glyph unicode="&#xe7;" horiz-adv-x="1005" d="M193 356q0 102 24.5 201t74 188t117.5 157t162.5 107.5t202.5 39.5q58 0 107.5 -13t82 -31.5t61 -47.5t43.5 -50.5t32 -50.5l-113 -68q-69 136 -221 136q-98 0 -180.5 -54t-134 -138.5t-79.5 -182.5t-28 -191q0 -54 11 -98t36 -81t70.5 -58t109.5 -21q158 0 289 140 l107 -74q-169 -187 -400 -189l-65 -102q43 16 88 16q49 0 82 -26t33 -76q0 -98 -82 -152.5t-185 -54.5q-65 0 -149 41l30 60q60 -29 121 -29q55 0 100.5 25t45.5 75q0 26 -17.5 41t-50.5 15q-44 0 -78 -21l-63 12l121 179q-104 13 -174 68.5t-100.5 133t-30.5 174.5z" />
<glyph unicode="&#xe8;" horiz-adv-x="1077" d="M195 371q0 99 23 195.5t70 184t112.5 154t157 105.5t196.5 39q170 0 265 -103.5t95 -267.5q0 -113 -31 -195h-729q-12 -65 -12 -129q0 -55 11.5 -98.5t37 -79t70 -55t106.5 -19.5q176 0 346 156l91 -86q-173 -195 -453 -195q-95 0 -165.5 32t-111 88t-60 124.5 t-19.5 149.5zM369 600h581q6 40 6 78q0 113 -52.5 179.5t-168.5 66.5t-217 -86t-149 -238zM502 1487h211l153 -307h-102z" />
<glyph unicode="&#xe9;" horiz-adv-x="1077" d="M195 371q0 99 23 195.5t70 184t112.5 154t157 105.5t196.5 39q170 0 265 -103.5t95 -267.5q0 -113 -31 -195h-729q-12 -65 -12 -129q0 -55 11.5 -98.5t37 -79t70 -55t106.5 -19.5q176 0 346 156l91 -86q-173 -195 -453 -195q-95 0 -165.5 32t-111 88t-60 124.5 t-19.5 149.5zM369 600h581q6 40 6 78q0 113 -52.5 179.5t-168.5 66.5t-217 -86t-149 -238zM684 1180l287 307h235l-395 -307h-127z" />
<glyph unicode="&#xea;" horiz-adv-x="1077" d="M195 371q0 99 23 195.5t70 184t112.5 154t157 105.5t196.5 39q170 0 265 -103.5t95 -267.5q0 -113 -31 -195h-729q-12 -65 -12 -129q0 -55 11.5 -98.5t37 -79t70 -55t106.5 -19.5q176 0 346 156l91 -86q-173 -195 -453 -195q-95 0 -165.5 32t-111 88t-60 124.5 t-19.5 149.5zM369 600h581q6 40 6 78q0 113 -52.5 179.5t-168.5 66.5t-217 -86t-149 -238zM461 1180l321 305h113l199 -305h-107l-168 172l-231 -172h-127z" />
<glyph unicode="&#xeb;" horiz-adv-x="1077" d="M195 371q0 99 23 195.5t70 184t112.5 154t157 105.5t196.5 39q170 0 265 -103.5t95 -267.5q0 -113 -31 -195h-729q-12 -65 -12 -129q0 -55 11.5 -98.5t37 -79t70 -55t106.5 -19.5q176 0 346 156l91 -86q-173 -195 -453 -195q-95 0 -165.5 32t-111 88t-60 124.5 t-19.5 149.5zM369 600h581q6 40 6 78q0 113 -52.5 179.5t-168.5 66.5t-217 -86t-149 -238zM551 1384q0 35 24 59.5t58 24.5q35 0 59.5 -24.5t24.5 -59.5q0 -34 -24.5 -59t-59.5 -25q-34 0 -58 25t-24 59zM899 1384q0 35 24.5 59.5t59.5 24.5q34 0 59 -24.5t25 -59.5 q0 -34 -25 -59t-59 -25q-35 0 -59.5 25t-24.5 59z" />
<glyph unicode="&#xec;" horiz-adv-x="428" d="M143 0l219 1026h146l-219 -1026h-146zM145 1487h211l154 -307h-102z" />
<glyph unicode="&#xed;" horiz-adv-x="428" d="M143 0l219 1026h146l-219 -1026h-146zM365 1180l286 307h236l-395 -307h-127z" />
<glyph unicode="&#xee;" horiz-adv-x="428" d="M143 1180l322 305h113l198 -305h-106l-168 172l-232 -172h-127zM164 0l219 1026h143l-219 -1026h-143z" />
<glyph unicode="&#xef;" horiz-adv-x="428" d="M143 0l219 1026h146l-219 -1026h-146zM238 1384q0 35 24.5 59.5t59.5 24.5q34 0 59 -24.5t25 -59.5q0 -34 -25 -59t-59 -25q-35 0 -59.5 25t-24.5 59zM545 1384q0 35 24.5 59.5t59.5 24.5t59.5 -24.5t24.5 -59.5q0 -34 -24.5 -59t-59.5 -25t-59.5 25t-24.5 59z" />
<glyph unicode="&#xf0;" horiz-adv-x="1144" d="M63 346q0 115 41.5 230.5t112.5 209t178 152.5t228 59q107 0 175.5 -38t110.5 -117q-5 103 -27 183.5t-73 154.5l-234 -111l-65 90l223 103q-64 70 -145 106l67 98q20 -14 109 -69q47 -29 82 -64l141 66l68 -88l-135 -64q116 -186 116 -432q0 -115 -21 -229t-69 -224 t-117 -194.5t-174 -136t-231 -51.5q-172 0 -266.5 99.5t-94.5 266.5zM211 356q0 -126 65.5 -189t174.5 -63q94 0 172.5 45t128 118t77 160.5t27.5 176.5q0 54 -12 99.5t-39 85.5t-77 62.5t-118 22.5q-94 0 -172 -48t-126.5 -124t-74.5 -166t-26 -180z" />
<glyph unicode="&#xf1;" horiz-adv-x="1077" d="M143 0l217 1026h146l-29 -135q128 156 320 156q148 0 218 -76t70 -213q0 -74 -18 -156l-127 -602h-145l129 616q16 78 16 132q0 86 -41 130t-133 44q-130 0 -230 -110.5t-137 -287.5l-110 -524h-146zM471 1219q28 93 96 158t152 65q45 0 85 -18.5t64 -41t54.5 -41 t58.5 -18.5q65 0 115 113l102 -11q-36 -100 -97.5 -162.5t-129.5 -62.5q-42 0 -83 19t-67 41.5t-57 41.5t-57 19q-37 0 -81.5 -30.5t-66.5 -80.5z" />
<glyph unicode="&#xf2;" horiz-adv-x="1114" d="M193 360q0 127 39.5 250t110 222t180.5 160t239 61q175 0 276 -107.5t101 -281.5q0 -124 -38.5 -244.5t-108.5 -220t-181 -161t-244 -61.5q-171 0 -272.5 104t-101.5 279zM342 365q0 -128 61.5 -193.5t169.5 -65.5q101 0 183 52.5t131 135.5t75.5 179t26.5 191 q0 55 -11 100.5t-36.5 84.5t-72 61t-111.5 22q-79 0 -148 -35.5t-117 -94t-83 -132.5t-51.5 -152t-16.5 -153zM502 1487h211l155 -307h-102z" />
<glyph unicode="&#xf3;" horiz-adv-x="1114" d="M193 360q0 127 39.5 250t110 222t180.5 160t239 61q175 0 276 -107.5t101 -281.5q0 -124 -38.5 -244.5t-108.5 -220t-181 -161t-244 -61.5q-171 0 -272.5 104t-101.5 279zM342 365q0 -128 61.5 -193.5t169.5 -65.5q101 0 183 52.5t131 135.5t75.5 179t26.5 191 q0 55 -11 100.5t-36.5 84.5t-72 61t-111.5 22q-79 0 -148 -35.5t-117 -94t-83 -132.5t-51.5 -152t-16.5 -153zM707 1180l284 307h236l-393 -307h-127z" />
<glyph unicode="&#xf4;" horiz-adv-x="1114" d="M193 360q0 127 39.5 250t110 222t180.5 160t239 61q175 0 276 -107.5t101 -281.5q0 -124 -38.5 -244.5t-108.5 -220t-181 -161t-244 -61.5q-171 0 -272.5 104t-101.5 279zM342 365q0 -128 61.5 -193.5t169.5 -65.5q101 0 183 52.5t131 135.5t75.5 179t26.5 191 q0 55 -11 100.5t-36.5 84.5t-72 61t-111.5 22q-79 0 -148 -35.5t-117 -94t-83 -132.5t-51.5 -152t-16.5 -153zM481 1180l322 305h112l199 -305h-106l-168 172l-230 -172h-129z" />
<glyph unicode="&#xf5;" horiz-adv-x="1114" d="M193 360q0 127 39.5 250t110 222t180.5 160t239 61q175 0 276 -107.5t101 -281.5q0 -124 -38.5 -244.5t-108.5 -220t-181 -161t-244 -61.5q-171 0 -272.5 104t-101.5 279zM342 365q0 -128 61.5 -193.5t169.5 -65.5q101 0 183 52.5t131 135.5t75.5 179t26.5 191 q0 55 -11 100.5t-36.5 84.5t-72 61t-111.5 22q-79 0 -148 -35.5t-117 -94t-83 -132.5t-51.5 -152t-16.5 -153zM463 1219q28 93 96 158t152 65q45 0 85 -18.5t64 -41t54.5 -41t58.5 -18.5q64 0 114 113l103 -11q-36 -100 -97.5 -162.5t-129.5 -62.5q-42 0 -83 19t-67.5 41.5 t-57.5 41.5t-57 19q-37 0 -81 -30.5t-66 -80.5z" />
<glyph unicode="&#xf6;" horiz-adv-x="1114" d="M193 360q0 127 39.5 250t110 222t180.5 160t239 61q175 0 276 -107.5t101 -281.5q0 -124 -38.5 -244.5t-108.5 -220t-181 -161t-244 -61.5q-171 0 -272.5 104t-101.5 279zM342 365q0 -128 61.5 -193.5t169.5 -65.5q101 0 183 52.5t131 135.5t75.5 179t26.5 191 q0 55 -11 100.5t-36.5 84.5t-72 61t-111.5 22q-79 0 -148 -35.5t-117 -94t-83 -132.5t-51.5 -152t-16.5 -153zM571 1384q0 35 24.5 59.5t59.5 24.5q34 0 59 -24.5t25 -59.5q0 -34 -25 -59t-59 -25q-35 0 -59.5 25t-24.5 59zM920 1384q0 35 25 59.5t59 24.5q35 0 59 -24.5 t24 -59.5q0 -34 -24 -59t-59 -25q-34 0 -59 25t-25 59z" />
<glyph unicode="&#xf7;" horiz-adv-x="1474" d="M256 580l29 131h1110l-29 -131h-1110zM629 248q0 47 33.5 80.5t80.5 33.5t81 -33.5t34 -80.5t-34 -81t-81 -34t-80.5 34t-33.5 81zM799 1044q0 47 33.5 81t80.5 34t81 -34t34 -81t-34 -80.5t-81 -33.5t-80.5 33.5t-33.5 80.5z" />
<glyph unicode="&#xf8;" horiz-adv-x="1114" d="M193 -47l94 129q-90 96 -90 268q0 100 23 199t71 189.5t115 159.5t163 110t207 41q116 0 189 -37l69 94l117 -29l-96 -133q90 -101 90 -270q0 -100 -24 -199.5t-72.5 -189.5t-116 -159t-161.5 -110t-202 -41q-114 0 -194 39l-66 -90zM346 362q0 -85 33 -153l504 690 q-56 27 -123 27q-100 0 -181.5 -53.5t-130.5 -138.5t-75.5 -181.5t-26.5 -190.5zM459 129q56 -29 123 -29q80 0 148.5 34.5t116 91t81 129.5t49.5 149.5t16 150.5q0 95 -32 160z" />
<glyph unicode="&#xf9;" horiz-adv-x="1056" d="M195 268q0 74 18 156l127 602h145l-129 -616q-16 -78 -16 -131q0 -87 41 -131t133 -44q130 0 230 110.5t137 287.5l112 524h144l-217 -1026h-146l29 135q-127 -155 -320 -155q-148 0 -218 75.5t-70 212.5zM487 1487h211l154 -307h-102z" />
<glyph unicode="&#xfa;" horiz-adv-x="1056" d="M195 268q0 74 18 156l127 602h145l-129 -616q-16 -78 -16 -131q0 -87 41 -131t133 -44q130 0 230 110.5t137 287.5l112 524h144l-217 -1026h-146l29 135q-127 -155 -320 -155q-148 0 -218 75.5t-70 212.5zM649 1180l285 307h235l-393 -307h-127z" />
<glyph unicode="&#xfb;" horiz-adv-x="1056" d="M195 268q0 74 18 156l127 602h145l-129 -616q-16 -78 -16 -131q0 -87 41 -131t133 -44q130 0 230 110.5t137 287.5l112 524h144l-217 -1026h-146l29 135q-127 -155 -320 -155q-148 0 -218 75.5t-70 212.5zM444 1180l324 305h113l198 -305h-108l-166 172l-232 -172h-129z " />
<glyph unicode="&#xfc;" horiz-adv-x="1056" d="M195 268q0 74 18 156l127 602h145l-129 -616q-16 -78 -16 -131q0 -87 41 -131t133 -44q130 0 230 110.5t137 287.5l112 524h144l-217 -1026h-146l29 135q-127 -155 -320 -155q-148 0 -218 75.5t-70 212.5zM514 1384q0 35 25 59.5t59 24.5q35 0 59.5 -24.5t24.5 -59.5 q0 -34 -24.5 -59t-59.5 -25q-34 0 -59 25t-25 59zM864 1384q0 35 24.5 59.5t59.5 24.5q34 0 59 -24.5t25 -59.5q0 -34 -25 -59t-59 -25q-35 0 -59.5 25t-24.5 59z" />
<glyph unicode="&#xfd;" horiz-adv-x="1001" d="M-47 -410l47 119q46 -16 74 -16q66 0 108 71l140 238l-142 1024h137l109 -864l494 864h163l-788 -1331q-37 -63 -100.5 -96t-133.5 -33q-59 0 -108 24zM545 1180l286 307h236l-395 -307h-127z" />
<glyph unicode="&#xfe;" horiz-adv-x="1110" d="M-61 -408l395 1848h143l-119 -549q146 158 336 158q145 0 226 -101t81 -274q0 -92 -21 -188t-64.5 -187.5t-104.5 -163t-148.5 -115t-187.5 -43.5q-194 0 -276 160l-117 -545h-143zM231 297q28 -98 94 -146.5t148 -48.5q94 0 169 57t118 145.5t65.5 183.5t22.5 184 q0 122 -53 187t-154 65q-106 0 -192 -75.5t-140 -191.5z" />
<glyph unicode="&#xff;" horiz-adv-x="1007" d="M80 -410l47 119q46 -16 74 -16q68 0 110 71l140 238l-142 1024h137l109 -864l494 864h163l-788 -1331q-37 -63 -100.5 -96t-133.5 -33q-58 0 -110 24zM520 1384q0 35 24 59.5t58 24.5q35 0 59.5 -24.5t24.5 -59.5q0 -34 -24.5 -59t-59.5 -25q-34 0 -58 25t-24 59z M868 1384q0 35 24.5 59.5t59.5 24.5q34 0 59 -24.5t25 -59.5q0 -34 -25 -59t-59 -25q-35 0 -59.5 25t-24.5 59z" />
<glyph unicode="&#x152;" horiz-adv-x="2070" d="M80 539q0 96 20 180q44 207 163.5 377.5t294 271t366.5 100.5q122 0 286 -28h889l-28 -137h-754l-103 -482h568l-31 -137h-567l-117 -549h795l-29 -135h-928q-145 -29 -301 -29q-128 0 -229.5 45.5t-165 124t-96.5 180t-33 218.5zM238 565q0 -128 44 -232t134.5 -168.5 t214.5 -64.5q156 0 284 35l250 1172q-122 36 -270 36q-112 0 -220 -52.5t-190.5 -139.5t-142.5 -199t-86 -231q-18 -79 -18 -156z" />
<glyph unicode="&#x153;" horiz-adv-x="1843" d="M193 352q0 99 25 198.5t75.5 189t119 158.5t162.5 110t199 41q128 0 217 -56t125 -157q81 102 188.5 157.5t223.5 55.5q171 0 261.5 -103t90.5 -268q0 -115 -33 -193h-729q-14 -75 -14 -129q0 -53 11 -96.5t36 -80t70.5 -57t109.5 -20.5q186 0 352 152l86 -80 q-178 -197 -454 -197q-123 0 -210 57.5t-124 164.5q-80 -103 -189.5 -162.5t-240.5 -59.5q-169 0 -263.5 100.5t-94.5 274.5zM344 362q0 -130 62.5 -195t171.5 -65q100 0 181.5 52t130.5 134.5t75 177.5t26 189q0 56 -11.5 102t-36.5 86t-72 62.5t-113 22.5q-100 0 -182 -54 t-131 -139t-75 -182t-26 -191zM1143 600h590q4 54 4 78q0 246 -221 246q-123 0 -223 -84.5t-150 -239.5z" />
<glyph unicode="&#x178;" horiz-adv-x="1251" d="M336 1440h160l268 -725l586 725h186l-717 -865l-123 -575h-149l123 575zM657 1661q0 35 25 59.5t59 24.5q35 0 59.5 -24.5t24.5 -59.5q0 -34 -24.5 -59t-59.5 -25q-34 0 -59 25t-25 59zM1006 1661q0 35 25 59.5t59 24.5q35 0 59.5 -24.5t24.5 -59.5q0 -34 -24.5 -59 t-59.5 -25q-34 0 -59 25t-25 59z" />
<glyph unicode="&#x2c6;" horiz-adv-x="919" d="M342 1180l322 305h112l199 -305h-107l-168 172l-231 -172h-127z" />
<glyph unicode="&#x2dc;" horiz-adv-x="970" d="M322 1219q28 92 96 157.5t151 65.5q46 0 86.5 -18.5t64.5 -41t55 -41t59 -18.5q66 0 112 113l105 -11q-38 -101 -99 -163t-129 -62q-43 0 -84 19t-67 41.5t-57 41.5t-56 19q-37 0 -81 -30.5t-66 -80.5z" />
<glyph unicode="&#x2000;" horiz-adv-x="953" />
<glyph unicode="&#x2001;" horiz-adv-x="1907" />
<glyph unicode="&#x2002;" horiz-adv-x="953" />
<glyph unicode="&#x2003;" horiz-adv-x="1907" />
<glyph unicode="&#x2004;" horiz-adv-x="635" />
<glyph unicode="&#x2005;" horiz-adv-x="476" />
<glyph unicode="&#x2006;" horiz-adv-x="317" />
<glyph unicode="&#x2007;" horiz-adv-x="317" />
<glyph unicode="&#x2008;" horiz-adv-x="238" />
<glyph unicode="&#x2009;" horiz-adv-x="381" />
<glyph unicode="&#x200a;" horiz-adv-x="105" />
<glyph unicode="&#x2010;" horiz-adv-x="714" d="M238 637l30 141h510l-28 -141h-512z" />
<glyph unicode="&#x2011;" horiz-adv-x="714" d="M238 637l30 141h510l-28 -141h-512z" />
<glyph unicode="&#x2012;" horiz-adv-x="714" d="M238 637l30 141h510l-28 -141h-512z" />
<glyph unicode="&#x2013;" horiz-adv-x="1193" d="M256 637l31 141h852l-29 -141h-854z" />
<glyph unicode="&#x2014;" horiz-adv-x="1462" d="M256 637l31 141h1116l-31 -141h-1116z" />
<glyph unicode="&#x2018;" horiz-adv-x="602" d="M317 956l324 512l111 -22l-258 -490h-177z" />
<glyph unicode="&#x2019;" horiz-adv-x="602" d="M317 950l258 488h177l-324 -510z" />
<glyph unicode="&#x201a;" horiz-adv-x="491" d="M4 -322l258 490h176l-323 -512z" />
<glyph unicode="&#x201c;" horiz-adv-x="950" d="M317 956l324 512l111 -22l-258 -490h-177zM668 956l323 512l111 -22l-258 -490h-176z" />
<glyph unicode="&#x201d;" horiz-adv-x="952" d="M317 950l258 488h177l-324 -510zM668 950l258 488h176l-326 -510z" />
<glyph unicode="&#x201e;" horiz-adv-x="841" d="M4 -322l258 490h176l-323 -512zM354 -322l258 490h176l-325 -512z" />
<glyph unicode="&#x2022;" horiz-adv-x="731" d="M276 735q0 97 68 166.5t164 69.5q95 0 163 -69t68 -165q0 -97 -67 -165t-164 -68q-95 0 -163.5 68t-68.5 163z" />
<glyph unicode="&#x2026;" horiz-adv-x="1476" d="M256 80q0 43 29.5 72.5t70.5 29.5q43 0 73 -29.5t30 -72.5q0 -41 -30 -70.5t-73 -29.5q-41 0 -70.5 29.5t-29.5 70.5zM623 80q0 43 29.5 72.5t70.5 29.5q42 0 72 -30t30 -72q0 -41 -30.5 -70.5t-71.5 -29.5t-70.5 29.5t-29.5 70.5zM987 80q0 43 29.5 72.5t70.5 29.5 q42 0 72.5 -30t30.5 -72q0 -41 -30.5 -70.5t-72.5 -29.5q-41 0 -70.5 29.5t-29.5 70.5z" />
<glyph unicode="&#x202f;" horiz-adv-x="381" />
<glyph unicode="&#x2039;" horiz-adv-x="806" d="M256 584l426 458l143 -32l-417 -445l217 -407h-144z" />
<glyph unicode="&#x203a;" horiz-adv-x="882" d="M256 158l434 460l-211 396l129 28l234 -442l-408 -442h-178z" />
<glyph unicode="&#x205f;" horiz-adv-x="476" />
<glyph unicode="&#x20ac;" horiz-adv-x="1626" d="M256 508l41 131h174q8 51 14 80q7 35 15 59h-187l41 133h189q97 251 284.5 404t427.5 153q188 0 300.5 -101t146.5 -271l-135 -49q-56 290 -342 290q-166 0 -304 -119.5t-219 -306.5h517l-45 -133h-517q-10 -34 -16 -63q-6 -23 -14 -76h534l-45 -131h-498 q2 -87 22.5 -158.5t61 -127.5t107.5 -87t154 -31q115 0 220 61t181 161l113 -84q-108 -132 -237 -201.5t-306 -69.5q-121 0 -213.5 40.5t-148.5 114t-84 169.5t-27 213h-205z" />
<glyph unicode="&#x2122;" horiz-adv-x="1515" d="M297 1354l18 86h555l-18 -86h-227l-142 -662h-96l139 662h-229zM811 692l160 748h116l87 -602l339 602h123l-157 -748h-95l105 494l27 112l-95 -163l-254 -443h-53l-70 492l-14 114l-22 -112l-105 -494h-92z" />
<glyph unicode="&#x25fc;" horiz-adv-x="1024" d="M0 0v1024h1024v-1024h-1024z" />
</font>
</defs>
</svg>
