<?xml version="1.0" standalone="no"?>
<!DOCTYPE svg PUBLIC "-//W3C//DTD SVG 1.1//EN" "http://www.w3.org/Graphics/SVG/1.1/DTD/svg11.dtd" >
<svg xmlns="http://www.w3.org/2000/svg">
<metadata></metadata>
<defs>
<font id="district_lightlight" horiz-adv-x="1089" >
<font-face units-per-em="2048" ascent="1638" descent="-410" />
<missing-glyph horiz-adv-x="581" />
<glyph unicode="&#xfb01;" horiz-adv-x="1044" d="M72 905v121h168v172q0 120 70.5 192t193.5 72q106 0 147 -41v-147q-33 65 -125 65q-65 0 -106 -40.5t-41 -102.5v-170h522v-1026h-141v905h-381v-905h-139v905h-168z" />
<glyph unicode="&#xfb02;" horiz-adv-x="1107" d="M72 905v121h168v172q0 123 60 193.5t181 70.5q86 0 127 -41v-147q-30 67 -102 67q-61 0 -94 -36.5t-33 -98.5v-180h237v-121h-237v-905h-139v905h-168zM823 0v1440h142v-1440h-142z" />
<glyph horiz-adv-x="0" />
<glyph horiz-adv-x="682" />
<glyph unicode=" "  horiz-adv-x="581" />
<glyph unicode="&#x09;" horiz-adv-x="581" />
<glyph unicode="&#xa0;" horiz-adv-x="581" />
<glyph unicode="!" horiz-adv-x="489" d="M143 80q0 42 29.5 72t71.5 30q43 0 72.5 -29.5t29.5 -72.5v2q0 -43 -29.5 -72.5t-70.5 -29.5q-43 0 -73 29.5t-30 70.5zM168 694v752h145v-752l-26 -321h-92z" />
<glyph unicode="&#x22;" horiz-adv-x="686" d="M102 1436v4v2q0 21 29 32t64 11l2 -2q92 0 92 -49l-53 -596h-80zM397 1436v4v2q0 21 28 32t62 11h2l3 -2q92 0 92 -49l-56 -596h-79z" />
<glyph unicode="#" horiz-adv-x="1466" d="M143 444v127h293l25 324h-295v131h303l29 416h143l-31 -416h283l29 416h139l-31 -416h293v-129h-301l-23 -324h301v-127h-307l-30 -446h-142l33 446h-285l-32 -446h-138l33 444h-289zM578 571h282l23 326h-281z" />
<glyph unicode="$" horiz-adv-x="1222" d="M102 299l121 96q101 -264 391 -264q170 0 265.5 79.5t95.5 199.5q0 34 -16.5 64.5t-42 54.5t-64 46t-75.5 37.5t-83.5 31.5t-81 25.5t-75 20.5t-58.5 17q-72 23 -126.5 52.5t-99.5 72t-69 103t-24 136.5q0 165 109.5 259t281.5 110v98h135v-98q35 -3 67.5 -9.5t58 -14 t52.5 -21l45 -22.5t41 -27t34.5 -27.5t31.5 -30t26.5 -28t25 -29t22.5 -25.5l-115 -96q-73 107 -152.5 155t-206.5 48q-137 0 -224 -61.5t-87 -172.5q0 -43 14 -77.5t35.5 -58.5t62 -46.5t79 -38t102.5 -37.5q32 -11 87 -28.5t91.5 -29t86 -31.5t82.5 -38.5t69 -47t57 -60 t35 -75.5t14 -95q0 -75 -28 -144t-81 -125.5t-137 -94.5t-188 -48v-110h-133v108q-154 13 -272 87t-179 210z" />
<glyph unicode="%" horiz-adv-x="1900" d="M102 999q0 65 10 127.5t34.5 124t61 107t93.5 74t129 28.5q83 0 147.5 -38.5t102.5 -104t57 -146t19 -170.5v-6q-1 -126 -38 -226.5t-112.5 -162t-177.5 -61.5q-105 0 -180.5 63.5t-110.5 164t-35 226.5zM225 1004q0 -56 8.5 -110.5t29.5 -112t64 -93t103 -35.5 q54 0 94.5 30t63.5 80t34 108t11 122v4q0 158 -53.5 257.5t-149.5 99.5q-98 0 -151.5 -98t-53.5 -252zM479 -41l819 1526h127l-817 -1526h-129zM1145 434q0 65 10 127.5t34.5 124t61 107t93.5 74t129 28.5q83 0 147.5 -38.5t102 -104t56.5 -145.5t19 -171v-6 q-1 -126 -37.5 -226t-112 -162t-178.5 -62q-105 0 -180.5 64t-110 164.5t-34.5 225.5zM1268 438q0 -56 8.5 -110.5t29.5 -111.5t64 -92.5t103 -35.5q71 0 118.5 53t65.5 126t18 161v4q0 159 -53 257.5t-149 98.5q-98 0 -151.5 -98t-53.5 -252z" />
<glyph unicode="&#x26;" horiz-adv-x="1290" d="M102 401q0 134 68 218t195 139l-103 114q-82 88 -82 226q0 94 37.5 166.5t102.5 116.5t146.5 66.5t176.5 22.5q76 0 142.5 -15.5t108 -34t87 -54.5t63.5 -55t52 -58q4 -4 6 -6.5t5 -5.5t5 -6l-115 -98q-50 72 -96.5 114t-112 66t-151.5 24q-137 0 -223 -61.5t-86 -173.5 q0 -84 41 -131l600 -696q24 55 24 118l148 2q0 -130 -74 -237l141 -162h-172l-63 70q-138 -95 -348 -95q-252 0 -387.5 119t-135.5 307zM250 403q0 -77 32 -136t86 -93.5t118.5 -52t136.5 -17.5q160 0 258 70l-439 496q-90 -34 -141 -103.5t-51 -163.5z" />
<glyph unicode="'" horiz-adv-x="391" d="M102 1436v4v2q0 21 29 32t64 11l2 -2q92 0 92 -49l-53 -596h-80z" />
<glyph unicode="(" horiz-adv-x="665" d="M102 666q0 171 48 343t154.5 338t256.5 277l43 -80q-348 -365 -348 -885q0 -510 348 -872l-41 -80q-224 165 -342.5 429.5t-118.5 529.5z" />
<glyph unicode=")" horiz-adv-x="665" d="M61 -213q349 363 349 872q0 519 -349 885l41 80q224 -165 342.5 -429t118.5 -529q0 -171 -48 -343.5t-154.5 -338.5t-256.5 -277z" />
<glyph unicode="*" horiz-adv-x="813" d="M102 1020l265 94l-265 90l48 101l227 -142l-25 277h111l-25 -277l224 146l49 -99l-252 -98l252 -96l-47 -101l-226 146l25 -277h-111l25 277l-227 -141z" />
<glyph unicode="+" horiz-adv-x="1280" d="M102 584v131h469v475h136v-473h471v-131h-469v-477h-136v475h-471z" />
<glyph unicode="," horiz-adv-x="415" d="M51 -225l113 393h170l-174 -416z" />
<glyph unicode="-" horiz-adv-x="716" d="M102 637v141h512v-141h-512z" />
<glyph unicode="." horiz-adv-x="366" d="M82 80q0 43 29.5 72.5t70.5 29.5q43 0 73 -29.5t30 -70.5q0 -42 -29.5 -72t-71.5 -30q-43 0 -72.5 29.5t-29.5 70.5z" />
<glyph unicode="/" horiz-adv-x="933" d="M41 -92l700 1624h152l-698 -1624h-154z" />
<glyph unicode="0" horiz-adv-x="1253" d="M102 721q0 342 139 544.5t386 202.5q164 0 283.5 -93.5t180 -261t60.5 -390.5q0 -225 -61 -393t-180 -261.5t-283 -93.5t-283.5 93.5t-180.5 261.5t-61 391zM250 721q0 -283 96.5 -451t278.5 -168t280.5 170.5t98.5 450.5q0 185 -42 322.5t-128.5 216.5t-208.5 79 t-207.5 -80.5t-126.5 -218t-41 -321.5z" />
<glyph unicode="1" horiz-adv-x="757" d="M143 1130v107q260 10 279 203h131v-1440h-147v1161q-17 -14 -97 -22.5t-145 -8.5h-2h-2h-6h-11z" />
<glyph unicode="2" horiz-adv-x="1181" d="M102 0q0 68 28 135.5t68 120t102.5 111.5t113.5 98.5t120.5 92.5t104.5 83q50 42 83 72t70 71.5t58.5 79t36 85t14.5 98.5q0 139 -89 215.5t-237 76.5q-61 0 -116.5 -22t-93 -56.5t-63 -72.5t-36.5 -74l-116 70q49 121 163 201.5t267 80.5q217 0 343 -112.5t126 -304.5 q0 -153 -77 -267.5t-239 -242.5q-51 -41 -132.5 -103t-118.5 -92t-84 -71t-72 -73.5t-39 -66.5h745v-133h-930z" />
<glyph unicode="3" horiz-adv-x="1175" d="M82 295l121 78q31 -134 128 -201.5t228 -67.5q157 0 251.5 72.5t94.5 222.5q0 287 -358 287h-150v125h135q332 0 332 262q0 117 -78 191.5t-229 74.5q-122 0 -203 -65t-110 -160l-123 70q15 25 20.5 34t24 37.5t31 42.5t37 40t46 40.5t53.5 33.5t64 29t73.5 17.5 t86.5 7.5q94 0 174.5 -24t143 -70t98 -121t35.5 -170q0 -133 -65 -210t-195 -115q141 -15 223 -106t82 -240q0 -198 -134 -316.5t-364 -118.5q-172 0 -301 91q-119 82 -172 229z" />
<glyph unicode="4" horiz-adv-x="1257" d="M102 350v119l689 971h153v-963h211v-125h-211v-352h-135v350h-707zM260 477h547l2 766z" />
<glyph unicode="5" horiz-adv-x="1183" d="M102 244l107 86q123 -228 362 -228q172 0 268.5 101t96.5 276q0 161 -92 256.5t-252 95.5q-218 0 -305 -186l-133 37l36 760h795v-137h-666l-32 -482q48 58 128.5 95.5t190.5 37.5q221 0 348 -128t127 -343q0 -236 -138.5 -373t-373.5 -137q-151 0 -280.5 69.5 t-186.5 199.5z" />
<glyph unicode="6" horiz-adv-x="1224" d="M102 610q0 122 21 239.5t68.5 228.5t116.5 194t173 133.5t230 50.5q80 0 157.5 -23t120.5 -55l-67 -106q-3 1 -21 9t-26 11t-26.5 9.5t-32.5 9.5t-34 7.5t-40.5 6.5t-43.5 2q-88 1 -161.5 -36.5t-121.5 -96t-85 -139.5t-56 -156.5t-30 -157.5q145 185 403 185 q216 0 345.5 -128t129.5 -341q0 -225 -141.5 -353.5t-368.5 -128.5q-113 0 -203 38.5t-146 101t-93.5 147t-52.5 170.5t-15 178zM250 473q0 -37 10.5 -81.5t37.5 -97t66.5 -94.5t105 -70t146.5 -28q165 0 261.5 96.5t95.5 260.5q0 159 -95.5 249.5t-254.5 90.5 q-163 0 -268 -91t-105 -235z" />
<glyph unicode="7" horiz-adv-x="1134" d="M82 1303v139h930v-137q-237 -309 -353.5 -620t-138.5 -685h-149q17 336 152.5 678.5t350.5 624.5h-792z" />
<glyph unicode="8" horiz-adv-x="1243" d="M102 401q0 142 75 227.5t216 141.5q-106 38 -169.5 119t-63.5 192q0 169 123 277t340 108q219 0 343 -104.5t124 -271.5q0 -119 -65 -200t-173 -118q128 -39 208.5 -136t80.5 -237q0 -189 -137 -306.5t-379 -117.5q-127 0 -227.5 32.5t-164.5 90.5t-97.5 135t-33.5 168z M250 403q0 -134 98.5 -216.5t274.5 -82.5q179 0 274.5 81.5t95.5 211.5v4q1 138 -104.5 218.5t-267.5 80.5q-163 0 -267 -80t-104 -217zM303 1083q0 -109 88 -182.5t234 -73.5q148 0 234.5 73.5t84.5 182.5q-1 87 -48.5 146.5t-117.5 84.5t-155 25t-149 -22.5t-100 -60 t-53.5 -81t-17.5 -92.5z" />
<glyph unicode="9" horiz-adv-x="1224" d="M102 979q0 225 141.5 353t366.5 128q114 0 204 -38.5t146.5 -101t94 -147t52.5 -170.5t15 -178q0 -124 -19 -240t-63.5 -227.5t-111 -194t-168.5 -133t-228 -50.5q-80 0 -157.5 22.5t-122.5 54.5l67 107q5 -2 31 -13t40 -15.5t40 -12t54 -11t59 -3.5q88 -1 160 36.5 t117.5 95.5t79.5 139.5t51.5 156t27.5 157.5q-142 -184 -404 -184q-215 0 -344 127.5t-129 341.5zM250 977q1 -159 96 -249.5t254 -90.5q163 0 268 91t105 235h2q0 37 -10.5 81.5t-38 96.5t-67.5 94t-106 70t-147 28q-163 0 -260 -96t-96 -260z" />
<glyph unicode=":" horiz-adv-x="407" d="M102 80q0 42 30 72t71 30q43 0 72.5 -29.5t29.5 -72.5v2q0 -43 -29.5 -72.5t-70.5 -29.5q-43 0 -73 29.5t-30 70.5zM102 924q0 42 30 72t71 30q43 0 72.5 -29.5t29.5 -70.5q0 -43 -29.5 -73t-70.5 -30q-43 0 -73 30t-30 71z" />
<glyph unicode=";" horiz-adv-x="438" d="M51 -225l113 393h170l-174 -416zM133 924q0 43 30 72.5t73 29.5q41 0 70.5 -29.5t29.5 -70.5q0 -43 -29.5 -73t-70.5 -30q-43 0 -73 30t-30 71z" />
<glyph unicode="&#x3c;" horiz-adv-x="1112" d="M82 643v141l948 584v-162l-819 -489l819 -494v-162z" />
<glyph unicode="=" horiz-adv-x="1314" d="M102 381v133h1110v-133h-1110zM102 784v134h1110v-132z" />
<glyph unicode="&#x3e;" horiz-adv-x="1112" d="M82 59v162l819 492l-819 491v164l948 -582v-141z" />
<glyph unicode="?" horiz-adv-x="1050" d="M82 1186q85 155 191.5 216.5t265.5 61.5q193 0 311.5 -102.5t118.5 -271.5q0 -49 -7.5 -90.5t-25.5 -77.5t-36 -63t-51.5 -59t-59 -52.5t-70.5 -55.5q-45 -34 -71.5 -60.5t-43.5 -49t-24 -55t-9 -61t-2 -85.5l2 -16h-145q0 78 6 127t26.5 100t59.5 95.5t105 94.5 q7 6 35 26.5t35.5 27t30 25.5t29.5 28.5t23 28.5t21.5 34t14 36.5t11 44.5t2.5 50q0 105 -76 179.5t-214 74.5q-129 0 -201 -45t-131 -178zM399 76q0 42 30.5 72t72.5 30q41 0 70.5 -29.5t29.5 -72.5l2 2q0 -42 -30 -72.5t-72 -30.5q-41 0 -72 30t-31 71z" />
<glyph unicode="@" horiz-adv-x="1761" d="M123 598q0 173 63.5 331t174 274.5t267.5 185.5t335 69q202 0 357 -87t236.5 -235t81.5 -333q0 -248 -112 -411t-273 -163q-80 0 -126.5 35.5t-63.5 110.5q-49 -64 -110.5 -94.5t-149.5 -30.5q-112 0 -194.5 94.5t-82.5 239.5q0 88 38 182t99.5 170.5t148 126t175.5 49.5 q33 0 64.5 -6t66.5 -20.5t63.5 -43.5t45.5 -71l39 102h131q0 -10 -49.5 -171.5t-99.5 -317.5l-50 -156q-2 -6 -2 -18q0 -32 25.5 -59t56.5 -27l2 2q66 0 119 52t82 130.5t44 155t15 139.5q0 251 -159.5 406t-419.5 155q-153 0 -290 -59t-235.5 -160.5t-156.5 -244 t-58 -302.5q0 -198 90 -346t239 -222.5t333 -74.5q258 0 487 182l47 -78q-249 -198 -532 -198q-119 0 -230.5 30.5t-208 92t-168.5 148.5t-113.5 207t-41.5 259zM676 604q0 -116 41.5 -173.5t118.5 -57.5q83 0 161.5 73.5t120.5 186.5q35 92 35 176q0 75 -41 125.5 t-131 50.5q-74 0 -146.5 -63.5t-115.5 -152.5t-43 -165z" />
<glyph unicode="A" horiz-adv-x="1347" d="M61 0l543 1440h146l536 -1440h-158l-145 399h-618l-146 -399h-158zM412 528h526l-262 746z" />
<glyph unicode="B" horiz-adv-x="1304" d="M143 0v1440h562q92 0 167.5 -20t135 -61.5t92.5 -113t33 -166.5q0 -109 -56.5 -187t-175.5 -112q128 -29 209.5 -118.5t81.5 -245.5q0 -78 -17.5 -140t-46 -105t-73 -74.5t-91.5 -49.5t-109 -29t-117 -14.5t-124 -3.5h-471zM291 135h366q53 0 95 3.5t89 13t80.5 29 t62.5 48.5t43.5 75t14.5 106q0 82 -31 141.5t-85.5 92.5t-117.5 48t-138 15h-379v-572zM291 838h377q315 0 315 239q0 228 -297 228h-395v-467z" />
<glyph unicode="C" horiz-adv-x="1333" d="M102 719q0 158 41 294t116.5 238t192.5 160.5t261 58.5q197 0 332.5 -100t205.5 -270l-143 -56q-56 135 -156 214t-241 79q-112 0 -201 -51t-144 -138t-83.5 -196t-28.5 -231q0 -120 28.5 -229t83.5 -196.5t144 -139.5t201 -52q235 0 358 220l127 -82 q-77 -128 -198.5 -200.5t-284.5 -72.5q-123 0 -225.5 42t-172.5 114t-119 168.5t-71.5 203.5t-22.5 222z" />
<glyph unicode="D" horiz-adv-x="1333" d="M143 0v1440h424q326 0 495 -179t169 -534q0 -727 -682 -727h-406zM295 133h252q277 0 405.5 141t128.5 447h2q0 298 -128.5 440t-397.5 142l-262 2v-1172z" />
<glyph unicode="E" horiz-adv-x="1150" d="M143 0v1440h906v-135h-758v-484h571v-135h-571v-549h799v-137h-947z" />
<glyph unicode="F" horiz-adv-x="1079" d="M143 0v1440h895v-133h-749v-482h563v-133h-561v-692h-148z" />
<glyph unicode="G" horiz-adv-x="1413" d="M102 713q0 218 73.5 389t214.5 269.5t329 98.5q84 0 160.5 -22.5t134.5 -59t106 -85.5t79.5 -99t51.5 -102l-143 -53q-3 4 -8 14q-17 29 -27 46.5t-33 50t-42.5 53.5t-51 47.5t-62.5 41.5t-73.5 26t-87.5 11q-97 0 -177 -37t-133 -98.5t-89.5 -142.5t-53 -167t-16.5 -175 q0 -87 15.5 -172t51 -166.5t87.5 -142.5t130 -98.5t173 -37.5q114 0 217 71.5t163 181t60 220.5l-2 21h-401v137h563v-82q0 -104 -24.5 -203t-74.5 -186t-120 -152t-168 -103t-211 -38q-119 0 -220 41t-172 112t-121 166t-74 202.5t-24 222.5z" />
<glyph unicode="H" horiz-adv-x="1382" d="M143 0v1440h148v-631h801v631h147v-1440h-147v676h-801v-676h-148z" />
<glyph unicode="I" horiz-adv-x="436" d="M143 0v1440h150v-1440h-150z" />
<glyph unicode="J" horiz-adv-x="1062" d="M31 360l143 41q22 -148 91.5 -222.5t215.5 -74.5q287 0 287 379v957h152v-910q0 -137 -22.5 -236.5t-73 -174t-137.5 -111.5t-212 -37q-199 0 -301.5 95t-142.5 294z" />
<glyph unicode="K" horiz-adv-x="1296" d="M143 0v1440h150v-813l704 813h183l-494 -555l559 -885h-176l-481 774l-295 -336v-438h-150z" />
<glyph unicode="L" d="M143 0v1442h152v-1305h754v-137h-906z" />
<glyph unicode="M" horiz-adv-x="1552" d="M143 0v1440h172l463 -1149l457 1149h174v-1440h-152v1130l-460 -1130h-37l-467 1130v-1130h-150z" />
<glyph unicode="N" horiz-adv-x="1372" d="M143 0v1440h150l786 -1209v1209h150v-1440h-148l-788 1206v-1206h-150z" />
<glyph unicode="O" horiz-adv-x="1423" d="M102 719q0 158 41 294t116.5 238t192.5 160.5t261 58.5q122 0 223.5 -41t171.5 -111t119 -165t71.5 -202.5t22.5 -223.5t-22.5 -224t-70.5 -205.5t-118 -170t-172 -115.5t-225 -43t-225.5 42t-172.5 114t-119 168.5t-71.5 203.5t-22.5 222zM254 721q0 -120 28.5 -229 t83.5 -196.5t144 -139.5t201 -52q84 0 154.5 29t118.5 78.5t84 111.5t56.5 133t30.5 137.5t10 129.5h2q0 95 -17.5 183.5t-54.5 167t-89.5 137t-128.5 92.5t-166 34q-111 0 -200 -51t-144 -138t-84 -196t-29 -231z" />
<glyph unicode="P" horiz-adv-x="1226" d="M143 0v1440h514q93 0 166.5 -10t144 -37t116.5 -72t74 -119t28 -174q0 -97 -29.5 -171.5t-78 -121t-116.5 -75.5t-138 -40.5t-150 -11.5h-381v-608h-150zM291 739h383q364 0 364 287q0 73 -21.5 126t-54.5 83.5t-86.5 47.5t-105 22.5t-121.5 5.5h-358v-572z" />
<glyph unicode="Q" horiz-adv-x="1423" d="M102 719q0 158 41 294t116.5 238t192.5 160.5t261 58.5q121 0 222.5 -40.5t171.5 -110.5t119 -165t72 -202.5t23 -224.5h-2q0 -213 -75 -394t-222 -276l80 -114l-121 -86l-96 137q-95 -25 -172 -25q-123 0 -225.5 42t-172.5 114t-119 168.5t-71.5 203.5t-22.5 222z M254 721q0 -87 15 -171.5t50.5 -166t87 -143t130 -99t174.5 -37.5q25 0 90 9l-86 123l121 86l104 -148q79 57 132 157.5t73 198t20 193.5h2q0 95 -17.5 183.5t-54.5 167t-89.5 137t-128.5 92.5t-166 34q-96 0 -175 -37.5t-130.5 -98.5t-86.5 -142.5t-50 -166t-15 -171.5z " />
<glyph unicode="R" horiz-adv-x="1243" d="M143 0v1440h541q84 0 155.5 -12.5t136 -42.5t110 -76t72 -117t26.5 -162q0 -338 -385 -397l393 -633h-178l-381 627h-340v-627h-150zM291 756h381q49 0 88.5 3.5t83.5 13t76.5 29t60 48.5t41.5 75t14 105q0 81 -27 137.5t-77 86t-108.5 41.5t-133.5 12h-399v-551z" />
<glyph unicode="S" horiz-adv-x="1155" d="M102 279l109 86q52 -135 142 -201t233 -66q159 0 251.5 83t92.5 208q0 41 -18 77t-62.5 75.5t-127 80.5t-202.5 83q-214 75 -305.5 165.5t-91.5 227.5q0 93 37 165.5t102 116t147 66t177 22.5q76 0 143 -15.5t111.5 -36t87.5 -54.5t66 -57.5t53 -57.5q8 -10 12 -14 l-111 -92q-73 103 -157.5 150.5t-212.5 47.5q-137 0 -225.5 -61.5t-88.5 -171.5q0 -98 66 -154.5t264 -130.5q190 -71 292.5 -135t144.5 -135t42 -172q0 -127 -69 -222t-178.5 -141.5t-241.5 -46.5q-167 0 -290.5 78t-191.5 232z" />
<glyph unicode="T" horiz-adv-x="1107" d="M41 1305v135h1026v-135h-438v-1305h-150v1305h-438z" />
<glyph unicode="U" horiz-adv-x="1288" d="M113 678v762h149v-854q0 -88 9 -155t33.5 -130.5t66 -104.5t109.5 -65.5t161 -24.5t162 24.5t111.5 65.5t68 104t34.5 131t9 155v854h150v-760q0 -187 -27 -317t-89 -220t-164 -132t-251 -42q-150 0 -252 42t-164 131.5t-89 219t-27 316.5z" />
<glyph unicode="V" horiz-adv-x="1296" d="M61 1440h160l424 -1262l434 1262h156l-514 -1440h-150z" />
<glyph unicode="W" horiz-adv-x="1759" d="M61 1440h154l281 -1221l319 1221h133l326 -1221l274 1221h150l-350 -1440h-146l-321 1206l-320 -1206h-141z" />
<glyph unicode="X" horiz-adv-x="1294" d="M61 0l498 762l-442 678h178l354 -568l359 568h172l-445 -676l498 -764h-176l-408 653l-420 -653h-168z" />
<glyph unicode="Y" horiz-adv-x="1251" d="M31 1440h170l420 -719l428 719h172l-529 -856v-584h-145v582z" />
<glyph unicode="Z" horiz-adv-x="1191" d="M72 0v115l872 1188h-825v137h1001v-123l-866 -1186h860v-131h-1042z" />
<glyph unicode="[" horiz-adv-x="598" d="M143 -260v1847h373v-117h-235v-1613h235v-117h-373z" />
<glyph unicode="\" horiz-adv-x="913" d="M31 1532h153l699 -1624h-152z" />
<glyph unicode="]" horiz-adv-x="598" d="M82 -143h235v1613h-235v117h373v-1847h-373v117z" />
<glyph unicode="^" horiz-adv-x="1189" d="M143 750l394 690h120l390 -690h-166l-285 522l-289 -522h-164z" />
<glyph unicode="_" horiz-adv-x="1024" d="M-10 -168h1044v-117h-1044v117z" />
<glyph unicode="`" horiz-adv-x="731" d="M143 1489h224l221 -307l-115 -2z" />
<glyph unicode="a" d="M102 285q0 78 29 140t76.5 102t111.5 67t131 38t138 11q43 0 98 -8t80 -19v84q0 111 -53.5 169.5t-177.5 58.5q-104 0 -159 -35t-114 -125l-98 76q49 100 151 153.5t220 53.5q151 0 261.5 -83t110.5 -227v-604q0 -21 15.5 -33t40.5 -12h24v-92h-110q-52 0 -81.5 26.5 t-29.5 69.5v54q-116 -170 -338 -170q-152 0 -239 83.5t-87 221.5zM242 291q0 -89 52.5 -141t149.5 -52q111 0 204 70.5t118 165.5v137q-44 55 -182 55q-140 0 -241 -68t-101 -167z" />
<glyph unicode="b" horiz-adv-x="1087" d="M143 0v1440h140v-555q112 164 307 164q181 0 288 -144t107 -391q0 -154 -44.5 -273.5t-137 -191.5t-221.5 -72q-59 0 -109 15t-86.5 43.5t-58 51t-45.5 54.5v-141h-140zM283 305q48 -102 125 -152.5t159 -50.5q273 0 273 416q0 194 -74 300t-205 106q-111 0 -185.5 -78.5 t-92.5 -194.5v-346z" />
<glyph unicode="c" horiz-adv-x="1007" d="M102 508q0 131 37.5 236t102 170.5t148 100t177.5 34.5q116 0 198 -46.5t161 -142.5l-107 -74q-91 138 -260 138q-135 0 -222 -109t-87 -299q0 -64 10.5 -123t34 -113t58 -93.5t87 -63t117.5 -23.5q157 0 254 140l113 -66q-70 -101 -160 -150t-211 -49q-205 0 -328 148 t-123 385z" />
<glyph unicode="d" horiz-adv-x="1087" d="M102 514q0 246 107.5 390.5t288.5 144.5q195 0 307 -164v555h139v-1440h-139v141q-24 -32 -45.5 -54.5t-58 -51t-86.5 -43.5t-109 -15q-129 0 -222 72t-137.5 191.5t-44.5 273.5zM248 518q0 -61 6 -114t23.5 -110.5t46.5 -98t79.5 -67t116.5 -26.5q82 0 159.5 50.5 t125.5 152.5v346q-20 117 -94 195t-185 78q-131 0 -204.5 -106.5t-73.5 -299.5z" />
<glyph unicode="e" horiz-adv-x="1077" d="M102 518q0 243 128 387t319 144q109 0 194.5 -42.5t137 -115.5t78 -165.5t26.5 -197.5q0 -17 -4 -45h-731q2 -74 20 -140t54 -121t97 -87.5t140 -32.5q92 0 164.5 34.5t138.5 119.5l97 -74q-144 -207 -408 -207q-200 0 -325.5 144.5t-125.5 398.5zM252 600h590 q-6 69 -25.5 125.5t-54 102t-89.5 71t-126 25.5q-122 0 -201 -85t-94 -239z" />
<glyph unicode="f" horiz-adv-x="688" d="M72 905v121h168v172q0 123 60 193.5t181 70.5q86 0 127 -41v-147q-30 67 -102 67q-61 0 -94 -36.5t-33 -98.5v-180h237v-121h-237v-905h-139v905h-168z" />
<glyph unicode="g" horiz-adv-x="1107" d="M102 508q0 156 47 277t142 192.5t227 71.5q106 0 183 -45.5t122 -120.5v143h142v-989q0 -206 -128.5 -344.5t-318.5 -138.5q-77 0 -138 16.5t-104.5 47.5t-70.5 60t-55 70l106 82q38 -66 104 -107.5t150 -41.5q70 0 126.5 26.5t90 65.5t56 89.5t31 94t9.5 82.5v111 q-101 -173 -315 -173q-190 0 -298 148.5t-108 382.5zM244 510q0 -194 74 -301t212 -107q129 0 203 70q22 20 51 61q6 9 19 29t20 29v371q-18 112 -99 188t-192 76q-145 0 -216.5 -110.5t-71.5 -305.5z" />
<glyph unicode="h" horiz-adv-x="1069" d="M143 0v1440h142v-549q45 76 122.5 117t172.5 41q85 0 148.5 -24t102.5 -63t63 -98t33 -121t9 -139v-604h-141v580q0 60 -3.5 102.5t-17.5 91t-38.5 78.5t-70 50t-108.5 20q-69 0 -120 -24t-79.5 -60.5t-45.5 -92t-22 -105.5t-5 -114v-526h-142z" />
<glyph unicode="i" horiz-adv-x="475" d="M143 1372q0 38 28.5 66t66.5 28t66 -28t28 -66q0 -39 -27.5 -66.5t-66.5 -27.5t-67 27.5t-28 66.5zM168 0v1026h141v-1026h-141z" />
<glyph unicode="j" horiz-adv-x="460" d="M-82 -393l43 112q17 -14 42.5 -24t43.5 -10q54 0 80.5 34.5t26.5 114.5v1194h141v-1227q0 -106 -64 -171.5t-168 -65.5q-49 0 -79.5 10.5t-65.5 32.5zM131 1372q0 39 27.5 66.5t66.5 27.5q38 0 65 -28t27 -66q0 -40 -27 -67t-65 -27q-40 0 -67 27t-27 67z" />
<glyph unicode="k" horiz-adv-x="1013" d="M143 0v1440h142v-946l469 532h168l-349 -385l390 -641h-162l-322 532l-194 -223v-309h-142z" />
<glyph unicode="l" horiz-adv-x="430" d="M143 0v1440h144v-1440h-144z" />
<glyph unicode="m" horiz-adv-x="1624" d="M143 0v1026h142v-154q21 51 56 88t75 54.5t75.5 25t69.5 7.5q103 0 180.5 -52.5t102.5 -154.5q49 105 122.5 156t190.5 51q175 0 249.5 -108.5t74.5 -371.5v-567h-144v578q0 189 -44 266.5t-160 77.5q-129 0 -189.5 -107.5t-60.5 -296.5v-518h-142v584q0 174 -46 256 t-160 82q-137 0 -193.5 -102.5t-56.5 -309.5v-510h-142z" />
<glyph unicode="n" horiz-adv-x="1079" d="M143 0v1026h142v-145q40 73 115.5 119.5t181.5 46.5q189 0 271.5 -116.5t82.5 -350.5v-580h-141v567q0 193 -56.5 274t-181.5 81q-145 0 -208.5 -97.5t-63.5 -296.5v-528h-142z" />
<glyph unicode="o" horiz-adv-x="1114" d="M102 506q0 155 53 277.5t158 194t246 71.5q211 0 332 -147t121 -384v-7q0 -103 -28 -196q-28 -96 -83 -172.5t-144.5 -122t-201.5 -45.5q-205 0 -329 145.5t-124 385.5zM250 508q0 -201 84.5 -304.5t222.5 -103.5q147 0 228 109t81 301v12q0 48 -7 96q-8 54 -29.5 111 t-54.5 99.5t-89 70t-127 27.5q-68 0 -122.5 -24.5t-88.5 -64t-57 -95t-32 -113t-9 -121.5z" />
<glyph unicode="p" horiz-adv-x="1087" d="M143 -410v1436h142v-139q109 162 303 162q79 0 144 -27.5t111.5 -75.5t78.5 -115t47.5 -145t15.5 -166q0 -244 -111.5 -394.5t-293.5 -150.5q-193 0 -295 158v-543h-142zM283 299q34 -90 112 -142.5t168 -52.5q74 0 129 34t87 93.5t47.5 133t15.5 161.5 q0 183 -73.5 289.5t-209.5 106.5q-53 0 -97.5 -20t-71 -46t-50.5 -68.5t-34 -68.5t-23 -66v-354z" />
<glyph unicode="q" horiz-adv-x="1087" d="M102 506q0 99 22.5 191t68.5 173t128 130t189 49q85 0 165.5 -37t129.5 -117v131h139v-1436h-139v551q-49 -77 -128 -121.5t-179 -44.5q-179 0 -287.5 143t-108.5 388zM246 510q0 -185 75 -295.5t207 -110.5q111 0 182 78t95 195v385q-41 56 -119 107t-162 51 q-136 0 -207 -108t-71 -302z" />
<glyph unicode="r" horiz-adv-x="753" d="M143 0v1026h142v-145q40 74 114.5 120t180.5 46q78 0 143 -21l-53 -125q-68 21 -121 21q-71 0 -124 -33.5t-82.5 -91t-43.5 -125t-14 -144.5v-528h-142z" />
<glyph unicode="s" horiz-adv-x="899" d="M102 180l105 80q88 -158 260 -158q110 0 161.5 46t51.5 120q0 33 -11 58t-41.5 52.5t-89 53.5t-149.5 55q-274 87 -274 289q0 118 90 196.5t246 78.5q107 0 191.5 -41t162.5 -129l-105 -74q-104 121 -251 121q-92 0 -144.5 -38.5t-52.5 -107.5q0 -62 46.5 -100t170.5 -80 q190 -64 269 -139t79 -189q0 -131 -95 -214t-257 -83q-241 0 -363 203z" />
<glyph unicode="t" horiz-adv-x="729" d="M92 905v121h168v414h139v-414h238v-121h-238v-678q0 -67 21.5 -94t68.5 -27q56 0 140 50v-133q-82 -43 -178 -43q-52 0 -88 15t-56 36.5t-31 59.5t-13.5 71.5t-2.5 83.5v659h-168z" />
<glyph unicode="u" horiz-adv-x="1058" d="M123 459v567h141v-567q0 -189 56.5 -272t177.5 -83q276 0 276 394v528h141v-1026h-141v145q-96 -168 -299 -168q-191 0 -271.5 120.5t-80.5 361.5z" />
<glyph unicode="v" horiz-adv-x="983" d="M61 1026h148l276 -836l293 836h144l-379 -1026h-121z" />
<glyph unicode="w" horiz-adv-x="1437" d="M61 1026h142l227 -815l232 815h124l232 -815l217 815h141l-297 -1026h-125l-231 827l-231 -827h-123z" />
<glyph unicode="x" horiz-adv-x="964" d="M61 0l345 530l-320 496h162l237 -379l242 379h150l-320 -494l346 -532h-160l-262 420l-268 -420h-152z" />
<glyph unicode="y" horiz-adv-x="1007" d="M61 1026h144l289 -852l305 852h147l-495 -1302q-26 -71 -80.5 -110.5t-122.5 -39.5q-20 0 -82 23v108q43 -16 78 -16q32 0 52.5 18t37.5 62l88 233z" />
<glyph unicode="z" horiz-adv-x="839" d="M51 0v96l553 811h-508v119h686v-94l-553 -809h559v-123h-737z" />
<glyph unicode="{" horiz-adv-x="749" d="M143 633v106q83 25 118.5 85.5t35.5 154.5v180q0 107 17 181.5t58.5 130.5t114 84.5t181.5 33.5v-98q-138 -25 -185 -94.5t-47 -220.5v-195q0 -86 -9 -137.5t-41 -93.5t-93 -66q39 -15 66.5 -38.5t42.5 -49t23.5 -61t10.5 -65.5t2 -71v-4l-2 -248q0 -150 48 -218t184 -95 v-100q-108 7 -178 32.5t-113 77t-60.5 124.5t-17.5 182v233q0 94 -36.5 155.5t-119.5 94.5z" />
<glyph unicode="|" horiz-adv-x="364" d="M-102 -444l432 2031h137l-432 -2031h-137z" />
<glyph unicode="}" horiz-adv-x="749" d="M82 -168q136 29 183.5 97t45.5 218v248v4q0 52 4.5 89t18.5 78t44.5 70.5t78.5 47.5q-45 18 -74.5 46t-44 68t-20 82t-5.5 101v195q0 76 -9.5 126t-35 90t-70.5 63t-116 36v98q109 -5 181 -33.5t113.5 -84.5t58 -130t16.5 -182v-180q0 -194 155 -240v-106 q-83 -33 -119 -94t-36 -156v-231q0 -218 -79.5 -311.5t-289.5 -106.5v98z" />
<glyph unicode="~" horiz-adv-x="1236" d="M143 616q44 98 108.5 155.5t164.5 57.5q37 0 75.5 -11t64.5 -23t71 -37q6 -2 31.5 -17t29.5 -16q79 -43 127 -43q59 0 98 35.5t80 109.5q21 -18 34.5 -29.5t26 -22t40.5 -34.5q-56 -104 -121.5 -156.5t-157.5 -52.5q-48 0 -87 15t-107 51q-4 2 -27 15t-27 14 q-93 53 -149 53q-55 0 -88 -31t-84 -119z" />
<glyph unicode="&#xa1;" horiz-adv-x="489" d="M143 954q0 43 30 73t71 30q42 0 72 -29.5t30 -71.5q0 -43 -29.5 -72.5t-70.5 -29.5q-43 0 -73 29.5t-30 70.5zM176 342l27 322h92l24 -322v-752h-143v752z" />
<glyph unicode="&#xa2;" horiz-adv-x="985" d="M102 655q0 97 23 184t68.5 161.5t122.5 125t176 66.5v248h133v-246q96 -11 163.5 -55.5t135.5 -126.5l-103 -72q-90 137 -260 137q-81 0 -143.5 -36t-99 -96t-54.5 -131t-18 -148q0 -82 17 -154t52.5 -132.5t97.5 -96t144 -35.5q54 0 100.5 14t73.5 34t47 40.5t28 34.5 l7 14l109 -63q-5 -7 -13.5 -19t-37.5 -43t-61 -56t-81.5 -47.5t-101.5 -27.5v-240h-135v240q-98 13 -174.5 61.5t-122.5 121.5t-69.5 160t-23.5 183z" />
<glyph unicode="&#xa3;" horiz-adv-x="1189" d="M143 0v1090q0 168 119 271t311 103q126 0 217 -36.5t164 -124.5l-116 -86q-47 56 -106.5 76t-151.5 20q-138 0 -210.5 -72.5t-72.5 -177.5v-152h453v-139h-453v-635h459q81 0 141.5 51t60.5 131q0 60 -40 112t-91 79l70 117q71 -27 136 -116.5t65 -188.5 q0 -145 -90 -233.5t-236 -88.5h-629z" />
<glyph unicode="&#xa4;" horiz-adv-x="1406" d="M0 508l41 131h158q-2 27 -2 80q0 41 2 59h-199l41 133h172q22 122 71 223.5t123 176.5t176.5 117t223.5 42q197 0 333 -100t206 -270l-144 -56q-56 135 -156 214t-241 79q-176 0 -287 -118t-149 -308h536l-45 -131h-510v-59q0 -55 2 -82h553l-45 -131h-487 q43 -180 152.5 -292t279.5 -112q235 0 358 220l127 -82q-77 -128 -198.5 -200.5t-284.5 -72.5q-124 0 -227 42.5t-174.5 117.5t-118.5 170.5t-70 208.5h-217z" />
<glyph unicode="&#xa5;" horiz-adv-x="1292" d="M51 1440h170l420 -719l428 719h172l-438 -709h244v-104h-308l-26 -43v-154h334v-104h-334v-326h-148v326h-327v104h327v152l-26 45h-301v104h239z" />
<glyph unicode="&#xa6;" horiz-adv-x="555" d="M205 0v561h145v-561h-145zM205 877v563h145v-563h-145z" />
<glyph unicode="&#xa7;" horiz-adv-x="1169" d="M102 670q0 106 65 196t181 142q-129 88 -129 223q0 126 99 212.5t262 86.5q109 0 202 -41.5t189 -120.5l-94 -104q-152 133 -312 133q-90 0 -144 -44.5t-54 -113.5q0 -36 17.5 -66.5t41.5 -50.5t62 -38.5t66 -29t66 -22.5q13 -4 19 -6q119 -39 195 -73.5t131 -80 t78.5 -101.5t23.5 -132q0 -110 -63 -197t-173 -141q28 -19 48.5 -37t43.5 -46.5t35.5 -67t12.5 -84.5q0 -139 -106.5 -228.5t-280.5 -89.5q-234 0 -432 174l96 105q164 -144 348 -144q108 0 168.5 50t60.5 124q0 72 -58 117t-214 98q-124 42 -205 79.5t-138.5 84.5 t-82.5 103t-25 131zM248 678q0 -39 27.5 -76.5t65.5 -65t97 -57t102 -46.5t102 -39t77 -29q81 41 142 111t61 151h2q0 98 -76 153q-24 18 -60.5 36.5t-84 37.5t-81 31t-88.5 31t-69 24q-101 -45 -159 -113.5t-58 -148.5z" />
<glyph unicode="&#xa8;" horiz-adv-x="720" d="M102 1309q0 35 24.5 59.5t59.5 24.5t59.5 -24.5t24.5 -59.5t-24.5 -59.5t-59.5 -24.5t-59.5 24.5t-24.5 59.5zM451 1309q0 35 25 59.5t59 24.5q35 0 59 -24.5t24 -59.5t-24 -59.5t-59 -24.5q-34 0 -59 24.5t-25 59.5z" />
<glyph unicode="&#xa9;" horiz-adv-x="1714" d="M123 719q0 157 57 294t155 233.5t234 152t289 55.5t288 -55t233 -151.5t155 -233.5t57 -295q0 -154 -55.5 -289.5t-152.5 -233t-234 -154t-293 -56.5q-149 0 -283 54t-233.5 148.5t-158 232.5t-58.5 298zM205 719q0 -183 85.5 -332.5t235 -235t332.5 -85.5 q177 0 324.5 81.5t236 232t88.5 339.5l2 -2q0 183 -84 333.5t-233.5 237t-333.5 86.5q-181 0 -330.5 -84.5t-236 -235t-86.5 -335.5zM457 719q0 192 115.5 322t293.5 130q199 0 328 -163l-86 -74q-48 60 -103.5 94.5t-136.5 34.5q-127 0 -212 -96t-85 -242q0 -152 86 -249 t209 -97q141 0 248 133l82 -74l2 2q-131 -170 -336 -170q-170 0 -287.5 126.5t-117.5 322.5z" />
<glyph unicode="&#xaa;" horiz-adv-x="798" d="M102 989q0 57 28.5 101.5t76 70t101.5 38.5t112 13t104 -12v35q0 64 -31 91.5t-98 27.5t-102 -21.5t-70 -79.5l-88 64q49 74 112 105.5t159 31.5q56 0 108.5 -17t91.5 -59t39 -102v-369q0 -20 25 -20h26v-86h-82q-38 0 -61.5 17t-26.5 48q-78 -78 -198 -78 q-97 0 -161.5 52.5t-64.5 148.5zM221 985q0 -49 30.5 -72.5t80.5 -23.5q68 0 125.5 37t66.5 80v81q-21 27 -82 27q-32 0 -67.5 -6.5t-71 -20.5t-59 -40.5t-23.5 -61.5z" />
<glyph unicode="&#xab;" horiz-adv-x="1005" d="M92 584l328 460l137 -30l-309 -428l309 -414l-135 -33zM449 584l329 460l135 -30l-309 -428l309 -414l-135 -33z" />
<glyph unicode="&#xac;" horiz-adv-x="1314" d="M82 575v140h1130v-471h-139v331h-991z" />
<glyph unicode="&#xad;" horiz-adv-x="716" d="M102 637v141h512v-141h-512z" />
<glyph unicode="&#xae;" horiz-adv-x="1716" d="M123 719q0 210 98.5 379.5t265.5 262.5t369 93q156 0 293 -56t234.5 -153.5t153.5 -234t56 -291.5h-2q0 -156 -56.5 -292.5t-154 -233t-233.5 -152t-291 -55.5q-149 0 -283 54t-233.5 148.5t-158 232.5t-58.5 298zM205 721q0 -185 87 -335.5t236 -235t328 -84.5 q136 0 257 49.5t207.5 136t137 208t51.5 259.5q0 184 -84.5 334t-233 235.5t-331.5 85.5t-333 -85t-236 -234.5t-86 -333.5zM578 295v866h305q309 0 309 -231q0 -92 -54.5 -149.5t-144.5 -75.5q43 -16 80.5 -94t72 -184t46.5 -132h-139q-12 25 -28.5 78.5t-32.5 102t-39 97 t-57 78t-77 29.5h-121v-385h-120zM698 782h181q190 0 190 142q0 43 -16 72t-47 42.5t-62 18t-74 4.5h-172v-279z" />
<glyph unicode="&#xaf;" horiz-adv-x="804" d="M143 1229v137h519v-137h-519z" />
<glyph unicode="&#xb0;" horiz-adv-x="888" d="M102 1147q0 146 98.5 247t243.5 101q146 0 244 -100.5t98 -245.5q0 -148 -98 -249t-244 -101q-145 0 -243.5 101t-98.5 247zM231 1149q0 -97 60.5 -161t152.5 -64t152.5 63.5t60.5 161.5v-2q0 95 -60 159t-153 64q-92 0 -152.5 -63.5t-60.5 -157.5z" />
<glyph unicode="&#xb2;" horiz-adv-x="968" d="M125 414q0 132 107 255.5t343 291.5q63 43 95 97.5t32 108.5q0 71 -57.5 117.5t-159.5 46.5q-92 0 -154 -41t-87 -114l-117 63q41 104 143 160.5t228 56.5q146 0 244 -81.5t98 -219.5q0 -101 -59 -181t-201 -175q-96 -65 -173 -138.5t-94 -117.5h533v-129h-721z" />
<glyph unicode="&#xb3;" horiz-adv-x="995" d="M98 645l115 64q32 -86 93.5 -135.5t176.5 -49.5q117 0 180.5 49t63.5 132t-57.5 131.5t-171.5 48.5h-156v123h131q108 0 164.5 46.5t56.5 112.5t-53.5 115t-142.5 49q-74 0 -126 -24t-77 -55.5t-43 -77.5l-119 61q86 219 367 219q162 0 252 -75.5t90 -200.5 q0 -72 -33.5 -133t-97.5 -91q72 -29 115.5 -101t43.5 -157q0 -45 -13 -87.5t-42.5 -81.5t-72.5 -68t-107.5 -46.5t-142.5 -17.5q-154 0 -258 73.5t-136 176.5z" />
<glyph unicode="&#xb4;" horiz-adv-x="649" d="M102 1180l220 309h225l-330 -309h-115z" />
<glyph unicode="&#xb6;" horiz-adv-x="1265" d="M123 1026q0 170 122 292t292 122h585v-115h-35v-1735h-124v1735h-254v-1735h-127v1020h-45q-170 0 -292 122t-122 294z" />
<glyph unicode="&#xb7;" horiz-adv-x="448" d="M123 723q0 43 29.5 72.5t70.5 29.5q43 0 73 -29.5t30 -70.5q0 -43 -30 -72.5t-71 -29.5q-43 0 -72.5 29.5t-29.5 70.5z" />
<glyph unicode="&#xb8;" horiz-adv-x="671" d="M143 -381l19 59q64 -28 127 -28q39 0 66 9t39.5 23.5t17 26.5t4.5 25q0 31 -22 51t-60 20q-47 0 -78 -24q-61 14 -63 14l102 217h72l-72 -143q45 18 92 18q57 0 99 -35t42 -100q0 -85 -63.5 -129.5t-161.5 -44.5q-67 0 -160 41z" />
<glyph unicode="&#xb9;" horiz-adv-x="612" d="M98 1190v110q45 1 76 6t62.5 18.5t50 42.5t24.5 73h131l-2 -1026h-145v788q-64 -12 -160 -12h-37z" />
<glyph unicode="&#xba;" horiz-adv-x="811" d="M102 1133q0 147 83 237t218 90q141 0 222.5 -91.5t83.5 -233.5q0 -63 -18.5 -120.5t-54 -104.5t-95.5 -75t-135 -28q-139 0 -221.5 92t-82.5 234zM225 1126q0 -96 42.5 -157.5t133.5 -61.5q86 0 135.5 61t49.5 167v2q0 94 -42.5 158.5t-133.5 64.5q-59 0 -99 -25.5 t-57 -67t-23 -74t-6 -67.5z" />
<glyph unicode="&#xbb;" horiz-adv-x="1005" d="M92 170l309 428l-309 414l135 32l328 -444l-328 -461zM449 170l309 428l-309 414l135 32l329 -444l-327 -461z" />
<glyph unicode="&#xbc;" horiz-adv-x="1941" d="M98 1190v110q45 1 76 6t62.5 18.5t50 42.5t24.5 73h131l-2 -1026h-145v788q-64 -12 -160 -12h-37zM420 -23l807 1506l116 -21l-804 -1503zM1008 242v96l536 688h146v-661h157v-123h-157l-2 -242h-140v242h-540zM1200 365h348v444z" />
<glyph unicode="&#xbd;" horiz-adv-x="2027" d="M98 1190v110q45 1 76 6t62.5 18.5t50 42.5t24.5 73h131l-2 -1026h-145v788q-64 -12 -160 -12h-37zM420 -23l807 1506l116 -21l-806 -1503zM1190 0q0 133 107.5 257t342.5 290q62 43 94.5 98.5t32.5 110.5q0 69 -57.5 116.5t-159.5 47.5q-92 0 -154 -41.5t-89 -116.5 l-115 63q41 105 143 162t228 57q146 0 244 -82.5t98 -220.5q0 -101 -59 -180t-201 -174q-97 -65 -173.5 -139t-93.5 -119h533v-129h-721z" />
<glyph unicode="&#xbe;" horiz-adv-x="2277" d="M98 645l115 64q32 -86 93.5 -135.5t176.5 -49.5q117 0 180.5 49t63.5 132t-57.5 131.5t-171.5 48.5h-156v123h131q108 0 164.5 46.5t56.5 112.5t-53.5 115t-142.5 49q-74 0 -126 -24t-77 -55.5t-43 -77.5l-119 61q86 219 367 219q162 0 252 -75.5t90 -200.5 q0 -72 -33.5 -133t-97.5 -91q72 -29 115.5 -101t43.5 -157q0 -45 -13 -87.5t-42.5 -81.5t-72.5 -68t-107.5 -46.5t-142.5 -17.5q-154 0 -258 73.5t-136 176.5zM758 -23l807 1506l116 -21l-804 -1503zM1346 242v96l536 688h146v-661h157v-123h-157v-242h-142v242h-540z M1538 365h348v444z" />
<glyph unicode="&#xbf;" horiz-adv-x="1050" d="M82 -61q0 59 13 108.5t31 84.5t55.5 74.5t66.5 63.5t84 66q28 22 48.5 39t36.5 36.5t26 32.5t17.5 35t11 35.5t5.5 43t2 47.5v59h146q0 -78 -6 -127t-26.5 -100.5t-59.5 -96t-105 -94.5q-8 -7 -35 -27t-35.5 -27t-30 -25t-29.5 -28t-23.5 -29t-21.5 -34.5t-14 -36.5 t-11 -44t-3 -50q0 -104 76.5 -179t214.5 -75q129 0 201 45t131 178l121 -72q-85 -155 -191.5 -216.5t-265.5 -61.5q-193 0 -311.5 102.5t-118.5 272.5zM446 950q0 42 30.5 72.5t72.5 30.5q41 0 71.5 -30t30.5 -71q0 -42 -30 -72t-72 -30t-72.5 29.5t-30.5 70.5z" />
<glyph unicode="&#xc0;" horiz-adv-x="1347" d="M61 0l543 1440h146l536 -1440h-158l-145 399h-618l-146 -399h-158zM315 1872h224l221 -307h-115zM412 528h526l-262 746z" />
<glyph unicode="&#xc1;" horiz-adv-x="1347" d="M61 0l543 1440h146l536 -1440h-158l-145 399h-618l-146 -399h-158zM412 528h526l-262 746zM602 1565l219 307h223l-327 -307h-115z" />
<glyph unicode="&#xc2;" horiz-adv-x="1347" d="M61 0l543 1440h146l536 -1440h-158l-145 399h-618l-146 -399h-158zM356 1597l258 306h113l264 -306h-121l-202 172l-195 -172h-117zM412 528h526l-262 746z" />
<glyph unicode="&#xc3;" horiz-adv-x="1347" d="M61 0l543 1440h146l536 -1440h-158l-145 399h-618l-146 -399h-158zM332 1608q8 92 62.5 156.5t137.5 64.5q79 0 152 -51q57 -39 84.5 -52.5t52.5 -13.5q66 0 90 113l105 -10q-14 -102 -67.5 -164t-133.5 -62q-71 0 -156 56q-67 43 -88.5 54t-46.5 11q-62 0 -86 -113z M412 528h526l-262 746z" />
<glyph unicode="&#xc4;" horiz-adv-x="1347" d="M61 0l543 1440h146l536 -1440h-158l-145 399h-618l-146 -399h-158zM412 528h526l-262 746zM416 1661q0 35 24.5 59.5t59.5 24.5t59.5 -24.5t24.5 -59.5q0 -34 -24.5 -59t-59.5 -25t-59.5 25t-24.5 59zM764 1661q0 35 25 59.5t59 24.5q35 0 59.5 -24.5t24.5 -59.5 q0 -34 -24.5 -59t-59.5 -25q-34 0 -59 25t-25 59z" />
<glyph unicode="&#xc5;" horiz-adv-x="1347" d="M61 0l543 1440h146l536 -1440h-158l-145 399h-618l-146 -399h-158zM412 528h526l-262 746zM473 1708q0 84 57.5 141.5t143.5 57.5t143 -57.5t57 -141.5q0 -85 -57 -143t-143 -58t-143.5 58t-57.5 143zM559 1708q0 -51 32 -84t83 -33t82.5 33t31.5 84q0 50 -31.5 82.5 t-82.5 32.5t-83 -32.5t-32 -82.5z" />
<glyph unicode="&#xc6;" horiz-adv-x="2066" d="M61 0l945 1440h954v-135h-778v-486h587v-135h-587v-549h813v-135h-957v393h-551l-251 -393h-175zM573 528h465v734h2q-64 -108 -145 -235.5t-178 -276t-144 -222.5z" />
<glyph unicode="&#xc7;" horiz-adv-x="1333" d="M102 719q0 158 41 294t116.5 238t192.5 160.5t261 58.5q197 0 332.5 -100t205.5 -270l-143 -56q-56 135 -156 214t-241 79q-112 0 -201 -51t-144 -138t-83.5 -196t-28.5 -231q0 -120 28.5 -229t83.5 -196.5t144 -139.5t201 -52q235 0 358 220l127 -82q-74 -123 -191 -195 t-274 -76l-29 -71q45 18 86 18q57 0 99.5 -36t42.5 -101q0 -85 -64 -129.5t-161 -44.5q-66 0 -162 41l20 61q64 -31 127 -31q72 0 99.5 27t27.5 57q0 32 -22.5 53t-61.5 21q-43 0 -71 -22l-62 12l57 147q-112 9 -204.5 55t-156.5 117.5t-108.5 165t-65 196.5t-20.5 212z" />
<glyph unicode="&#xc8;" horiz-adv-x="1150" d="M143 0v1440h906v-135h-758v-484h571v-135h-571v-549h799v-137h-947zM285 1872h223l221 -307h-115z" />
<glyph unicode="&#xc9;" horiz-adv-x="1150" d="M143 0v1440h906v-135h-758v-484h571v-135h-571v-549h799v-137h-947zM530 1565l220 307h223l-328 -307h-115z" />
<glyph unicode="&#xca;" horiz-adv-x="1150" d="M143 0v1440h906v-135h-758v-484h571v-135h-571v-549h799v-137h-947zM305 1597l258 306h113l264 -306h-121l-203 172l-194 -172h-117z" />
<glyph unicode="&#xcb;" horiz-adv-x="1150" d="M143 0v1440h906v-135h-758v-484h571v-135h-571v-549h799v-137h-947zM385 1661q0 35 24.5 59.5t59.5 24.5t59.5 -24.5t24.5 -59.5q0 -34 -24.5 -59t-59.5 -25t-59.5 25t-24.5 59zM733 1661q0 35 25 59.5t59 24.5q35 0 59.5 -24.5t24.5 -59.5q0 -34 -24.5 -59t-59.5 -25 q-34 0 -59 25t-25 59z" />
<glyph unicode="&#xcc;" horiz-adv-x="436" d="M-145 1872h223l219 -307h-115zM143 0v1440h150v-1440h-150z" />
<glyph unicode="&#xcd;" horiz-adv-x="436" d="M135 1565l219 307h224l-328 -307h-115zM143 0v1440h150v-1440h-150z" />
<glyph unicode="&#xce;" horiz-adv-x="436" d="M-98 1597l256 306h112l265 -306h-119l-205 172l-195 -172h-114zM143 0v1440h148v-1440h-148z" />
<glyph unicode="&#xcf;" horiz-adv-x="436" d="M-41 1661q0 35 25 59.5t59 24.5q35 0 59.5 -24.5t24.5 -59.5q0 -34 -24.5 -59t-59.5 -25q-34 0 -59 25t-25 59zM143 0v1440h150v-1440h-150zM309 1661q0 35 24.5 59.5t59.5 24.5q34 0 59 -24.5t25 -59.5q0 -34 -25 -59t-59 -25q-35 0 -59.5 25t-24.5 59z" />
<glyph unicode="&#xd0;" horiz-adv-x="1388" d="M41 698v127h145v615h383q234 0 369 -62q153 -71 244.5 -241t91.5 -410q0 -202 -63.5 -356.5t-178.5 -245.5q-90 -73 -201 -99t-280 -26h-363v698h-147zM334 133h217q232 0 346 66q103 60 165 194t62 326q0 187 -64.5 328.5t-182.5 203.5q-57 30 -128.5 42t-181.5 12h-233 v-480h373v-127h-373v-565z" />
<glyph unicode="&#xd1;" horiz-adv-x="1372" d="M143 0v1440h150l786 -1209v1209h150v-1440h-148l-788 1206v-1206h-150zM340 1608q8 92 62.5 156.5t138.5 64.5q78 0 151 -51q57 -39 84.5 -52.5t52.5 -13.5q68 0 89 113l106 -10q-14 -102 -67.5 -164t-133.5 -62q-70 0 -155 56q-66 43 -88.5 54t-47.5 11q-62 0 -86 -113z " />
<glyph unicode="&#xd2;" horiz-adv-x="1423" d="M102 719q0 158 41 294t116.5 238t192.5 160.5t261 58.5q122 0 223.5 -41t171.5 -111.5t119 -166t71.5 -203t22.5 -223.5l-2 2q0 -116 -22 -224t-70 -205.5t-117.5 -170t-171.5 -115.5t-225 -43t-225.5 42t-172.5 114t-119 168.5t-71.5 203.5t-22.5 222zM254 721 q0 -120 28.5 -229t83.5 -196.5t144 -139.5t201 -52q84 0 154.5 29t118.5 78.5t84 111.5t56.5 133t30.5 137.5t10 129.5h2q0 95 -17.5 183.5t-54.5 167t-89.5 137t-128.5 92.5t-166 34q-111 0 -200 -51t-144 -138t-84 -196t-29 -231zM369 1872h223l221 -307h-115z" />
<glyph unicode="&#xd3;" horiz-adv-x="1423" d="M102 719q0 158 41 294t116.5 238t192.5 160.5t261 58.5q122 0 223.5 -41t171.5 -111t119 -165.5t71.5 -203t22.5 -224.5v2q0 -116 -22.5 -224t-70.5 -205.5t-118 -170t-172 -115.5t-225 -43t-225.5 42t-172.5 114t-119 168.5t-71.5 203.5t-22.5 222zM254 721 q0 -120 28.5 -229t83.5 -196.5t144 -139.5t201 -52q84 0 154.5 29t118.5 78.5t84 111.5t56.5 133t30.5 137.5t10 129.5h2q0 95 -17.5 183.5t-54.5 167t-89.5 137t-128.5 92.5t-166 34q-111 0 -200 -51t-144 -138t-84 -196t-29 -231zM612 1565l222 307h223l-328 -307h-117z " />
<glyph unicode="&#xd4;" horiz-adv-x="1423" d="M102 719q0 158 41 294t116.5 238t192.5 160.5t261 58.5q122 0 223.5 -41t171.5 -111t119 -165.5t71.5 -203t22.5 -224.5v2q0 -116 -22.5 -224t-70.5 -205.5t-118 -170t-172 -115.5t-225 -43t-225.5 42t-172.5 114t-119 168.5t-71.5 203.5t-22.5 222zM254 721 q0 -120 28.5 -229t83.5 -196.5t144 -139.5t201 -52q84 0 154.5 29t118.5 78.5t84 111.5t56.5 133t30.5 137.5t10 129.5h2q0 95 -17.5 183.5t-54.5 167t-89.5 137t-128.5 92.5t-166 34q-111 0 -200 -51t-144 -138t-84 -196t-29 -231zM393 1597l258 306h113l264 -306h-119 l-204 172l-195 -172h-117z" />
<glyph unicode="&#xd5;" horiz-adv-x="1423" d="M102 719q0 158 41 294t116.5 238t192.5 160.5t261 58.5q122 0 223.5 -41t171.5 -111.5t119 -166t71.5 -203t22.5 -223.5l-2 2q0 -116 -22 -224t-70 -205.5t-117.5 -170t-171.5 -115.5t-225 -43t-225.5 42t-172.5 114t-119 168.5t-71.5 203.5t-22.5 222zM254 721 q0 -120 28.5 -229t83.5 -196.5t144 -139.5t201 -52q84 0 154.5 29t118.5 78.5t84 111.5t56.5 133t30.5 137.5t10 129.5h2q0 95 -17.5 183.5t-54.5 167t-89.5 137t-128.5 92.5t-166 34q-111 0 -200 -51t-144 -138t-84 -196t-29 -231zM369 1608q8 92 62.5 156.5t137.5 64.5 q79 0 152 -51q60 -40 86 -53t51 -13q66 0 90 113l105 -10q-14 -102 -67.5 -164t-133.5 -62q-68 0 -156 56q-67 43 -88.5 54t-46.5 11q-62 0 -86 -113z" />
<glyph unicode="&#xd6;" horiz-adv-x="1423" d="M102 719q0 158 41 294t116.5 238t192.5 160.5t261 58.5q122 0 223.5 -41t171.5 -111t119 -165.5t71.5 -203t22.5 -224.5v2q0 -116 -22.5 -224t-70.5 -205.5t-118 -170t-172 -115.5t-225 -43t-225.5 42t-172.5 114t-119 168.5t-71.5 203.5t-22.5 222zM254 721 q0 -120 28.5 -229t83.5 -196.5t144 -139.5t201 -52q84 0 154.5 29t118.5 78.5t84 111.5t56.5 133t30.5 137.5t10 129.5h2q0 95 -17.5 183.5t-54.5 167t-89.5 137t-128.5 92.5t-166 34q-111 0 -200 -51t-144 -138t-84 -196t-29 -231zM453 1661q0 35 25 59.5t59 24.5 q35 0 59.5 -24.5t24.5 -59.5q0 -34 -24.5 -59t-59.5 -25q-34 0 -59 25t-25 59zM801 1661q0 35 25 59.5t59 24.5q35 0 59.5 -24.5t24.5 -59.5q0 -34 -24.5 -59t-59.5 -25q-34 0 -59 25t-25 59z" />
<glyph unicode="&#xd7;" horiz-adv-x="1189" d="M123 135l379 383l-379 383l94 94l377 -383l379 383l94 -94l-379 -383l379 -383l-94 -92l-379 383l-377 -383z" />
<glyph unicode="&#xd8;" horiz-adv-x="1421" d="M102 719q0 211 69.5 378.5t210 269t331.5 101.5q198 0 340 -104l118 190l101 -36l-142 -226q94 -103 142.5 -252t46.5 -315q0 -115 -22 -222.5t-70.5 -205.5t-118 -170t-172 -115t-225.5 -43q-197 0 -338 109l-121 -195l-102 37l143 230q-94 104 -142.5 254t-48.5 315z M254 721q0 -265 123 -438l598 956q-112 98 -264 98q-90 0 -166 -33.5t-129 -92t-90 -137t-54.5 -168t-17.5 -185.5zM449 201q111 -97 262 -97q84 0 154.5 29t118.5 78.5t84 111.5t56.5 133t30.5 137.5t10 129.5q3 257 -118 434z" />
<glyph unicode="&#xd9;" horiz-adv-x="1288" d="M113 678v762h149v-854q0 -88 9 -155t33.5 -130.5t66 -104.5t109.5 -65.5t161 -24.5t162 24.5t111.5 65.5t68 104t34.5 131t9 155v854h150v-762v2q0 -187 -27 -317t-89 -220t-164 -132t-251 -42q-150 0 -252 42t-164 131.5t-89 219t-27 316.5zM336 1872h223l219 -307h-114 z" />
<glyph unicode="&#xda;" horiz-adv-x="1288" d="M113 678v762h149v-854q0 -88 9 -155t33.5 -130.5t66 -104.5t109.5 -65.5t161 -24.5t162 24.5t111.5 65.5t68 104t34.5 131t9 155v854h150v-762v2q0 -187 -27 -317t-89 -220t-164 -132t-251 -42q-150 0 -252 42t-164 131.5t-89 219t-27 316.5zM559 1565l221 307h224 l-330 -307h-115z" />
<glyph unicode="&#xdb;" horiz-adv-x="1288" d="M113 678v762h149v-854q0 -88 9 -155t33.5 -130.5t66 -104.5t109.5 -65.5t161 -24.5t162 24.5t111.5 65.5t68 104t34.5 131t9 155v854h150v-762v2q0 -187 -27 -317t-89 -220t-164 -132t-251 -42q-150 0 -252 42t-164 131.5t-89 219t-27 316.5zM328 1597l256 306h112 l265 -306h-119l-205 172l-195 -172h-114z" />
<glyph unicode="&#xdc;" horiz-adv-x="1288" d="M113 678v762h149v-854q0 -88 9 -155t33.5 -130.5t66 -104.5t109.5 -65.5t161 -24.5t162 24.5t111.5 65.5t68 104t34.5 131t9 155v854h150v-762v2q0 -187 -27 -317t-89 -220t-164 -132t-251 -42q-150 0 -252 42t-164 131.5t-89 219t-27 316.5zM385 1661q0 35 25 59.5 t59 24.5q35 0 59.5 -24.5t24.5 -59.5q0 -34 -24.5 -59t-59.5 -25q-34 0 -59 25t-25 59zM733 1661q0 35 25 59.5t59 24.5q35 0 59.5 -24.5t24.5 -59.5q0 -34 -24.5 -59t-59.5 -25q-34 0 -59 25t-25 59z" />
<glyph unicode="&#xdd;" horiz-adv-x="1251" d="M31 1440h170l420 -719l428 719h172l-529 -856v-584h-145v582zM516 1565l219 307h226l-330 -307h-115z" />
<glyph unicode="&#xde;" horiz-adv-x="1255" d="M162 0v1440h143v-240h371q93 0 166 -10t142.5 -37t115.5 -72t74 -119t28 -174q0 -103 -32 -180t-82.5 -122.5t-126.5 -72.5t-151 -36.5t-169 -9.5h-336v-367h-143zM305 500h330q51 0 89 2t84.5 8.5t80 18t67 33t54.5 51t34 73t13 98.5q0 73 -21.5 126t-54.5 83.5 t-87 47.5t-105.5 22.5t-122.5 5.5h-361v-569z" />
<glyph unicode="&#xdf;" horiz-adv-x="1085" d="M143 -199v1162q0 58 4.5 108t16 101.5t30.5 93t49 78t69.5 61.5t95 39t122.5 14q90 0 160 -29.5t112 -79.5t63.5 -111.5t21.5 -129.5q0 -110 -54.5 -188t-152.5 -109q149 -37 226 -147.5t77 -260.5q0 -209 -118.5 -314t-311.5 -105q-65 0 -129 32v144q27 -19 64.5 -33 t66.5 -14q137 0 209 67.5t72 216.5q0 152 -121 244t-303 92v129h24q79 0 146 25.5t113 83t46 137.5q0 98 -60 159.5t-165 61.5q-52 0 -91.5 -15t-63.5 -45t-40 -63t-23 -80.5t-9 -85t-2 -88.5v-1106z" />
<glyph unicode="&#xe0;" d="M102 285q0 78 29 140t76.5 102t111.5 67t131 38t138 11q43 0 98 -8t80 -19v84q0 111 -53.5 169.5t-177.5 58.5q-104 0 -159 -35t-114 -125l-98 76q49 100 151 153.5t220 53.5q151 0 261.5 -83t110.5 -227v-604q0 -21 15.5 -33t40.5 -12h24v-92h-110q-52 0 -81.5 26.5 t-29.5 69.5v54q-116 -170 -338 -170q-152 0 -239 83.5t-87 221.5zM184 1489h224l219 -307l-115 -2zM242 291q0 -89 52.5 -141t149.5 -52q111 0 204 70.5t118 165.5v137q-44 55 -182 55q-140 0 -241 -68t-101 -167z" />
<glyph unicode="&#xe1;" d="M102 285q0 78 29 140t76.5 102t111.5 67t131 38t138 11q43 0 98 -8t80 -19v84q0 111 -53.5 169.5t-177.5 58.5q-104 0 -159 -35t-114 -125l-98 76q49 100 151 153.5t220 53.5q151 0 261.5 -83t110.5 -227v-604q0 -21 15.5 -33t40.5 -12h24v-92h-110q-52 0 -81.5 26.5 t-29.5 69.5v54q-116 -170 -338 -170q-152 0 -239 83.5t-87 221.5zM242 291q0 -89 52.5 -141t149.5 -52q111 0 204 70.5t118 165.5v137q-44 55 -182 55q-140 0 -241 -68t-101 -167zM451 1180l221 309h223l-330 -309h-114z" />
<glyph unicode="&#xe2;" d="M102 285q0 78 29 140t76.5 102t111.5 67t131 38t138 11q43 0 98 -8t80 -19v84q0 111 -53.5 169.5t-177.5 58.5q-104 0 -159 -35t-114 -125l-98 76q49 100 151 153.5t220 53.5q151 0 261.5 -83t110.5 -227v-604q0 -21 15.5 -33t40.5 -12h24v-92h-110q-52 0 -81.5 26.5 t-29.5 69.5v54q-116 -170 -338 -170q-152 0 -239 83.5t-87 221.5zM227 1176l256 305h113l264 -305h-119l-204 172l-195 -172h-115zM242 291q0 -89 52.5 -141t149.5 -52q111 0 204 70.5t118 165.5v137q-44 55 -182 55q-140 0 -241 -68t-101 -167z" />
<glyph unicode="&#xe3;" d="M102 285q0 78 29 140t76.5 102t111.5 67t131 38t138 11q43 0 98 -8t80 -19v84q0 111 -53.5 169.5t-177.5 58.5q-104 0 -159 -35t-114 -125l-98 76q49 100 151 153.5t220 53.5q151 0 261.5 -83t110.5 -227v-604q0 -21 15.5 -33t40.5 -12h24v-92h-110q-52 0 -81.5 26.5 t-29.5 69.5v54q-116 -170 -338 -170q-152 0 -239 83.5t-87 221.5zM195 1219q8 93 62 158t138 65q45 0 89 -18.5t72.5 -41t63.5 -41t64 -18.5q66 0 90 115l105 -11q-14 -102 -67.5 -164.5t-133.5 -62.5q-44 0 -89 19t-76 42.5t-66 42.5t-60 19q-62 0 -86 -113zM242 291 q0 -89 52.5 -141t149.5 -52q111 0 204 70.5t118 165.5v137q-44 55 -182 55q-140 0 -241 -68t-101 -167z" />
<glyph unicode="&#xe4;" d="M102 285q0 78 29 140t76.5 102t111.5 67t131 38t138 11q43 0 98 -8t80 -19v84q0 111 -53.5 169.5t-177.5 58.5q-104 0 -159 -35t-114 -125l-98 76q49 100 151 153.5t220 53.5q151 0 261.5 -83t110.5 -227v-604q0 -21 15.5 -33t40.5 -12h24v-92h-110q-52 0 -81.5 26.5 t-29.5 69.5v54q-116 -170 -338 -170q-152 0 -239 83.5t-87 221.5zM242 291q0 -89 52.5 -141t149.5 -52q111 0 204 70.5t118 165.5v137q-44 55 -182 55q-140 0 -241 -68t-101 -167zM283 1309q0 35 24.5 59.5t59.5 24.5t59.5 -24.5t24.5 -59.5t-24.5 -59.5t-59.5 -24.5 t-59.5 24.5t-24.5 59.5zM631 1309q0 35 25 59.5t59 24.5q35 0 59.5 -24.5t24.5 -59.5t-24.5 -59.5t-59.5 -24.5q-34 0 -59 24.5t-25 59.5z" />
<glyph unicode="&#xe5;" d="M102 285q0 78 29 140t76.5 102t111.5 67t131 38t138 11q43 0 98 -8t80 -19v84q0 111 -53.5 169.5t-177.5 58.5q-104 0 -159 -35t-114 -125l-98 76q49 100 151 153.5t220 53.5q151 0 261.5 -83t110.5 -227v-604q0 -21 15.5 -33t40.5 -12h24v-92h-110q-52 0 -81.5 26.5 t-29.5 69.5v54q-116 -170 -338 -170q-152 0 -239 83.5t-87 221.5zM242 291q0 -89 52.5 -141t149.5 -52q111 0 204 70.5t118 165.5v137q-44 55 -182 55q-140 0 -241 -68t-101 -167zM328 1378q0 85 57 143t143 58t143.5 -57.5t57.5 -141.5q0 -85 -57.5 -143.5t-143.5 -58.5 t-143 58t-57 142zM412 1380q0 -51 31.5 -84.5t82.5 -33.5t83 33.5t32 84.5v-2q0 50 -32.5 83.5t-82.5 33.5q-51 0 -82.5 -32.5t-31.5 -82.5z" />
<glyph unicode="&#xe6;" horiz-adv-x="1751" d="M102 285q0 75 28.5 136.5t75.5 102t110 68t128.5 39.5t133.5 12q44 0 102.5 -7t87.5 -20v84q0 111 -54 169.5t-177 58.5q-51 0 -92 -10t-67 -23t-50 -38t-36 -42t-30 -47l-98 76q51 100 152.5 153.5t220.5 53.5q107 0 198 -43.5t137 -124.5q62 80 149.5 123t188.5 43 q104 0 188.5 -40.5t138.5 -110t83 -160.5t29 -195q0 -20 -7 -60h-733q2 -75 21 -140.5t55 -120.5t97 -87.5t141 -32.5q92 0 164.5 34.5t138.5 119.5l96 -74q-143 -205 -408 -205q-127 0 -227 59.5t-158 172.5q-76 -119 -169 -175.5t-230 -56.5q-153 0 -240.5 84.5 t-87.5 223.5zM242 291q0 -89 53 -141t151 -52q111 0 204 70.5t118 165.5v137q-44 55 -182 55q-140 0 -242 -68t-102 -167zM911 600h592q-6 69 -25.5 125.5t-54 102t-89.5 71t-126 25.5q-122 0 -202 -85t-95 -239z" />
<glyph unicode="&#xe7;" horiz-adv-x="1007" d="M102 508q0 131 37.5 236t102 170.5t148 100t177.5 34.5q116 0 198 -46.5t161 -142.5l-107 -74q-91 138 -260 138q-135 0 -222 -109t-87 -299q0 -64 10.5 -123t34 -113t58 -93.5t87 -63t117.5 -23.5q157 0 254 140l113 -66q-69 -98 -156 -147t-205 -50l-51 -108 q45 18 92 18q57 0 98 -35t41 -100q0 -85 -63.5 -129.5t-161.5 -44.5q-67 0 -160 41l21 59q64 -28 127 -28q72 0 98.5 27t26.5 57q0 31 -22 51t-60 20q-47 0 -78 -24l-61 14l86 185q-181 22 -287.5 165.5t-106.5 362.5z" />
<glyph unicode="&#xe8;" horiz-adv-x="1077" d="M102 518q0 243 128 387t319 144q109 0 194.5 -42.5t137 -115.5t78 -165.5t26.5 -197.5q0 -17 -4 -45h-731q2 -74 20 -140t54 -121t97 -87.5t140 -32.5q92 0 164.5 34.5t138.5 119.5l97 -74q-144 -207 -408 -207q-200 0 -325.5 144.5t-125.5 398.5zM215 1489h223l219 -307 l-114 -2zM252 600h590q-6 69 -25.5 125.5t-54 102t-89.5 71t-126 25.5q-122 0 -201 -85t-94 -239z" />
<glyph unicode="&#xe9;" horiz-adv-x="1077" d="M102 518q0 243 128 387t319 144q109 0 194.5 -42.5t137 -115.5t78 -165.5t26.5 -197.5q0 -17 -4 -45h-731q2 -74 20 -140t54 -121t97 -87.5t140 -32.5q92 0 164.5 34.5t138.5 119.5l97 -74q-144 -207 -408 -207q-200 0 -325.5 144.5t-125.5 398.5zM252 600h590 q-6 69 -25.5 125.5t-54 102t-89.5 71t-126 25.5q-122 0 -201 -85t-94 -239zM457 1180l221 309h223l-330 -309h-114z" />
<glyph unicode="&#xea;" horiz-adv-x="1077" d="M102 518q0 243 128 387t319 144q109 0 194.5 -42.5t137 -115.5t78 -165.5t26.5 -197.5q0 -17 -4 -45h-731q2 -74 20 -140t54 -121t97 -87.5t140 -32.5q92 0 164.5 34.5t138.5 119.5l97 -74q-144 -207 -408 -207q-200 0 -325.5 144.5t-125.5 398.5zM233 1169l256 308h113 l264 -306l-118 -2l-205 174l-195 -174h-115zM252 600h590q-6 69 -25.5 125.5t-54 102t-89.5 71t-126 25.5q-122 0 -201 -85t-94 -239z" />
<glyph unicode="&#xeb;" horiz-adv-x="1077" d="M102 518q0 243 128 387t319 144q109 0 194.5 -42.5t137 -115.5t78 -165.5t26.5 -197.5q0 -17 -4 -45h-731q2 -74 20 -140t54 -121t97 -87.5t140 -32.5q92 0 164.5 34.5t138.5 119.5l97 -74q-144 -207 -408 -207q-200 0 -325.5 144.5t-125.5 398.5zM252 600h590 q-6 69 -25.5 125.5t-54 102t-89.5 71t-126 25.5q-122 0 -201 -85t-94 -239zM299 1309q0 35 25 59.5t59 24.5q35 0 59.5 -24.5t24.5 -59.5t-24.5 -59.5t-59.5 -24.5q-34 0 -59 24.5t-25 59.5zM649 1309q0 35 24.5 59.5t59.5 24.5q34 0 58 -24.5t24 -59.5t-24 -59.5t-58 -24.5 q-35 0 -59.5 24.5t-24.5 59.5z" />
<glyph unicode="&#xec;" horiz-adv-x="428" d="M-125 1489h223l221 -307l-114 -2zM143 0v1026h142v-1026h-142z" />
<glyph unicode="&#xed;" horiz-adv-x="428" d="M143 0v1026h142v-1026h-142zM166 1180l221 309h223l-329 -309h-115z" />
<glyph unicode="&#xee;" horiz-adv-x="428" d="M-102 1165l256 305h112l264 -305h-118l-205 172l-195 -172h-114zM143 0v1026h142v-1026h-142z" />
<glyph unicode="&#xef;" horiz-adv-x="428" d="M-45 1309q0 35 25 59.5t59 24.5q35 0 59.5 -24.5t24.5 -59.5t-24.5 -59.5t-59.5 -24.5q-34 0 -59 24.5t-25 59.5zM143 0v1026h142v-1026h-142zM305 1309q0 35 24.5 59.5t59.5 24.5q34 0 59 -24.5t25 -59.5t-25 -59.5t-59 -24.5q-35 0 -59.5 24.5t-24.5 59.5z" />
<glyph unicode="&#xf0;" horiz-adv-x="1146" d="M117 481q0 234 124 375t312 141q107 0 183 -37.5t136 -115.5q-50 196 -176 342l-219 -117l-69 86l200 105q-79 71 -168 108l45 100q37 -23 125 -71q55 -31 99 -68l127 68l71 -84l-114 -60q235 -276 235 -678q0 -93 -13.5 -175t-46.5 -160.5t-84 -135t-131.5 -90.5 t-183.5 -34q-206 0 -329 139.5t-123 361.5zM264 483q0 -189 85.5 -284t221.5 -95q145 0 227.5 101.5t82.5 279.5q1 51 -7.5 101.5t-31 103.5t-57 93t-91 65.5t-127.5 25.5q-81 0 -141.5 -33t-95 -89.5t-50.5 -123.5t-16 -145z" />
<glyph unicode="&#xf1;" horiz-adv-x="1079" d="M143 0v1026h142v-145q40 73 115.5 119.5t181.5 46.5q189 0 271.5 -116.5t82.5 -350.5v-580h-141v567q0 193 -56.5 274t-181.5 81q-145 0 -208.5 -97.5t-63.5 -296.5v-528h-142zM195 1219q8 92 62.5 157.5t137.5 65.5q75 0 152 -51q56 -40 84 -54t53 -14q66 0 90 115 l105 -11q-14 -102 -67.5 -164.5t-133.5 -62.5q-73 0 -156 55q-10 6 -25 16t-21.5 14t-17 11t-15 9.5t-12.5 6.5t-12 5.5t-10 3t-11 2t-11 0.5q-62 0 -86 -113z" />
<glyph unicode="&#xf2;" horiz-adv-x="1114" d="M102 506q0 155 53 277.5t158 194t246 71.5q211 0 332 -147t121 -384q1 -107 -27.5 -203t-83.5 -172.5t-144.5 -122t-201.5 -45.5q-205 0 -329 145.5t-124 385.5zM203 1489h223l219 -307l-115 -2zM250 508q0 -201 84.5 -304.5t222.5 -103.5q147 0 228 109t81 301 q1 55 -7 108.5t-29.5 110.5t-54.5 99.5t-89 70t-127 27.5q-68 0 -122.5 -24.5t-88.5 -64t-57 -95t-32 -113t-9 -121.5z" />
<glyph unicode="&#xf3;" horiz-adv-x="1114" d="M102 506q0 155 53 277.5t158 194t246 71.5q211 0 332 -147t121 -384q1 -107 -27.5 -203t-83.5 -172.5t-144.5 -122t-201.5 -45.5q-205 0 -329 145.5t-124 385.5zM250 508q0 -201 84.5 -304.5t222.5 -103.5q147 0 228 109t81 301q1 55 -7 108.5t-29.5 110.5t-54.5 99.5 t-89 70t-127 27.5q-68 0 -122.5 -24.5t-88.5 -64t-57 -95t-32 -113t-9 -121.5zM465 1180l221 309h223l-329 -309h-115z" />
<glyph unicode="&#xf4;" horiz-adv-x="1114" d="M102 506q0 155 53 277.5t158 194t246 71.5q211 0 332 -147t121 -384q1 -107 -27.5 -203t-83.5 -172.5t-144.5 -122t-201.5 -45.5q-205 0 -329 145.5t-124 385.5zM244 1169l258 308h112l265 -306l-121 -2l-203 174l-195 -174h-116zM250 508q0 -201 84.5 -304.5 t222.5 -103.5q147 0 228 109t81 301q1 55 -7 108.5t-29.5 110.5t-54.5 99.5t-89 70t-127 27.5q-68 0 -122.5 -24.5t-88.5 -64t-57 -95t-32 -113t-9 -121.5z" />
<glyph unicode="&#xf5;" horiz-adv-x="1114" d="M102 506q0 155 53 277.5t158 194t246 71.5q211 0 332 -147t121 -384q1 -107 -27.5 -203t-83.5 -172.5t-144.5 -122t-201.5 -45.5q-205 0 -329 145.5t-124 385.5zM213 1219q8 92 63 157.5t138 65.5q74 0 151 -51q56 -40 84 -54t53 -14q67 0 91 115l104 -11 q-14 -102 -67.5 -164.5t-133.5 -62.5q-72 0 -155 55q-10 6 -25 16t-21.5 14t-17 11t-15 9.5t-12.5 6.5t-12 5.5t-10 3t-11 2t-11 0.5q-63 0 -87 -113zM250 508q0 -201 84.5 -304.5t222.5 -103.5q147 0 228 109t81 301q1 55 -7 108.5t-29.5 110.5t-54.5 99.5t-89 70 t-127 27.5q-68 0 -122.5 -24.5t-88.5 -64t-57 -95t-32 -113t-9 -121.5z" />
<glyph unicode="&#xf6;" horiz-adv-x="1114" d="M102 506q0 155 53 277.5t158 194t246 71.5q211 0 332 -147t121 -384q1 -107 -27.5 -203t-83.5 -172.5t-144.5 -122t-201.5 -45.5q-205 0 -329 145.5t-124 385.5zM250 508q0 -201 84.5 -304.5t222.5 -103.5q147 0 228 109t81 301q1 55 -7 108.5t-29.5 110.5t-54.5 99.5 t-89 70t-127 27.5q-68 0 -122.5 -24.5t-88.5 -64t-57 -95t-32 -113t-9 -121.5zM299 1309q0 35 25 59.5t59 24.5q35 0 59.5 -24.5t24.5 -59.5t-24.5 -59.5t-59.5 -24.5q-34 0 -59 24.5t-25 59.5zM647 1309q0 35 25 59.5t59 24.5q35 0 59.5 -24.5t24.5 -59.5t-24.5 -59.5 t-59.5 -24.5q-34 0 -59 24.5t-25 59.5z" />
<glyph unicode="&#xf7;" horiz-adv-x="1273" d="M82 580v131h1110v-131h-1110zM522 248q0 47 34 80.5t81 33.5t81 -33.5t34 -80.5t-34 -81t-81 -34t-81 34t-34 81zM522 1044q0 47 34 81t81 34t81 -34t34 -81t-34 -80.5t-81 -33.5t-81 33.5t-34 80.5z" />
<glyph unicode="&#xf8;" horiz-adv-x="1114" d="M102 -72l144 201q-117 145 -117 375q0 155 53.5 277.5t159 194t246.5 71.5q150 0 260 -80l119 163l102 -36l-145 -201q116 -140 116 -375q0 -108 -29 -204t-83.5 -172.5t-144 -121.5t-201.5 -45q-147 0 -260 80l-117 -164zM276 506q0 -157 56 -258l438 610 q-71 68 -182 68q-69 0 -123.5 -24.5t-89.5 -64.5t-57.5 -95.5t-32 -113.5t-9.5 -122zM399 164q78 -66 185 -66q147 0 229 110t82 300v2q0 153 -57 262z" />
<glyph unicode="&#xf9;" horiz-adv-x="1058" d="M123 459v567h141v-567q0 -189 56.5 -272t177.5 -83q276 0 276 394v528h141v-1026h-141v145q-96 -168 -299 -168q-191 0 -271.5 120.5t-80.5 361.5zM195 1489h223l219 -307l-115 -2z" />
<glyph unicode="&#xfa;" horiz-adv-x="1058" d="M123 459v567h141v-567q0 -189 56.5 -272t177.5 -83q276 0 276 394v528h141v-1026h-141v145q-96 -168 -299 -168q-191 0 -271.5 120.5t-80.5 361.5zM412 1180l219 309h223l-328 -309h-114z" />
<glyph unicode="&#xfb;" horiz-adv-x="1058" d="M123 459v567h141v-567q0 -189 56.5 -272t177.5 -83q276 0 276 394v528h141v-1026h-141v145q-96 -168 -299 -168q-191 0 -271.5 120.5t-80.5 361.5zM205 1180l258 307h112l265 -305l-121 -2l-203 174l-194 -174h-117z" />
<glyph unicode="&#xfc;" horiz-adv-x="1058" d="M123 459v567h141v-567q0 -189 56.5 -272t177.5 -83q276 0 276 394v528h141v-1026h-141v145q-96 -168 -299 -168q-191 0 -271.5 120.5t-80.5 361.5zM262 1309q0 35 24.5 59.5t59.5 24.5t59.5 -24.5t24.5 -59.5t-24.5 -59.5t-59.5 -24.5t-59.5 24.5t-24.5 59.5zM610 1309 q0 35 25 59.5t59 24.5q35 0 59.5 -24.5t24.5 -59.5t-24.5 -59.5t-59.5 -24.5q-34 0 -59 24.5t-25 59.5z" />
<glyph unicode="&#xfd;" horiz-adv-x="1001" d="M57 1026h146l289 -852l305 852h147l-495 -1302q-27 -71 -81.5 -110.5t-121.5 -39.5q-24 0 -82 23v108q40 -16 78 -16q32 0 51.5 17.5t36.5 62.5l90 233zM428 1169l219 310h225l-329 -310h-115z" />
<glyph unicode="&#xfe;" horiz-adv-x="1112" d="M156 -410v1850h139v-551q113 160 305 160q97 0 174 -41.5t125 -114t73 -167.5t25 -206q0 -243 -111.5 -394t-293.5 -151q-192 0 -297 158v-543h-139zM295 655l2 -356q34 -90 111 -142.5t165 -52.5q60 0 108 22.5t80 61t53 93t30.5 115t9.5 130.5q0 183 -73.5 289.5 t-209.5 106.5q-53 0 -97.5 -20t-71 -45.5t-50.5 -68t-34 -68t-23 -65.5z" />
<glyph unicode="&#xff;" horiz-adv-x="1007" d="M61 1026h144l289 -852l305 852h147l-495 -1302q-26 -71 -80.5 -110.5t-122.5 -39.5q-20 0 -82 23v108q43 -16 78 -16q32 0 52.5 18t37.5 62l88 233zM246 1298q0 35 24.5 59.5t59.5 24.5t59.5 -24.5t24.5 -59.5t-24.5 -59.5t-59.5 -24.5t-59.5 24.5t-24.5 59.5zM594 1298 q0 35 25 59.5t59 24.5q35 0 59.5 -24.5t24.5 -59.5t-24.5 -59.5t-59.5 -24.5q-34 0 -59 24.5t-25 59.5z" />
<glyph unicode="&#x152;" horiz-adv-x="2072" d="M102 719q0 207 83.5 377.5t237 271t345.5 100.5q26 0 49.5 -0.5t40.5 -1.5t38.5 -3t33 -3t33 -4t30 -4.5l34 -6t34.5 -5.5h889v-137h-758v-482h571v-137h-571v-549h799v-135h-930q-148 -31 -295 -31q-122 0 -229.5 42t-186 114.5t-135 167.5t-85 204t-28.5 222zM258 721 q0 -94 23 -185t67.5 -169.5t105 -138.5t141.5 -94t171 -34q153 0 278 35v1172q-45 13 -73.5 19t-83 11.5t-123.5 5.5q-112 0 -208 -52.5t-160.5 -139.5t-101 -199t-36.5 -231z" />
<glyph unicode="&#x153;" horiz-adv-x="1853" d="M102 506q0 155 53.5 277.5t159 194t246.5 71.5q129 0 225.5 -58t155.5 -162q60 105 157.5 162.5t215.5 57.5q138 0 238.5 -70.5t149 -184.5t48.5 -255q0 -36 -4 -56h-733q2 -75 20 -140.5t53.5 -120.5t96.5 -87.5t141 -32.5q92 0 164.5 34.5t138.5 119.5l96 -74 q-63 -93 -165 -149t-242 -56q-123 0 -222 57.5t-157 164.5q-58 -103 -155 -162.5t-228 -59.5q-205 0 -329 145t-124 384zM250 506q0 -199 85 -302.5t222 -103.5q148 0 229.5 109t81.5 301q0 45 -6 89.5t-19 93t-36.5 89t-56 73.5t-81.5 52t-108 19q-85 0 -148 -36t-97 -98 t-50 -133t-16 -153zM1014 600h592q-13 144 -85 234t-208 90q-123 0 -202.5 -84.5t-96.5 -239.5z" />
<glyph unicode="&#x178;" horiz-adv-x="1251" d="M31 1440h170l420 -719l428 719h172l-529 -856v-584h-145v582zM369 1661q0 35 24.5 59.5t59.5 24.5q34 0 59 -24.5t25 -59.5q0 -34 -25 -59t-59 -25q-35 0 -59.5 25t-24.5 59zM717 1661q0 35 24.5 59.5t59.5 24.5q34 0 59 -24.5t25 -59.5q0 -34 -25 -59t-59 -25 q-35 0 -59.5 25t-24.5 59z" />
<glyph unicode="&#x2c6;" horiz-adv-x="921" d="M143 1180l256 307h113l266 -305l-121 -2l-202 174l-195 -174h-117z" />
<glyph unicode="&#x2dc;" horiz-adv-x="970" d="M143 1219q8 93 62.5 158t138.5 65q75 0 152 -51q56 -40 84 -54t53 -14q68 0 88 115l106 -11q-14 -102 -67 -164.5t-133 -62.5q-73 0 -156 55q-10 6 -25 16t-21.5 14t-17 11t-15 9.5t-12.5 6.5t-12 5.5t-10 3t-11 2t-11 0.5q-62 0 -86 -113z" />
<glyph unicode="&#x2000;" horiz-adv-x="953" />
<glyph unicode="&#x2001;" horiz-adv-x="1907" />
<glyph unicode="&#x2002;" horiz-adv-x="953" />
<glyph unicode="&#x2003;" horiz-adv-x="1907" />
<glyph unicode="&#x2004;" horiz-adv-x="635" />
<glyph unicode="&#x2005;" horiz-adv-x="476" />
<glyph unicode="&#x2006;" horiz-adv-x="317" />
<glyph unicode="&#x2007;" horiz-adv-x="317" />
<glyph unicode="&#x2008;" horiz-adv-x="238" />
<glyph unicode="&#x2009;" horiz-adv-x="381" />
<glyph unicode="&#x200a;" horiz-adv-x="105" />
<glyph unicode="&#x2010;" horiz-adv-x="716" d="M102 637v141h512v-141h-512z" />
<glyph unicode="&#x2011;" horiz-adv-x="716" d="M102 637v141h512v-141h-512z" />
<glyph unicode="&#x2012;" horiz-adv-x="716" d="M102 637v141h512v-141h-512z" />
<glyph unicode="&#x2013;" horiz-adv-x="1011" d="M82 637v141h848v-139z" />
<glyph unicode="&#x2014;" horiz-adv-x="1282" d="M82 637v141h1118v-139z" />
<glyph unicode="&#x2018;" horiz-adv-x="468" d="M82 956l215 512l100 -22l-153 -490h-162z" />
<glyph unicode="&#x2019;" horiz-adv-x="468" d="M72 950l153 488h162l-215 -510z" />
<glyph unicode="&#x201a;" horiz-adv-x="479" d="M82 -272l215 512l100 -23l-153 -489h-162z" />
<glyph unicode="&#x201c;" horiz-adv-x="817" d="M82 956l215 512l100 -22l-153 -490h-162zM432 956l215 512l98 -22l-153 -490h-160z" />
<glyph unicode="&#x201d;" horiz-adv-x="817" d="M72 950l153 488h162l-215 -510zM422 950l153 488h160l-215 -510z" />
<glyph unicode="&#x201e;" horiz-adv-x="827" d="M82 -272l215 512l100 -23l-153 -489h-162zM432 -272l215 512l98 -23l-153 -489h-160z" />
<glyph unicode="&#x2022;" horiz-adv-x="729" d="M133 735q0 97 68 166.5t164 69.5q95 0 163 -69t68 -165q0 -97 -67 -165t-164 -68q-95 0 -163.5 68t-68.5 163z" />
<glyph unicode="&#x2026;" horiz-adv-x="1331" d="M82 80q0 43 29.5 72.5t70.5 29.5q43 0 73 -29.5t30 -70.5q0 -42 -29.5 -72t-71.5 -30q-43 0 -72.5 29.5t-29.5 70.5zM561 80q0 42 29.5 72t71.5 30q43 0 72.5 -29.5t29.5 -70.5q0 -43 -29.5 -72.5t-70.5 -29.5q-43 0 -73 29.5t-30 70.5zM1047 80q0 43 29.5 72.5 t70.5 29.5q43 0 72.5 -29.5t29.5 -70.5q0 -43 -29.5 -72.5t-70.5 -29.5q-43 0 -72.5 29.5t-29.5 70.5z" />
<glyph unicode="&#x202f;" horiz-adv-x="381" />
<glyph unicode="&#x2039;" horiz-adv-x="628" d="M82 584l330 460l135 -30l-309 -428l309 -414l-135 -33z" />
<glyph unicode="&#x203a;" horiz-adv-x="628" d="M82 170l309 428l-309 414l135 32l330 -444l-330 -461z" />
<glyph unicode="&#x205f;" horiz-adv-x="476" />
<glyph unicode="&#x20ac;" horiz-adv-x="1406" d="M0 508l41 131h158q-2 27 -2 80q0 41 2 59h-199l41 133h172q22 122 71 223.5t123 176.5t176.5 117t223.5 42q197 0 333 -100t206 -270l-144 -56q-56 135 -156 214t-241 79q-176 0 -287 -118t-149 -308h536l-45 -131h-510v-59q0 -55 2 -82h553l-45 -131h-487 q43 -180 152.5 -292t279.5 -112q235 0 358 220l127 -82q-77 -128 -198.5 -200.5t-284.5 -72.5q-124 0 -227 42.5t-174.5 117.5t-118.5 170.5t-70 208.5h-217z" />
<glyph unicode="&#x2122;" horiz-adv-x="1527" d="M102 1354v88h555v-86h-227v-664h-96v662h-232zM758 692v750h123q0 -2 42.5 -118t95.5 -265.5t73 -216.5q35 117 119 347t92 253h122v-750h-94l-1 304q-2 304 1 304q-24 -96 -57.5 -192.5t-86.5 -230t-73 -187.5h-53q-6 16 -40.5 106.5t-63.5 168.5t-62 175.5t-49 157.5 q3 -90 3.5 -187.5t-0.5 -231.5t-1 -187h-90z" />
<glyph unicode="&#x25fc;" horiz-adv-x="1024" d="M0 0v1024h1024v-1024h-1024z" />
</font>
</defs>
</svg>
