<?xml version="1.0" standalone="no"?>
<!DOCTYPE svg PUBLIC "-//W3C//DTD SVG 1.1//EN" "http://www.w3.org/Graphics/SVG/1.1/DTD/svg11.dtd" >
<svg xmlns="http://www.w3.org/2000/svg">
<metadata></metadata>
<defs>
<font id="district_mediummedium" horiz-adv-x="1144" >
<font-face units-per-em="2048" ascent="1638" descent="-410" />
<missing-glyph horiz-adv-x="600" />
<glyph unicode="&#xfb01;" horiz-adv-x="1130" d="M72 877v159h164v144q0 130 79 205t213 75q49 0 103.5 -11t81.5 -34v-168q-19 30 -55 46t-74 16q-69 0 -106.5 -36.5t-37.5 -96.5v-140h547v-1036h-205v877h-342v-877h-204v877h-164z" />
<glyph unicode="&#xfb02;" horiz-adv-x="1183" d="M72 877v159h164v142q0 135 66 208.5t194 73.5q108 0 168 -45v-172q-37 64 -113 64q-57 0 -85 -36t-28 -97v-138h232v-159h-232v-877h-202v877h-164zM831 0v1440h209v-1440h-209z" />
<glyph horiz-adv-x="0" />
<glyph horiz-adv-x="682" />
<glyph unicode=" "  horiz-adv-x="600" />
<glyph unicode="&#x09;" horiz-adv-x="600" />
<glyph unicode="&#xa0;" horiz-adv-x="600" />
<glyph unicode="!" horiz-adv-x="540" d="M143 104q0 52 37.5 89.5t89.5 37.5t89.5 -37.5t37.5 -89.5t-37.5 -89.5t-89.5 -37.5t-89.5 37.5t-37.5 89.5zM168 768v672h205v-672l-39 -358h-127z" />
<glyph unicode="&#x22;" horiz-adv-x="860" d="M102 1421v2v2v2q0 22 28 39t87 17q60 0 88.5 -17t26.5 -39v-2v-2v-2l-62 -594h-104zM528 1421v2v2v2q-2 22 26.5 39t88.5 17q59 0 87 -17t28 -39v-2v-2v-2l-64 -594h-104z" />
<glyph unicode="#" horiz-adv-x="1499" d="M143 414v166h275l20 288h-272v168h285l28 406h185l-29 -406h270l27 406h182l-27 -406h269v-168h-281l-20 -288h278v-166h-289l-26 -414h-184l28 414h-270l-31 -414h-180l29 414h-267zM602 575h268l23 295h-268z" />
<glyph unicode="$" horiz-adv-x="1294" d="M102 287l160 139q113 -240 395 -240q147 0 233.5 65.5t86.5 168.5q0 38 -25.5 71t-61.5 55t-90 43.5t-96 33t-94.5 25.5t-72.5 20q-65 20 -115.5 41.5t-100.5 54.5t-82.5 73t-52.5 96.5t-20 125.5q0 84 31.5 152t87.5 113.5t127 73.5t155 38v108h181v-106 q63 -6 120 -23.5t95 -36.5t81.5 -53.5t64 -54.5t58.5 -58l-147 -141q-76 99 -159 142.5t-208 43.5q-121 0 -195.5 -51.5t-74.5 -146.5q0 -87 62 -132t210 -89q27 -8 76.5 -22.5t78 -23t73.5 -23.5t72 -27t63.5 -31.5t58.5 -38.5t46.5 -45.5t37.5 -56t22 -66.5t9 -80 q0 -165 -119.5 -281t-324.5 -137v-117h-181v115q-150 12 -270.5 82.5t-194.5 200.5z" />
<glyph unicode="%" horiz-adv-x="1980" d="M102 987q0 69 12 133.5t39 125t67 105.5t100.5 72t134.5 27q75 0 135.5 -27.5t99 -72.5t64.5 -106.5t36.5 -125t10.5 -131.5q0 -67 -12.5 -130.5t-40 -122.5t-67.5 -102.5t-100 -70t-132 -26.5q-164 0 -255.5 127.5t-91.5 324.5zM268 991q0 -57 8 -108t26.5 -102.5 t57 -82t93.5 -30.5t93.5 32t56.5 84.5t25 101t7 99.5q0 52 -7 101.5t-24.5 105.5t-56 90.5t-94.5 34.5q-91 0 -138 -91t-47 -235zM522 -16l791 1489l149 -17l-790 -1487zM1180 434q0 69 11.5 133t38.5 124.5t67 105t100.5 71.5t134.5 27q76 0 136.5 -27.5t99 -72t64 -106 t36 -125t10.5 -132.5q0 -67 -12 -130t-39.5 -122t-67.5 -103t-100 -70.5t-133 -26.5q-163 0 -254.5 128t-91.5 326zM1346 438q0 -45 4 -86t16.5 -86t32 -77.5t53.5 -54t78 -21.5q55 0 93.5 32.5t56.5 85t25 100.5t7 99q0 52 -6.5 101t-24 105.5t-56.5 91t-95 34.5 q-91 1 -137.5 -89.5t-46.5 -234.5z" />
<glyph unicode="&#x26;" horiz-adv-x="1376" d="M102 403q0 70 18 127.5t53.5 101t74 75t92.5 63.5q-70 74 -103.5 143t-33.5 164q0 81 27.5 147t74 109.5t111 73t135 42.5t149.5 13q78 0 147 -15t116.5 -35t96.5 -54.5t76 -59.5t66 -65l-145 -141q-76 99 -159.5 143.5t-207.5 44.5q-117 0 -193.5 -51.5t-76.5 -147.5 q0 -68 33 -104q0 -2 263 -308t283 -327q31 64 31 113h197q-3 -145 -94 -269l161 -186h-260l-49 55q-132 -80 -332 -80q-251 0 -401 115t-150 313zM317 410q0 -129 92.5 -194.5t233.5 -65.5q129 0 209 53l-387 432q-69 -31 -108.5 -90.5t-39.5 -134.5z" />
<glyph unicode="'" horiz-adv-x="434" d="M102 1421v2v2v2q0 22 28 39t87 17q60 0 88.5 -17t26.5 -39v-2v-2v-2l-62 -594h-104z" />
<glyph unicode="(" horiz-adv-x="696" d="M102 637q0 285 122 554.5t335 446.5l76 -94q-322 -380 -322 -907q0 -525 322 -905l-76 -94q-214 177 -335.5 445.5t-121.5 553.5z" />
<glyph unicode=")" horiz-adv-x="696" d="M61 -268q324 383 324 905q0 525 -324 905l76 96q213 -177 335 -446.5t122 -554.5t-121.5 -553.5t-335.5 -445.5z" />
<glyph unicode="*" horiz-adv-x="868" d="M102 997l256 95l-256 88l60 127l223 -131l-20 266h141l-21 -266l220 137l61 -127l-248 -99l248 -96l-61 -127l-220 135l21 -264h-141l20 266l-221 -133z" />
<glyph unicode="+" horiz-adv-x="1296" d="M102 563v174h457v461h180v-461h455v-174h-455v-463h-180v463h-457z" />
<glyph unicode="," horiz-adv-x="483" d="M51 -236l139 441h211l-211 -469z" />
<glyph unicode="-" horiz-adv-x="743" d="M102 604v199h539v-199h-539z" />
<glyph unicode="." horiz-adv-x="417" d="M82 104q0 52 37 89.5t90 37.5t90 -37.5t37 -89.5t-37 -89.5t-90 -37.5t-90 37.5t-37 89.5z" />
<glyph unicode="/" horiz-adv-x="962" d="M41 -92l692 1624h189l-691 -1624h-190z" />
<glyph unicode="0" horiz-adv-x="1314" d="M102 721q0 340 147.5 543.5t407.5 203.5t407.5 -203.5t147.5 -543.5q0 -223 -64.5 -391.5t-191 -262.5t-299.5 -94t-299.5 94t-191 262.5t-64.5 391.5zM315 723q0 -119 19.5 -220.5t59 -182.5t106 -127t153.5 -46t154.5 45.5t108 126t61 182t20.5 220.5t-20.5 220.5 t-61 181.5t-108 125.5t-154.5 45.5t-153.5 -45.5t-106 -125.5t-59 -180.5t-19.5 -219.5z" />
<glyph unicode="1" horiz-adv-x="827" d="M143 1083v152q271 11 291 205h189v-1440h-215v1110q-28 -10 -116 -18.5t-149 -8.5z" />
<glyph unicode="2" horiz-adv-x="1226" d="M102 0q0 59 18.5 118.5t45 108t72.5 103t84.5 93t100.5 89t100 79.5t101 75q7 5 11 8q65 48 107.5 85t80.5 82t56 92.5t18 100.5q0 118 -78 188t-211 70q-106 0 -187 -63t-122 -152l-158 88q62 142 191 222.5t284 80.5q220 0 354 -114t134 -316q0 -150 -74.5 -260 t-243.5 -235q-40 -30 -104.5 -77t-95 -70t-73.5 -57.5t-65.5 -56.5t-44.5 -49t-34 -53h723v-180h-990z" />
<glyph unicode="3" horiz-adv-x="1245" d="M82 299l166 98q37 -125 128.5 -186t219.5 -61q144 0 228.5 66t84.5 196q0 118 -80 184t-213 66h-180v165h135q62 0 112.5 11.5t93.5 37t67 73.5t24 114q0 102 -69.5 168.5t-208.5 66.5q-117 0 -194.5 -63.5t-108.5 -155.5l-164 88q25 56 61 104.5t91.5 95t138.5 74 t182 27.5q222 0 350.5 -106.5t128.5 -290.5q0 -126 -49 -199.5t-166 -117.5q262 -49 262 -338q0 -207 -142 -324t-390 -117q-383 0 -508 324z" />
<glyph unicode="4" horiz-adv-x="1267" d="M102 332v160l701 948h219v-940h143v-168h-143v-332h-207v332h-713zM317 500h498v680z" />
<glyph unicode="5" horiz-adv-x="1251" d="M102 256l152 104q130 -213 354 -213q159 0 244.5 89t85.5 243q0 144 -82 228t-227 84q-93 0 -166 -40.5t-117 -119.5l-186 47l45 762h854v-178h-680l-29 -416q120 115 312 115q224 0 355.5 -127.5t131.5 -344.5q0 -244 -150 -380t-395 -136q-168 0 -299.5 70t-202.5 213z " />
<glyph unicode="6" horiz-adv-x="1282" d="M102 612q0 103 16 203t48 195.5t84 176.5t119.5 142.5t160 96t199.5 34.5q99 0 187 -26.5t141 -69.5l-99 -141q-93 62 -233 65q-80 1 -148.5 -32.5t-115 -87t-81.5 -124.5t-54 -141t-27 -141q135 166 393 166q222 0 355 -125.5t133 -339.5q0 -227 -149.5 -357.5 t-389.5 -130.5q-115 0 -207.5 36t-153.5 96.5t-102 143.5t-58.5 172.5t-17.5 188.5zM313 463q0 -36 10.5 -76t35.5 -84t62 -78.5t96 -57t130 -22.5q148 0 236.5 85t87.5 231q0 141 -87 222t-231 81q-147 0 -243.5 -85.5t-96.5 -215.5z" />
<glyph unicode="7" horiz-adv-x="1191" d="M82 1255v185h987v-170q-242 -294 -358 -594.5t-140 -675.5h-217q21 332 152 658.5t344 596.5h-768z" />
<glyph unicode="8" horiz-adv-x="1302" d="M102 410q0 135 72 219.5t205 138.5q-100 41 -158.5 119t-58.5 184q0 179 136.5 288t354.5 109q220 0 357 -105.5t137 -285.5q0 -115 -60.5 -192t-158.5 -115q123 -42 197.5 -134t74.5 -226q0 -200 -152 -317.5t-395 -117.5q-249 0 -400 118t-151 317zM311 414 q0 -115 89.5 -193t250.5 -78q162 0 251 76.5t89 188.5q0 125 -94 198.5t-248 73.5q-153 0 -245.5 -72.5t-92.5 -193.5zM365 1069q0 -96 77.5 -160.5t212.5 -64.5q136 0 212.5 65t74.5 162q0 109 -82 170.5t-207 61.5q-142 0 -215 -67.5t-73 -166.5z" />
<glyph unicode="9" horiz-adv-x="1282" d="M102 973q0 226 149.5 355.5t389.5 129.5q115 0 207.5 -36t153.5 -96.5t102 -143.5t58.5 -172.5t17.5 -188.5q0 -103 -16 -203t-47.5 -196t-83.5 -176.5t-119.5 -142t-160 -96t-200.5 -34.5q-97 0 -184.5 27.5t-143.5 69.5l99 141q100 -63 235 -66q79 -1 147 32.5 t114.5 87.5t81.5 125t54 141t27 141q-135 -166 -393 -166q-221 0 -354.5 126t-133.5 341zM311 975q0 -142 87.5 -222.5t232.5 -80.5q147 0 242.5 84.5t95.5 214.5q0 36 -10.5 76.5t-35.5 84.5t-61.5 78.5t-95 57t-129.5 22.5q-149 0 -237.5 -85t-88.5 -230z" />
<glyph unicode=":" horiz-adv-x="458" d="M102 104q0 52 37 89.5t90 37.5t90 -37.5t37 -89.5t-37 -89.5t-90 -37.5t-90 37.5t-37 89.5zM102 913q0 53 37 90t90 37t90 -37t37 -90t-37 -90t-90 -37t-90 37t-37 90z" />
<glyph unicode=";" horiz-adv-x="516" d="M51 -236l139 441h211l-211 -469zM160 913q0 53 37 90t90 37t90 -37t37 -90t-37 -90t-90 -37t-90 37t-37 90z" />
<glyph unicode="&#x3c;" horiz-adv-x="1146" d="M82 629v172l983 588v-215l-789 -457l789 -457v-219z" />
<glyph unicode="=" horiz-adv-x="1333" d="M102 348v176h1129v-176h-1129zM102 774v178h1129v-178h-1129z" />
<glyph unicode="&#x3e;" horiz-adv-x="1146" d="M82 41v217l790 457l-790 454v220l983 -588v-170z" />
<glyph unicode="?" horiz-adv-x="1110" d="M82 1184q82 153 199.5 217.5t287.5 64.5q210 0 334.5 -104.5t124.5 -274.5q0 -67 -15 -120t-49.5 -98.5t-71.5 -79t-99 -80.5q-106 -80 -138 -139.5t-32 -166.5h-185q0 136 36 226.5t153 181.5q11 8 40.5 30t41 31.5t34.5 30t33 36t22.5 38.5t17.5 48.5t5 55.5 q0 88 -69 151.5t-193 63.5q-121 0 -195 -49t-124 -168zM399 102q0 52 37.5 89.5t89.5 37.5q54 0 91.5 -37t37.5 -90q0 -52 -37.5 -89.5t-89.5 -37.5q-54 0 -91.5 37t-37.5 90z" />
<glyph unicode="@" horiz-adv-x="1761" d="M123 598q0 232 108.5 429t302.5 314t429 117q149 0 276 -50.5t214 -138t136 -208t49 -258.5q0 -250 -112.5 -413t-274.5 -163q-154 0 -196 140q-52 -64 -115.5 -93.5t-155.5 -29.5q-114 0 -192 93t-78 234q0 116 60 233.5t164 196t218 78.5q88 0 148.5 -34.5t85.5 -96.5 l33 96h143q0 -7 -42.5 -158.5t-85.5 -299.5l-42 -148q-2 -6 -2 -16q0 -39 21.5 -60.5t56.5 -21.5q30 0 63 16.5t67 53t61 88.5t44 131t17 172q0 248 -158 398.5t-408 150.5q-200 0 -366 -99t-261 -271t-95 -380q0 -150 52.5 -271.5t143 -199t206 -119t245.5 -41.5 q251 0 481 181l55 -91q-254 -198 -532 -198q-117 0 -228 30t-208 91.5t-170.5 148t-115.5 207t-42 260.5zM676 594q0 -105 43.5 -160t111.5 -55q80 0 149.5 65t106.5 164q31 85 31 158q0 74 -38.5 124t-123.5 50q-68 0 -134.5 -57t-106 -137.5t-39.5 -151.5z" />
<glyph unicode="A" horiz-adv-x="1423" d="M61 0l543 1440h223l535 -1440h-234l-127 356h-579l-127 -356h-234zM481 532h463l-229 680z" />
<glyph unicode="B" horiz-adv-x="1366" d="M143 0v1440h615q94 0 171.5 -19.5t139.5 -61t96.5 -113.5t34.5 -169q0 -228 -223 -301q125 -32 200.5 -119t75.5 -235q0 -103 -31 -180t-81 -122.5t-125.5 -73t-151.5 -37t-172 -9.5h-549zM360 180h349q55 0 97.5 5t87 20t74 40.5t48 70t18.5 104.5q0 72 -26.5 124 t-73.5 80t-100.5 41t-116.5 13h-357v-498zM360 852h351q270 0 270 209q0 201 -256 201h-365v-410z" />
<glyph unicode="C" horiz-adv-x="1366" d="M102 719q0 160 43 297t122.5 239t201.5 160t272 58q205 0 347 -100t217 -271l-207 -78q-47 119 -140.5 189.5t-218.5 70.5q-132 0 -227 -77t-140.5 -202.5t-45.5 -283.5q0 -114 26 -214.5t75.5 -179t130 -124t181.5 -45.5q213 0 326 200l184 -114q-82 -129 -210 -202 t-300 -73q-128 0 -234 41.5t-179.5 112.5t-125 167t-75 204t-23.5 225z" />
<glyph unicode="D" horiz-adv-x="1390" d="M143 0v1440h451q343 0 518.5 -174.5t175.5 -538.5q0 -369 -176 -549q-174 -178 -514 -178h-8h-447zM365 184h221q252 1 367.5 131.5t115.5 405.5q0 270 -114 400.5t-361 131.5h-229v-1069z" />
<glyph unicode="E" horiz-adv-x="1204" d="M143 0v1440h959v-185h-742v-411h562v-182h-562v-480h783v-182h-1000z" />
<glyph unicode="F" horiz-adv-x="1140" d="M143 0v1440h957v-183h-740v-417h558v-181h-558v-659h-217z" />
<glyph unicode="G" horiz-adv-x="1460" d="M102 713q0 217 75 388t222.5 271.5t345.5 100.5q136 0 253 -54.5t191.5 -135t115.5 -179.5l-207 -80q-16 42 -45 85t-71.5 83.5t-103.5 66t-128 25.5q-89 0 -162 -33t-120.5 -88t-79.5 -129t-46 -152t-14 -161q0 -82 14 -160t46 -152t79 -129t119.5 -88.5t161.5 -33.5 q168 0 277.5 120t111.5 293v2h-365v175h586v-121q0 -101 -25.5 -196.5t-77.5 -179.5t-125.5 -146.5t-176 -99t-222.5 -36.5q-149 0 -270.5 62t-198.5 166t-118.5 237t-41.5 279z" />
<glyph unicode="H" horiz-adv-x="1431" d="M143 0v1440h217v-604h711v604h217v-1440h-217v647h-711v-647h-217z" />
<glyph unicode="I" horiz-adv-x="503" d="M143 0v1440h217v-1440h-217z" />
<glyph unicode="J" horiz-adv-x="1101" d="M31 319l174 93q25 -129 85 -190.5t187 -61.5q262 0 262 352v928h219l-2 -899q0 -280 -111.5 -423t-359.5 -143q-186 0 -303 84.5t-151 259.5z" />
<glyph unicode="K" horiz-adv-x="1372" d="M143 0v1440h217v-744l635 744h269l-488 -549l545 -891h-254l-438 729l-267 -303v-426h-219z" />
<glyph unicode="L" horiz-adv-x="1118" d="M143 0v1442h219v-1252h715v-190h-934z" />
<glyph unicode="M" horiz-adv-x="1646" d="M143 0v1440h263l419 -1086l418 1086h260v-1440h-217v1075l-424 -1075h-76l-426 1073v-1073h-217z" />
<glyph unicode="N" horiz-adv-x="1441" d="M143 0v1440h222l716 -1114v1114h217v-1440h-217l-721 1116l2 -1116h-219z" />
<glyph unicode="O" horiz-adv-x="1482" d="M102 719q0 160 43 297t122.5 239t201.5 160t272 58t272 -58t201.5 -160t122.5 -239t43 -297q0 -159 -43 -295.5t-122.5 -238.5t-201.5 -160t-272 -58t-272 58t-201.5 160t-122.5 238.5t-43 295.5zM326 719q0 -158 45.5 -283.5t140.5 -202.5t227 -77q131 0 227.5 77.5 t143.5 204t47 283.5t-47 283t-143.5 203t-227.5 77t-226.5 -78t-141 -204t-45.5 -283z" />
<glyph unicode="P" horiz-adv-x="1282" d="M143 0v1440h568q94 0 169 -11t144.5 -40.5t115.5 -76.5t73.5 -122.5t27.5 -175.5q0 -98 -28.5 -175t-77 -126.5t-116.5 -81.5t-141 -45t-157 -13h-361v-573h-217zM360 750h347q319 0 319 258q0 65 -18.5 112t-48 74.5t-75.5 43.5t-91 21t-105 5h-328v-514z" />
<glyph unicode="Q" horiz-adv-x="1478" d="M102 719q0 160 43 297t122.5 239t201.5 160t272 58q125 0 229.5 -39.5t178.5 -109t126 -164t76.5 -204t24.5 -229.5q-2 -195 -67.5 -362t-192.5 -263l92 -129l-178 -125q-7 10 -46 65.5t-58 80.5q-80 -25 -187 -25q-128 0 -234 41.5t-179.5 112.5t-125 167t-75 204 t-23.5 225zM326 721q0 -80 13 -157t44 -151.5t76.5 -130.5t115.5 -90t156 -34q34 0 74 12l-92 129l178 125l90 -127q87 65 128.5 185.5t41.5 240.5q0 86 -15 166.5t-48 152.5t-80.5 125.5t-116.5 85t-152 31.5q-89 0 -160.5 -34.5t-118 -90.5t-77.5 -130.5t-44 -151 t-13 -156.5z" />
<glyph unicode="R" horiz-adv-x="1306" d="M143 0v1440h588q85 0 158 -13t138.5 -44.5t111.5 -79t73 -121t27 -166.5q0 -325 -356 -402l372 -614h-251l-351 594h-293v-594h-217zM360 768h340q54 0 96.5 4.5t89.5 20t78 41t51.5 71.5t20.5 109q0 248 -321 248h-355v-494z" />
<glyph unicode="S" horiz-adv-x="1230" d="M102 256l152 131q57 -119 150 -175t231 -56q146 0 223.5 64.5t77.5 172.5q0 97 -95 159t-313 128q-203 62 -304 153t-101 242q0 99 41 176.5t111.5 124t158.5 70.5t187 24q78 0 147.5 -15t117 -34.5t96.5 -55t75.5 -60t66.5 -64.5l-141 -139q-76 97 -161.5 141.5 t-209.5 44.5q-122 0 -198 -52t-76 -146q0 -90 65 -139.5t211 -92.5q299 -93 417 -197.5t118 -269.5q0 -190 -139 -306t-379 -116q-372 0 -529 287z" />
<glyph unicode="T" horiz-adv-x="1150" d="M41 1257v183h1069v-183h-426v-1257h-219v1257h-424z" />
<glyph unicode="U" horiz-adv-x="1335" d="M113 659v781h217v-856q0 -77 8.5 -137t31.5 -115.5t61 -92t98.5 -58t142.5 -21.5q79 0 139 21t96.5 56.5t59 89t31 110.5t8.5 130v873h217v-764q0 -129 -13.5 -228.5t-50 -192.5t-97 -153.5t-159.5 -96.5t-233 -36q-135 0 -235 35.5t-160.5 95t-97.5 150.5t-50.5 187.5 t-13.5 221.5z" />
<glyph unicode="V" horiz-adv-x="1357" d="M61 1440h234l383 -1190l389 1190h229l-510 -1440h-221z" />
<glyph unicode="W" horiz-adv-x="1832" d="M61 1440h222l252 -1149l286 1149h195l291 -1149l247 1149h218l-351 -1440h-215l-288 1139l-287 -1139h-213z" />
<glyph unicode="X" horiz-adv-x="1386" d="M61 0l502 760l-446 680h258l321 -527l326 527h250l-447 -678l500 -762h-256l-375 608l-385 -608h-248z" />
<glyph unicode="Y" horiz-adv-x="1339" d="M31 1440h252l383 -674l391 674h252l-537 -858v-582h-217v580z" />
<glyph unicode="Z" horiz-adv-x="1243" d="M72 0v158l835 1097h-790v185h1054v-164l-827 -1094h823v-182h-1095z" />
<glyph unicode="[" horiz-adv-x="659" d="M143 -299v1925h435v-153h-242v-1618h242v-154h-435z" />
<glyph unicode="\" horiz-adv-x="966" d="M31 1532h213l692 -1624h-213z" />
<glyph unicode="]" horiz-adv-x="659" d="M82 -145h244v1615h-244v156h434v-1925h-434v154z" />
<glyph unicode="^" horiz-adv-x="1236" d="M143 735l400 705h159l392 -705h-207l-266 496l-273 -496h-205z" />
<glyph unicode="_" horiz-adv-x="1024" d="M-10 -162h1044v-135h-1044v135z" />
<glyph unicode="`" horiz-adv-x="765" d="M143 1495h277l203 -307h-152z" />
<glyph unicode="a" d="M102 301q0 88 39 157.5t107 112t154.5 64.5t185.5 22q96 0 174 -20v68q0 94 -50 142t-161 48q-66 0 -116 -19.5t-79.5 -48.5t-56.5 -73l-139 94q113 213 415 213q175 0 283.5 -87.5t108.5 -250.5v-578q0 -29 13 -37t40 -8h16h6v-100h-155q-58 0 -91.5 33t-33.5 88v6 q-112 -150 -326 -150q-155 0 -244.5 88t-89.5 236zM301 303q0 -76 47.5 -121t130.5 -45q90 0 171.5 54t111.5 137v139q-41 41 -152 41q-130 0 -219.5 -59t-89.5 -146z" />
<glyph unicode="b" d="M143 0v1440h205v-522q109 143 295 143q179 0 289 -143t110 -396q0 -244 -107.5 -394.5t-301.5 -150.5q-101 0 -167.5 40.5t-117.5 103.5v-121h-205zM348 322q40 -86 108 -128t140 -42q238 0 238 370q0 165 -62.5 266t-179.5 101q-96 0 -161 -69.5t-83 -172.5v-325z" />
<glyph unicode="c" horiz-adv-x="1056" d="M102 516q0 130 37.5 234.5t103.5 172.5t154 104t191 36q74 0 137.5 -18.5t110.5 -52.5t78 -65.5t61 -72.5l-156 -104q-83 141 -233 141q-121 0 -197 -99t-76 -272q0 -73 15 -137.5t45.5 -119t84.5 -86.5t126 -32q74 0 129.5 37t103.5 111l158 -96q-73 -114 -170.5 -169 t-231.5 -55q-216 0 -343.5 149t-127.5 394z" />
<glyph unicode="d" d="M102 522q0 253 110.5 396t289.5 143q183 0 295 -143v522h204v-1440h-204v121q-25 -30 -48 -51.5t-58 -44.5t-80.5 -35.5t-98.5 -12.5q-131 0 -224.5 71t-139.5 193t-46 281zM311 522q0 -370 236 -370q73 0 141 42t109 128v325q-18 103 -83 172.5t-161 69.5 q-117 0 -179.5 -99.5t-62.5 -267.5z" />
<glyph unicode="e" horiz-adv-x="1124" d="M102 522q0 248 133 393.5t336 145.5q116 0 206 -43t144.5 -119t82.5 -173t28 -210q0 -13 -4 -45h-715q2 -66 18 -123t48 -104t85.5 -74t123.5 -27q84 0 152 33t132 111l136 -105q-159 -209 -433 -209q-215 0 -344 149t-129 400zM313 618h514q-13 126 -75 202.5t-181 76.5 q-108 0 -175.5 -74t-82.5 -205z" />
<glyph unicode="f" horiz-adv-x="741" d="M72 877v159h164v142q0 135 66 208.5t194 73.5q108 0 168 -45v-172q-37 64 -113 64q-57 0 -85 -36t-28 -97v-138h232v-159h-232v-877h-202v877h-164z" />
<glyph unicode="g" horiz-adv-x="1159" d="M102 518q0 251 118.5 396t309.5 145q184 0 281 -146v123h205v-968q0 -233 -130.5 -371.5t-346.5 -138.5q-240 0 -381 209l149 106q37 -60 97 -99.5t133 -39.5q124 0 198 87t74 212v90q-106 -148 -297 -148q-189 0 -299.5 146.5t-110.5 396.5zM309 518q0 -371 252 -371 q108 0 172 60q16 14 28 29.5t27 38.5t23 34v350q-19 99 -91 164.5t-163 65.5q-85 0 -142 -52t-81.5 -133t-24.5 -186z" />
<glyph unicode="h" horiz-adv-x="1136" d="M143 0v1440h207v-520q44 67 119.5 105t173.5 38q191 0 276 -114t85 -326v-623h-209v588q0 68 -7 115t-28 91t-64.5 66.5t-109.5 22.5q-236 0 -236 -336v-547h-207z" />
<glyph unicode="i" horiz-adv-x="532" d="M143 1343q0 51 36 87t87 36t87 -36t36 -87t-36 -86.5t-87 -35.5t-87 35.5t-36 86.5zM164 0v1036h207v-1036h-207z" />
<glyph unicode="j" horiz-adv-x="458" d="M-82 -260q32 -4 37 -4q66 0 99.5 40.5t33.5 110.5v1149h207v-1171q0 -141 -70.5 -216t-199.5 -75q-38 0 -58 4zM68 1343q0 51 36.5 87t88.5 36q51 0 86.5 -36t35.5 -87t-35.5 -86.5t-86.5 -35.5q-52 0 -88.5 35.5t-36.5 86.5z" />
<glyph unicode="k" horiz-adv-x="1089" d="M143 0v1440h207v-875l408 471h248l-344 -377l376 -659h-233l-287 502l-168 -193v-309h-207z" />
<glyph unicode="l" horiz-adv-x="495" d="M143 0v1440h209v-1440h-209z" />
<glyph unicode="m" horiz-adv-x="1722" d="M143 0v1036h207v-137q40 83 118 121.5t163 38.5q103 0 181 -48.5t112 -144.5q49 94 124 143.5t195 49.5q178 0 257 -115.5t79 -351.5v-592h-209v580q0 165 -43 232t-143 67q-219 0 -219 -344v-535h-207v586q0 152 -43 222.5t-144 70.5q-112 0 -166.5 -93.5t-54.5 -255.5 v-530h-207z" />
<glyph unicode="n" horiz-adv-x="1148" d="M143 0v1036h207v-129q42 66 116 109t181 43q188 0 273.5 -115.5t85.5 -343.5v-600h-209v573q0 162 -46.5 234t-160.5 72q-127 0 -183.5 -82t-56.5 -254v-543h-207z" />
<glyph unicode="o" horiz-adv-x="1171" d="M102 520q0 244 130.5 395.5t355.5 151.5q224 0 352.5 -153t128.5 -398q0 -244 -128 -394.5t-353 -150.5q-224 0 -355 153t-131 396zM313 518q0 -75 14 -139t44.5 -119t85 -87t129.5 -32q74 0 129 31.5t85 87t44 119.5t14 139q0 76 -14 140.5t-44 119.5t-84.5 87 t-129.5 32t-129.5 -32t-85 -87t-44.5 -120t-14 -140z" />
<glyph unicode="p" horiz-adv-x="1142" d="M143 -410v1446h205v-118q108 141 293 141q130 0 221.5 -72.5t134.5 -191.5t43 -273q0 -248 -110 -397.5t-299 -149.5q-185 0 -283 138v-523h-205zM348 315q32 -79 99.5 -122t142.5 -43q66 0 114.5 30.5t76 84.5t40.5 118.5t13 140.5q0 167 -62 263.5t-182 97.5 q-46 0 -84 -16.5t-62.5 -40t-45 -58.5t-30.5 -62t-20 -61v-332z" />
<glyph unicode="q" d="M102 512q0 83 14 160t45.5 148t78 123.5t116.5 84t156 31.5q87 0 162 -34t121 -101v112h206v-1446h-206v529q-105 -144 -293 -144q-183 0 -291.5 143.5t-108.5 393.5zM309 516q0 -162 63.5 -264t182.5 -102q98 0 159 67.5t83 171.5l-2 354q-34 53 -104 96.5t-140 43.5 q-120 0 -181 -97t-61 -270z" />
<glyph unicode="r" horiz-adv-x="794" d="M143 0v1036h205v-131q100 152 297 152q71 0 119 -17l-84 -186q-9 4 -20.5 10.5t-17 8.5t-15.5 4t-25 2q-77 0 -128 -23.5t-78 -71.5t-37.5 -108t-10.5 -146v-530h-205z" />
<glyph unicode="s" horiz-adv-x="972" d="M102 158l123 123q93 -140 273 -140q98 0 155.5 40t57.5 104q0 66 -63 103.5t-224 86.5q-154 45 -225.5 114.5t-71.5 180.5q0 76 31 134t84 91t116 49.5t134 16.5q123 0 212.5 -35.5t172.5 -122.5l-119 -119q-64 64 -122 89.5t-142 25.5q-72 0 -127.5 -29t-55.5 -90 q0 -23 10 -41.5t23 -31.5t44.5 -27.5t56 -24t75.5 -26.5q104 -35 167.5 -64t113 -68.5t70 -89.5t20.5 -120q0 -141 -105 -227.5t-290 -86.5q-269 0 -394 185z" />
<glyph unicode="t" horiz-adv-x="782" d="M92 877v159h164v404h203v-404h231v-159h-231v-605q0 -63 20.5 -89.5t71.5 -26.5q56 0 137 45v-174q-89 -47 -199 -47q-131 0 -182 74t-51 208v615h-164z" />
<glyph unicode="u" horiz-adv-x="1128" d="M123 449v587h209v-573q0 -162 45.5 -234.5t159.5 -72.5q68 0 116 25t74 72.5t37.5 105.5t11.5 135v542h209v-1036h-207v131q-99 -154 -297 -154q-87 0 -152 26.5t-103.5 69t-62 106t-32 127.5t-8.5 143z" />
<glyph unicode="v" horiz-adv-x="1052" d="M61 1036h220l241 -796l254 796h215l-375 -1036h-192z" />
<glyph unicode="w" horiz-adv-x="1509" d="M61 1036h209l197 -766l203 766h178l203 -766l190 766h207l-301 -1036h-186l-203 784l-203 -784h-184z" />
<glyph unicode="x" horiz-adv-x="1052" d="M61 0l349 539l-320 497h232l206 -352l213 352h222l-320 -493l348 -543h-229l-238 395l-241 -395h-222z" />
<glyph unicode="y" horiz-adv-x="1077" d="M61 1036h218l251 -819l269 819h217l-459 -1231q-86 -231 -264 -231q-70 0 -119 16v174q37 -28 86 -28q32 0 64 29t49 75l53 156z" />
<glyph unicode="z" horiz-adv-x="905" d="M51 0v137l535 729h-490v170h754v-135l-535 -729h539v-172h-803z" />
<glyph unicode="{" horiz-adv-x="813" d="M143 627v137q86 24 123 81t37 152v183q0 158 43 250t134.5 134.5t250.5 47.5v-123q-73 -13 -118.5 -36t-70.5 -62.5t-33.5 -87.5t-8.5 -123v-117q0 -190 -31.5 -262.5t-134.5 -108.5q55 -18 90 -49t51.5 -75t21.5 -85.5t5 -101.5v-242q0 -150 46 -216t183 -93v-123 q-116 5 -192.5 26t-131 68.5t-78.5 125.5t-24 196v258q0 184 -162 246z" />
<glyph unicode="|" horiz-adv-x="192" d="M-102 -444l217 2031h180l-217 -2031h-180z" />
<glyph unicode="}" horiz-adv-x="813" d="M82 -170q137 27 183 93t46 216v242q0 60 5.5 101.5t22 85.5t51.5 75t89 49q-102 36 -134 109t-32 262v117q0 75 -8.5 123t-33.5 87.5t-70.5 62.5t-118.5 36v123q159 -5 250.5 -47.5t134.5 -134.5t43 -250v-183q0 -95 37 -152t123 -81v-137q-160 -62 -160 -246v-258 q0 -118 -24.5 -196t-79 -125.5t-131.5 -68.5t-193 -26v123z" />
<glyph unicode="~" horiz-adv-x="1259" d="M143 618q31 69 66.5 116t92 79.5t126.5 32.5q52 0 110 -23t101 -50t94 -50t90 -23q54 0 92 33.5t84 110.5q15 -13 59 -53t58 -52q-58 -110 -127 -165.5t-162 -55.5q-50 0 -107 22.5t-99.5 49.5t-94.5 49.5t-94 22.5q-53 0 -84 -29t-86 -119z" />
<glyph unicode="&#xa1;" horiz-adv-x="540" d="M143 936q0 54 37 90.5t90 36.5t90 -36.5t37 -90.5q0 -52 -37 -88.5t-90 -36.5t-90 36.5t-37 88.5zM170 266l41 359h127l39 -359v-676h-207v676z" />
<glyph unicode="&#xa2;" horiz-adv-x="1034" d="M102 645q0 98 23 186t69.5 161.5t122.5 124t175 67.5v256h172v-252q100 -14 170.5 -62.5t138.5 -136.5l-150 -100q-41 65 -102.5 102t-136.5 37q-72 0 -127.5 -33t-87 -88t-47 -119.5t-15.5 -136.5t14.5 -136.5t45.5 -120t86 -88t129 -32.5q162 0 237 141q2 2 2 3 l152 -92q-10 -16 -23.5 -34t-43 -48.5t-62 -54.5t-81 -45.5t-99.5 -28.5v-250h-172v250q-130 19 -220 98t-130 189t-40 243z" />
<glyph unicode="&#xa3;" horiz-adv-x="1239" d="M143 0v1087q0 181 122.5 280t322.5 99q142 0 240 -38.5t176 -137.5l-152 -94q-50 56 -107 76t-145 20q-113 0 -181.5 -65.5t-68.5 -161.5v-160h420v-176h-420v-530h436q62 0 112 37t50 96q0 49 -34 95.5t-78 72.5l143 123q63 -35 115.5 -119.5t52.5 -173.5 q0 -152 -91.5 -241t-244.5 -89h-668z" />
<glyph unicode="&#xa4;" horiz-adv-x="1460" d="M0 508l41 131h160q-4 54 -4 80q0 10 1 30t1 29h-199l41 133h172q47 253 210 407.5t413 154.5q205 0 347.5 -100.5t215.5 -270.5q-170 -64 -211 -78q-48 120 -138 190t-216 70q-154 0 -255.5 -102t-138.5 -271h498l-45 -133h-471q0 -9 -1 -28t-1 -29q0 -28 4 -82h514 l-45 -131h-447q18 -69 49 -128.5t78.5 -111t116.5 -81t152 -29.5q204 0 329 223l203 -92q-195 -320 -528 -320q-135 0 -245 42t-185.5 117t-124 170t-72.5 210h-219z" />
<glyph unicode="&#xa5;" horiz-adv-x="1380" d="M51 1440h252l383 -674l391 674h252l-432 -695h229v-116h-303l-30 -49v-136h333v-118h-333v-326h-218v326h-325v118h325v136l-28 49h-297v116h223z" />
<glyph unicode="&#xa6;" horiz-adv-x="598" d="M205 0v549h188v-549h-188zM205 889v551h188v-551h-188z" />
<glyph unicode="&#xa7;" horiz-adv-x="1234" d="M102 666q0 110 63.5 193.5t172.5 129.5q-109 89 -109 209q0 131 102 221t279 90q213 0 422 -157l-108 -140q-165 125 -328 125q-79 0 -125.5 -35t-46.5 -92q0 -34 22 -63.5t59 -51t77 -38.5t84 -33l18 -6q124 -45 201 -81.5t137 -84t85.5 -106t25.5 -136.5 q0 -111 -61.5 -197t-166.5 -143q117 -87 117 -219q0 -140 -108.5 -231.5t-292.5 -91.5q-243 0 -455 170l113 141q174 -137 356 -137q91 0 141.5 40t50.5 101t-52.5 101.5t-199.5 91.5q-261 90 -367 183t-106 247zM297 680q0 -61 55.5 -112t165.5 -101q44 -19 130 -54 t120 -51q71 39 121.5 101t50.5 129q0 31 -10.5 56.5t-33 46t-41 33t-50.5 30.5q-9 5 -14 8q-73 41 -310 131q-184 -89 -184 -217z" />
<glyph unicode="&#xa8;" horiz-adv-x="806" d="M102 1331q0 44 31.5 76.5t75.5 32.5t76 -32.5t32 -76.5q0 -43 -32 -74.5t-76 -31.5t-75.5 31.5t-31.5 74.5zM489 1331q0 44 32.5 76.5t76.5 32.5t75.5 -32.5t31.5 -76.5q0 -43 -31.5 -74.5t-75.5 -31.5t-76.5 31.5t-32.5 74.5z" />
<glyph unicode="&#xa9;" horiz-adv-x="1714" d="M123 719q0 208 97 377t265 263.5t373 94.5t373 -95t264 -263.5t96 -376.5q0 -205 -95 -373t-263.5 -264t-376.5 -96q-149 0 -283.5 54.5t-233.5 149.5t-157.5 233t-58.5 296zM213 719q0 -136 49.5 -256t134.5 -205.5t205 -135.5t256 -50q178 0 325 83t232.5 231.5 t85.5 332.5v-2q1 182 -82 331t-230.5 234.5t-330.5 85.5q-179 0 -326.5 -83.5t-233 -232.5t-85.5 -333zM451 721q0 196 116 325.5t299 129.5q213 0 338 -175l-112 -88q-44 59 -96 93t-130 34q-117 0 -193.5 -90t-76.5 -225q0 -140 77.5 -229.5t194.5 -89.5q132 0 230 124 l108 -88q-132 -174 -342 -174q-181 0 -297 128t-116 325z" />
<glyph unicode="&#xaa;" horiz-adv-x="884" d="M102 948q0 109 98 177.5t253 68.5q61 0 125 -12v35v2q0 61 -34.5 89.5t-107.5 28.5q-68 0 -106.5 -22t-75.5 -72l-104 74q53 78 122.5 110.5t178.5 32.5q136 0 213 -64.5t77 -160.5v-391q0 -9 6 -17t15 -8h20v-74h-100q-48 0 -75 20.5t-29 53.5q-85 -88 -224 -88 q-112 0 -182 61.5t-70 155.5zM252 948q0 -46 31.5 -72t87.5 -26q65 0 129 35.5t78 77.5v96q-27 22 -109 22q-87 0 -152 -37t-65 -96z" />
<glyph unicode="&#xab;" horiz-adv-x="1124" d="M92 580l338 473l162 -41l-311 -430l323 -441h-192zM520 580l340 473l160 -41l-311 -430l323 -441h-190z" />
<glyph unicode="&#xac;" horiz-adv-x="1294" d="M82 561v174h1110v-491h-176v317h-934z" />
<glyph unicode="&#xad;" horiz-adv-x="743" d="M102 604v199h539v-199h-539z" />
<glyph unicode="&#xae;" horiz-adv-x="1716" d="M123 719q0 210 98.5 379t266 262.5t368.5 93.5q208 0 377 -96.5t264.5 -265t95.5 -373.5h-2q0 -207 -96 -375t-264.5 -263t-374.5 -95q-148 0 -282.5 54.5t-234 149.5t-158 233t-58.5 296zM213 721q0 -138 50.5 -259t136.5 -206.5t204.5 -134.5t251.5 -49q181 0 329 84 t232.5 232t85.5 331q0 136 -49 256.5t-134.5 206.5t-205 136t-254.5 50q-136 0 -256 -49.5t-205.5 -135t-135.5 -206t-50 -256.5zM565 297v866h318q317 0 317 -239q0 -89 -51.5 -146.5t-134.5 -79.5q30 -11 61 -61.5t47 -106.5q48 -162 84 -233h-168q-27 51 -65 195 q-20 71 -60.5 123.5t-93.5 52.5h-106v-371h-148zM713 788h164q176 0 176 130q0 40 -15.5 67t-44.5 39t-58 16t-69 4h-153v-256z" />
<glyph unicode="&#xaf;" horiz-adv-x="862" d="M143 1233v156h576v-156h-576z" />
<glyph unicode="&#xb0;" horiz-adv-x="917" d="M102 1135q0 151 103 254.5t254 103.5t253.5 -103.5t102.5 -254.5q0 -154 -102 -258.5t-254 -104.5q-151 0 -254 104.5t-103 258.5zM262 1135q0 -90 56 -148.5t141 -58.5q86 0 141 58t55 149q0 88 -55 146t-141 58q-85 0 -141 -58t-56 -146z" />
<glyph unicode="&#xb2;" horiz-adv-x="1030" d="M125 401q3 187 129 310q73 76 128 119.5t163 113.5q81 52 113 98.5t32 96.5q0 55 -45.5 96t-128.5 41q-143 0 -225 -143l-160 81q30 67 78 116t103.5 75.5t110.5 38.5t112 12q159 0 264.5 -82.5t105.5 -234.5q0 -103 -56 -181t-190 -161q-202 -124 -256 -213h504v-183 h-782z" />
<glyph unicode="&#xb3;" horiz-adv-x="1038" d="M98 627l162 90q35 -75 92 -115.5t152 -40.5q97 0 147.5 38.5t50.5 107.5q0 67 -47 106t-143 39h-150v168h132q90 0 134 37t44 94q0 59 -43.5 98t-120.5 39q-153 0 -215 -141l-160 82q41 110 138.5 169.5t248.5 59.5q171 0 266 -78t95 -206q0 -74 -36.5 -137.5 t-99.5 -92.5q72 -25 120 -94t48 -148q0 -144 -104 -230.5t-291 -86.5q-152 0 -262 65.5t-158 176.5z" />
<glyph unicode="&#xb4;" horiz-adv-x="684" d="M102 1188l203 307h277l-328 -307h-152z" />
<glyph unicode="&#xb6;" horiz-adv-x="1300" d="M123 1018q0 175 123.5 298.5t298.5 123.5h612v-137h-39v-1713h-151v1713h-236v-1713h-151v1006h-35q-175 0 -298.5 123.5t-123.5 298.5z" />
<glyph unicode="&#xb7;" horiz-adv-x="499" d="M123 721q0 53 37.5 90t89.5 37t89.5 -37t37.5 -90t-37.5 -90t-89.5 -37t-89.5 37t-37.5 90z" />
<glyph unicode="&#xb8;" horiz-adv-x="694" d="M143 -377l21 72q66 -29 127 -29q64 0 90.5 23.5t26.5 52.5q0 28 -19.5 45.5t-54.5 17.5q-41 0 -72 -22l-65 18l94 213h88l-60 -133q49 17 84 17q63 0 105.5 -37.5t42.5 -102.5q0 -88 -66 -132t-163 -44q-79 0 -179 41z" />
<glyph unicode="&#xb9;" horiz-adv-x="669" d="M98 1139v161q67 1 109 12t70 42t32 86h191v-1039h-213v764q-82 -26 -189 -26z" />
<glyph unicode="&#xba;" horiz-adv-x="913" d="M102 1100q0 164 97.5 265t259.5 101q163 0 257.5 -99.5t94.5 -260.5q1 -75 -21.5 -140.5t-66 -116.5t-111.5 -80.5t-153 -29.5q-164 0 -260.5 100t-96.5 261zM272 1100q0 -106 46 -170t137 -64q90 0 139 62.5t49 175.5q0 49 -9 89.5t-29 75t-57 53.5t-89 19 q-55 -1 -94.5 -24t-58 -61.5t-26.5 -76t-8 -79.5z" />
<glyph unicode="&#xbb;" horiz-adv-x="1124" d="M92 139l324 449l-312 424l160 41l338 -465l-319 -447zM520 139l324 449l-312 424l162 41l338 -465l-319 -447z" />
<glyph unicode="&#xbc;" horiz-adv-x="1931" d="M98 1139v161q67 1 109 12t70 42t32 86h191v-1039h-213v764q-82 -26 -189 -26zM463 -16l790 1489l152 -17l-793 -1487zM1038 225v156l504 655h215v-635h80v-176h-80v-225h-209v225h-510zM1274 397h274v353z" />
<glyph unicode="&#xbd;" horiz-adv-x="2131" d="M98 1139v161q67 1 109 12t70 42t32 86h191v-1039h-213v764q-82 -26 -189 -26zM465 -16l790 1489l152 -17l-793 -1487zM1233 0q3 181 127 309q77 77 133 121t160 111q81 54 113 100.5t32 95.5q0 53 -46 94t-130 41q-143 0 -223 -141l-160 82q29 67 76.5 116t103.5 75.5 t111 38.5t112 12q101 0 183.5 -34.5t135 -108t52.5 -175.5q0 -103 -56 -181.5t-192 -162.5q-199 -120 -256 -213h506v-180h-782z" />
<glyph unicode="&#xbe;" horiz-adv-x="2242" d="M98 627l162 90q35 -76 91.5 -116t152.5 -40q97 0 147.5 38.5t50.5 107.5q0 67 -47 106t-143 39h-150v168h132q90 0 134 37t44 94q0 59 -43.5 98t-120.5 39q-153 0 -215 -141l-160 82q41 110 138.5 169.5t248.5 59.5q171 0 266 -78t95 -206q0 -74 -36.5 -137.5 t-99.5 -92.5q72 -25 120 -94t48 -148q0 -144 -104 -230.5t-291 -86.5q-152 0 -262 65.5t-158 176.5zM776 -16l791 1489l151 -17l-792 -1487zM1352 225v156l506 655h215v-635h77v-176h-77v-225h-211v225h-510zM1589 397h273v353z" />
<glyph unicode="&#xbf;" horiz-adv-x="1110" d="M82 -51q0 68 15 121t49.5 99t71 79.5t99.5 81.5q103 75 136.5 132t33.5 171h199q0 -142 -41 -227.5t-164 -180.5q-10 -7 -40 -30t-41 -32t-34 -29.5t-32.5 -36t-22.5 -38t-17.5 -48t-4.5 -54.5q0 -89 68.5 -152t191.5 -63t196 48t125 167l158 -104q-84 -153 -201.5 -218 t-287.5 -65q-209 0 -333 104.5t-124 274.5zM455 934q0 54 37 90.5t90 36.5q54 0 91.5 -36.5t37.5 -90.5q0 -52 -37.5 -88.5t-91.5 -36.5q-53 0 -90 36.5t-37 88.5z" />
<glyph unicode="&#xc0;" horiz-adv-x="1423" d="M61 0l543 1440h223l535 -1440h-234l-127 356h-579l-127 -356h-234zM352 1870h277l202 -307h-151zM481 532h463l-229 680z" />
<glyph unicode="&#xc1;" horiz-adv-x="1423" d="M61 0l543 1440h223l535 -1440h-234l-127 356h-579l-127 -356h-234zM481 532h463l-229 680zM594 1563l203 307h276l-328 -307h-151z" />
<glyph unicode="&#xc2;" horiz-adv-x="1423" d="M61 0l543 1440h223l535 -1440h-234l-127 356h-579l-127 -356h-234zM379 1579l252 305h162l258 -305h-158l-184 164l-179 -164h-151zM481 532h463l-229 680z" />
<glyph unicode="&#xc3;" horiz-adv-x="1423" d="M61 0l543 1440h223l535 -1440h-234l-127 356h-579l-127 -356h-234zM356 1608q8 101 62.5 171t146.5 70q46 0 92.5 -17t77.5 -37t65.5 -37t59.5 -17q63 0 84 104l35 -2q6 0 14.5 -0.5t30.5 -2t49 -3.5q-13 -108 -67.5 -177t-143.5 -69q-44 0 -90 17.5t-78.5 39t-68 39 t-60.5 17.5q-61 0 -80 -102zM481 532h463l-229 680z" />
<glyph unicode="&#xc4;" horiz-adv-x="1423" d="M61 0l543 1440h223l535 -1440h-234l-127 356h-579l-127 -356h-234zM414 1677q0 45 31 77t75 32t75.5 -32.5t31.5 -76.5q0 -43 -31.5 -74.5t-75.5 -31.5t-75 31.5t-31 74.5zM481 532h463l-229 680zM801 1677q0 44 31.5 76.5t74.5 32.5q44 0 76.5 -32.5t32.5 -76.5 q0 -43 -32.5 -74.5t-76.5 -31.5q-43 0 -74.5 31.5t-31.5 74.5z" />
<glyph unicode="&#xc5;" horiz-adv-x="1423" d="M61 0l543 1440h223l535 -1440h-234l-127 356h-579l-127 -356h-234zM481 532h463l-229 680zM500 1718q0 90 61.5 151.5t153.5 61.5q91 0 153 -62t62 -151q0 -90 -62.5 -152.5t-152.5 -62.5q-92 0 -153.5 62.5t-61.5 152.5zM604 1718q0 -48 31 -80t78 -32q49 0 79.5 32 t30.5 80t-30.5 79.5t-79.5 31.5q-47 0 -78 -32t-31 -79z" />
<glyph unicode="&#xc6;" horiz-adv-x="2123" d="M61 0l934 1440h1020v-183h-751v-415h569v-183h-569v-477h788v-182h-997v340h-533l-213 -340h-248zM631 518h424q0 62 1 343t1 343q-53 -90 -211 -344.5t-215 -341.5z" />
<glyph unicode="&#xc7;" horiz-adv-x="1386" d="M102 719q0 160 43 297t122.5 239t201.5 160t272 58q205 0 347 -100t217 -271l-211 -78q-48 120 -139 190t-216 70q-132 0 -227 -77t-140.5 -202.5t-45.5 -283.5q0 -114 26 -214.5t75.5 -179t130 -124t181.5 -45.5q213 0 326 200l184 -114q-167 -266 -489 -275l-39 -90 q47 21 90 21q61 0 103 -38.5t42 -103.5q0 -86 -64 -132t-167 -46q-76 0 -176 41l18 72q69 -29 131 -29q61 0 88 23.5t27 52.5t-20 47t-56 18t-69 -20l-66 14l70 172q-114 10 -209 56.5t-161 117.5t-111.5 164t-67 196.5t-21.5 213.5z" />
<glyph unicode="&#xc8;" horiz-adv-x="1204" d="M143 0v1440h959v-185h-742v-411h562v-182h-562v-480h783v-182h-1000zM315 1870h277l203 -307h-150z" />
<glyph unicode="&#xc9;" horiz-adv-x="1204" d="M143 0v1440h959v-185h-742v-411h562v-182h-562v-480h783v-182h-1000zM539 1563l202 307h277l-328 -307h-151z" />
<glyph unicode="&#xca;" horiz-adv-x="1204" d="M143 0v1440h959v-185h-742v-411h562v-182h-562v-480h783v-182h-1000zM311 1579l254 305h160l258 -305h-156l-184 164l-178 -164h-154z" />
<glyph unicode="&#xcb;" horiz-adv-x="1204" d="M143 0v1440h959v-185h-742v-411h562v-182h-562v-480h783v-182h-1000zM346 1677q0 44 32.5 76.5t76.5 32.5q43 0 74.5 -32.5t31.5 -76.5q0 -43 -31.5 -74.5t-74.5 -31.5q-44 0 -76.5 31.5t-32.5 74.5zM735 1677q0 44 31.5 76.5t75.5 32.5t75 -32t31 -77q0 -43 -31 -74.5 t-75 -31.5t-75.5 31.5t-31.5 74.5z" />
<glyph unicode="&#xcc;" horiz-adv-x="555" d="M-92 1870h276l203 -307h-151zM162 0v1440h217v-1440h-217z" />
<glyph unicode="&#xcd;" horiz-adv-x="555" d="M160 1563l202 307h277l-328 -307h-151zM162 0v1440h217v-1440h-217z" />
<glyph unicode="&#xce;" horiz-adv-x="555" d="M-59 1579l254 305h159l260 -305h-157l-185 164l-178 -164h-153zM162 0v1440h217v-1440h-217z" />
<glyph unicode="&#xcf;" horiz-adv-x="555" d="M-25 1677q0 44 32.5 76.5t76.5 32.5t75 -32t31 -77q0 -43 -31 -74.5t-75 -31.5t-76.5 31.5t-32.5 74.5zM162 0v1440h217v-1440h-217zM365 1677q0 45 31 77t75 32t75.5 -32.5t31.5 -76.5q0 -43 -31.5 -74.5t-75.5 -31.5t-75 31.5t-31 74.5z" />
<glyph unicode="&#xd0;" horiz-adv-x="1435" d="M41 674v166h137v600h410q234 0 377 -62q168 -71 262 -236.5t94 -414.5q0 -417 -250 -602q-90 -68 -207.5 -96.5t-279.5 -28.5h-406v674h-137zM393 184h197q202 0 311 64q96 58 148.5 178t52.5 295q0 162 -59 288t-166 187q-105 57 -273 57h-211v-411h338v-168h-338v-490z " />
<glyph unicode="&#xd1;" horiz-adv-x="1441" d="M143 0v1440h222l716 -1114v1114h217v-1440h-217l-721 1116l2 -1116h-219zM365 1608q8 101 63 171t147 70q45 0 91 -17t77 -37t65.5 -37t59.5 -17q66 0 84 104l35 -2q6 0 14.5 -0.5t30.5 -2t49 -3.5q-13 -109 -67 -177.5t-142 -68.5q-55 0 -113.5 28.5t-106.5 56.5t-77 28 q-34 0 -52 -24.5t-29 -77.5z" />
<glyph unicode="&#xd2;" horiz-adv-x="1478" d="M102 719q0 160 43 297t122.5 239t201.5 160t272 58q127 0 232.5 -40.5t179 -110.5t124.5 -165t75 -203.5t24 -226.5q-1 -118 -25 -227.5t-75 -206.5t-124.5 -168.5t-179.5 -113.5t-233 -42q-128 0 -234 41.5t-179.5 112.5t-125 167t-75 204t-23.5 225zM326 721 q0 -114 26 -214.5t75.5 -179t130 -124t181.5 -45.5q87 0 158.5 35.5t117.5 93t77.5 132.5t45 151t13.5 153q0 108 -25 206t-73.5 178.5t-129.5 128.5t-184 48q-132 0 -227 -77t-140.5 -202.5t-45.5 -283.5zM375 1870h276l203 -307h-152z" />
<glyph unicode="&#xd3;" horiz-adv-x="1478" d="M102 719q0 160 43 297t122.5 239t201.5 160t272 58q127 0 232.5 -40.5t179 -110.5t124.5 -165t75 -203.5t24 -226.5q-1 -118 -25 -227.5t-75 -206.5t-124.5 -168.5t-179.5 -113.5t-233 -42q-128 0 -234 41.5t-179.5 112.5t-125 167t-75 204t-23.5 225zM326 721 q0 -114 26 -214.5t75.5 -179t130 -124t181.5 -45.5q87 0 158.5 35.5t117.5 93t77.5 132.5t45 151t13.5 153q0 108 -25 206t-73.5 178.5t-129.5 128.5t-184 48q-132 0 -227 -77t-140.5 -202.5t-45.5 -283.5zM627 1563l202 307h277l-328 -307h-151z" />
<glyph unicode="&#xd4;" horiz-adv-x="1478" d="M102 719q0 160 43 297t122.5 239t201.5 160t272 58q127 0 232.5 -40.5t179 -110.5t124.5 -165t75 -203.5t24 -226.5q-1 -118 -25 -227.5t-75 -206.5t-124.5 -168.5t-179.5 -113.5t-233 -42q-128 0 -234 41.5t-179.5 112.5t-125 167t-75 204t-23.5 225zM326 721 q0 -114 26 -214.5t75.5 -179t130 -124t181.5 -45.5q87 0 158.5 35.5t117.5 93t77.5 132.5t45 151t13.5 153q0 108 -25 206t-73.5 178.5t-129.5 128.5t-184 48q-132 0 -227 -77t-140.5 -202.5t-45.5 -283.5zM403 1579l252 305h162l258 -305h-157l-185 164l-176 -164h-154z " />
<glyph unicode="&#xd5;" horiz-adv-x="1478" d="M102 719q0 160 43 297t122.5 239t201.5 160t272 58q127 0 232.5 -40.5t179 -110.5t124.5 -165t75 -203.5t24 -226.5q-1 -118 -25 -227.5t-75 -206.5t-124.5 -168.5t-179.5 -113.5t-233 -42q-128 0 -234 41.5t-179.5 112.5t-125 167t-75 204t-23.5 225zM326 721 q0 -114 26 -214.5t75.5 -179t130 -124t181.5 -45.5q87 0 158.5 35.5t117.5 93t77.5 132.5t45 151t13.5 153q0 108 -25 206t-73.5 178.5t-129.5 128.5t-184 48q-132 0 -227 -77t-140.5 -202.5t-45.5 -283.5zM381 1608q8 101 63.5 171t145.5 70q46 0 92.5 -17t77.5 -37 t65.5 -37t59.5 -17q66 0 84 104l35 -2q6 0 14.5 -0.5t30.5 -2t49 -3.5q-13 -108 -67.5 -177t-143.5 -69q-44 0 -90 17.5t-78.5 39t-68 39t-60.5 17.5q-61 0 -80 -102z" />
<glyph unicode="&#xd6;" horiz-adv-x="1482" d="M102 719q0 160 43 297t122.5 239t201.5 160t272 58q127 0 232.5 -40.5t179 -110.5t124.5 -165t75 -203.5t24 -226.5q-1 -118 -25 -227.5t-75 -206.5t-124.5 -168.5t-179.5 -113.5t-233 -42q-128 0 -234 41.5t-179.5 112.5t-125 167t-75 204t-23.5 225zM326 721 q0 -114 26 -214.5t75.5 -179t130 -124t181.5 -45.5q87 0 158.5 35.5t117.5 93t77.5 132.5t45 151t13.5 153q0 108 -25 206t-73.5 178.5t-129.5 128.5t-184 48q-132 0 -227 -77t-140.5 -202.5t-45.5 -283.5zM438 1677q0 44 31.5 76.5t75.5 32.5t76 -32.5t32 -76.5 q0 -43 -32 -74.5t-76 -31.5t-75.5 31.5t-31.5 74.5zM825 1677q0 44 32.5 76.5t76.5 32.5t75 -32t31 -77q0 -43 -31 -74.5t-75 -31.5t-76.5 31.5t-32.5 74.5z" />
<glyph unicode="&#xd7;" horiz-adv-x="1239" d="M123 209l373 375l-373 374l125 125l370 -374l373 374l125 -125l-373 -374l373 -375l-125 -123l-373 373l-370 -373z" />
<glyph unicode="&#xd8;" horiz-adv-x="1478" d="M102 719q0 160 43 296.5t122.5 238t201.5 159t272 57.5q193 0 336 -94l99 156l118 -33l-123 -199q101 -102 153 -253t52 -322q-1 -118 -25 -227t-75.5 -206t-125.5 -168.5t-180 -113t-233 -41.5q-193 0 -336 94l-98 -157l-119 35l123 198q-101 104 -153 256.5t-52 323.5z M326 721q0 -238 100 -391l543 872q-93 80 -230 80q-132 0 -227 -77t-140.5 -202t-45.5 -282zM508 238q100 -80 231 -80q87 0 158.5 35.5t117.5 92.5t77.5 132t45 151.5t13.5 153.5q0 232 -100 385z" />
<glyph unicode="&#xd9;" horiz-adv-x="1335" d="M113 659v781h217v-856q0 -77 8.5 -137t31.5 -115.5t61 -92t98.5 -58t142.5 -21.5q79 0 139 21t96.5 56.5t59 89t31 110.5t8.5 130v873h217v-764q0 -129 -13.5 -228.5t-50 -192.5t-97 -153.5t-159.5 -96.5t-233 -36q-135 0 -235 35.5t-160.5 95t-97.5 150.5t-50.5 187.5 t-13.5 221.5zM315 1870h277l205 -307h-152z" />
<glyph unicode="&#xda;" horiz-adv-x="1335" d="M113 659v781h217v-856q0 -77 8.5 -137t31.5 -115.5t61 -92t98.5 -58t142.5 -21.5q79 0 139 21t96.5 56.5t59 89t31 110.5t8.5 130v873h217v-764q0 -129 -13.5 -228.5t-50 -192.5t-97 -153.5t-159.5 -96.5t-233 -36q-135 0 -235 35.5t-160.5 95t-97.5 150.5t-50.5 187.5 t-13.5 221.5zM559 1563l203 307h276l-327 -307h-152z" />
<glyph unicode="&#xdb;" horiz-adv-x="1335" d="M113 659v781h217v-856q0 -77 8.5 -137t31.5 -115.5t61 -92t98.5 -58t142.5 -21.5q79 0 139 21t96.5 56.5t59 89t31 110.5t8.5 130v873h217v-764q0 -129 -13.5 -228.5t-50 -192.5t-97 -153.5t-159.5 -96.5t-233 -36q-135 0 -235 35.5t-160.5 95t-97.5 150.5t-50.5 187.5 t-13.5 221.5zM328 1579l254 305h159l260 -305h-157l-185 164l-178 -164h-153z" />
<glyph unicode="&#xdc;" horiz-adv-x="1335" d="M113 659v781h217v-856q0 -77 8.5 -137t31.5 -115.5t61 -92t98.5 -58t142.5 -21.5q79 0 139 21t96.5 56.5t59 89t31 110.5t8.5 130v873h217v-764q0 -129 -13.5 -228.5t-50 -192.5t-97 -153.5t-159.5 -96.5t-233 -36q-135 0 -235 35.5t-160.5 95t-97.5 150.5t-50.5 187.5 t-13.5 221.5zM362 1677q0 44 32.5 76.5t76.5 32.5t75.5 -32.5t31.5 -76.5q0 -43 -31.5 -74.5t-75.5 -31.5t-76.5 31.5t-32.5 74.5zM752 1677q0 45 31 77t75 32t75.5 -32.5t31.5 -76.5q0 -43 -31.5 -74.5t-75.5 -31.5t-75 31.5t-31 74.5z" />
<glyph unicode="&#xdd;" horiz-adv-x="1339" d="M31 1440h252l383 -674l391 674h252l-537 -858v-582h-217v580zM561 1563l203 307h276l-327 -307h-152z" />
<glyph unicode="&#xde;" horiz-adv-x="1310" d="M162 0v1440h215v-232h352q93 0 168.5 -11.5t144.5 -41t116 -77t74.5 -123t27.5 -175.5q0 -440 -564 -440h-319v-340h-215zM377 518h305q61 0 108.5 5t97 21t82 43.5t53.5 75.5t21 113q0 63 -17.5 109.5t-47 74.5t-74.5 44.5t-91 22t-107 5.5h-330v-514z" />
<glyph unicode="&#xdf;" horiz-adv-x="1148" d="M143 -199v1162q0 503 418 503q178 0 283.5 -100t105.5 -260q0 -111 -49 -186.5t-137 -106.5q142 -37 212.5 -141.5t70.5 -253.5q0 -212 -122 -325t-325 -113q-68 0 -125 30v183q23 -17 56.5 -28t60.5 -11q246 0 246 266q0 133 -102 213t-267 80v166q123 0 201 53t78 164 q0 90 -51 144t-146 54q-61 0 -101.5 -25t-61 -73t-28.5 -101.5t-8 -127.5v-1112z" />
<glyph unicode="&#xe0;" d="M102 301q0 88 39 157.5t107 112t154.5 64.5t185.5 22q96 0 174 -20v68q0 94 -50 142t-161 48q-66 0 -116 -19.5t-79.5 -48.5t-56.5 -73l-139 94q113 213 415 213q175 0 283.5 -87.5t108.5 -250.5v-578q0 -29 13 -37t40 -8h16h6v-100h-155q-58 0 -91.5 33t-33.5 88v6 q-112 -150 -326 -150q-155 0 -244.5 88t-89.5 236zM227 1495h277l203 -307h-152zM301 303q0 -76 47.5 -121t130.5 -45q90 0 171.5 54t111.5 137v139q-41 41 -152 41q-130 0 -219.5 -59t-89.5 -146z" />
<glyph unicode="&#xe1;" d="M102 301q0 88 39 157.5t107 112t154.5 64.5t185.5 22q96 0 174 -20v68q0 94 -50 142t-161 48q-66 0 -116 -19.5t-79.5 -48.5t-56.5 -73l-139 94q113 213 415 213q175 0 283.5 -87.5t108.5 -250.5v-578q0 -29 13 -37t40 -8h16h6v-100h-155q-58 0 -91.5 33t-33.5 88v6 q-112 -150 -326 -150q-155 0 -244.5 88t-89.5 236zM301 303q0 -76 47.5 -121t130.5 -45q90 0 171.5 54t111.5 137v139q-41 41 -152 41q-130 0 -219.5 -59t-89.5 -146zM446 1188l203 307h277l-328 -307h-152z" />
<glyph unicode="&#xe2;" d="M102 301q0 88 39 157.5t107 112t154.5 64.5t185.5 22q96 0 174 -20v68q0 94 -50 142t-161 48q-66 0 -116 -19.5t-79.5 -48.5t-56.5 -73l-139 94q113 213 415 213q175 0 283.5 -87.5t108.5 -250.5v-578q0 -29 13 -37t40 -8h16h6v-100h-155q-58 0 -91.5 33t-33.5 88v6 q-112 -150 -326 -150q-155 0 -244.5 88t-89.5 236zM242 1182l254 307h161l258 -305l-157 -2l-185 164l-178 -164h-153zM301 303q0 -76 47.5 -121t130.5 -45q90 0 171.5 54t111.5 137v139q-41 41 -152 41q-130 0 -219.5 -59t-89.5 -146z" />
<glyph unicode="&#xe3;" d="M102 301q0 88 39 157.5t107 112t154.5 64.5t185.5 22q96 0 174 -20v68q0 94 -50 142t-161 48q-66 0 -116 -19.5t-79.5 -48.5t-56.5 -73l-139 94q113 213 415 213q175 0 283.5 -87.5t108.5 -250.5v-578q0 -29 13 -37t40 -8h16h6v-100h-155q-58 0 -91.5 33t-33.5 88v6 q-112 -150 -326 -150q-155 0 -244.5 88t-89.5 236zM195 1217q8 101 63.5 172t147.5 71q45 0 91 -17t76.5 -38t65 -38t59.5 -17q66 0 84 104l129 -8q-13 -108 -67.5 -176t-143.5 -68q-43 0 -89 17.5t-78.5 39t-68.5 39t-61 17.5q-60 0 -79 -105zM301 303q0 -76 47.5 -121 t130.5 -45q90 0 171.5 54t111.5 137v139q-41 41 -152 41q-130 0 -219.5 -59t-89.5 -146z" />
<glyph unicode="&#xe4;" d="M102 301q0 88 39 157.5t107 112t154.5 64.5t185.5 22q96 0 174 -20v68q0 94 -50 142t-161 48q-66 0 -116 -19.5t-79.5 -48.5t-56.5 -73l-139 94q113 213 415 213q175 0 283.5 -87.5t108.5 -250.5v-578q0 -29 13 -37t40 -8h16h6v-100h-155q-58 0 -91.5 33t-33.5 88v6 q-112 -150 -326 -150q-155 0 -244.5 88t-89.5 236zM262 1331q0 44 32.5 76.5t76.5 32.5q43 0 74.5 -32.5t31.5 -76.5q0 -43 -31.5 -74.5t-74.5 -31.5q-44 0 -76.5 31.5t-32.5 74.5zM301 303q0 -76 47.5 -121t130.5 -45q90 0 171.5 54t111.5 137v139q-41 41 -152 41 q-130 0 -219.5 -59t-89.5 -146zM651 1331q0 44 31.5 76.5t75.5 32.5t75 -32t31 -77q0 -43 -31 -74.5t-75 -31.5t-75.5 31.5t-31.5 74.5z" />
<glyph unicode="&#xe5;" d="M102 301q0 88 39 157.5t107 112t154.5 64.5t185.5 22q96 0 174 -20v68q0 94 -50 142t-161 48q-66 0 -116 -19.5t-79.5 -48.5t-56.5 -73l-139 94q113 213 415 213q175 0 283.5 -87.5t108.5 -250.5v-578q0 -29 13 -37t40 -8h16h6v-100h-155q-58 0 -91.5 33t-33.5 88v6 q-112 -150 -326 -150q-155 0 -244.5 88t-89.5 236zM301 303q0 -76 47.5 -121t130.5 -45q90 0 171.5 54t111.5 137v139q-41 41 -152 41q-130 0 -219.5 -59t-89.5 -146zM336 1399q0 90 61.5 151.5t153.5 61.5q91 0 153 -62t62 -151q0 -90 -62.5 -152.5t-152.5 -62.5 q-92 0 -153.5 62.5t-61.5 152.5zM440 1399q0 -48 31 -80.5t80 -32.5q47 0 77.5 32.5t30.5 80.5q0 47 -30.5 78.5t-77.5 31.5q-49 0 -80 -31t-31 -79z" />
<glyph unicode="&#xe6;" horiz-adv-x="1796" d="M102 299q0 89 39 158.5t107 112.5t155 65t187 22q96 0 174 -20v68q0 94 -50 142t-161 48q-97 0 -154.5 -36.5t-99.5 -104.5l-139 94q116 213 415 213q230 0 330 -133q127 133 328 133q116 0 206 -43t144.5 -119t82.5 -173t28 -210q0 -13 -4 -45h-719q2 -66 19 -122.5 t48.5 -104t85 -74.5t123.5 -27q84 0 152.5 33.5t134.5 110.5l135 -105q-159 -209 -432 -209q-129 0 -230 55.5t-163 159.5q-64 -102 -167.5 -156.5t-240.5 -54.5q-153 0 -243.5 87.5t-90.5 234.5zM301 303q0 -75 48.5 -120.5t131.5 -45.5q89 0 176 60.5t121 154.5 q-8 39 -16 117q-42 39 -150 39q-131 0 -221 -59t-90 -146zM973 618h514q-11 126 -73.5 202.5t-182.5 76.5q-108 0 -176 -74t-82 -205z" />
<glyph unicode="&#xe7;" horiz-adv-x="1056" d="M102 516q0 130 37.5 234.5t103.5 172.5t154 104t191 36q74 0 137.5 -18.5t110.5 -52.5t78 -65.5t61 -72.5l-156 -104q-83 141 -233 141q-121 0 -197 -99t-76 -272q0 -73 15 -137.5t45.5 -119t84.5 -86.5t126 -32q74 0 129.5 37t103.5 111l158 -96q-139 -216 -381 -222 l-43 -94q53 17 86 17q62 0 103.5 -37.5t41.5 -102.5q0 -88 -66 -132t-163 -44q-75 0 -178 41l20 72q69 -29 127 -29q64 0 90.5 23.5t26.5 52.5q0 28 -19.5 45.5t-54.5 17.5q-40 0 -71 -22l-66 18l78 176q-187 25 -295.5 170.5t-108.5 368.5z" />
<glyph unicode="&#xe8;" horiz-adv-x="1124" d="M102 522q0 248 133 393.5t336 145.5q116 0 206 -43t144.5 -119t82.5 -173t28 -210q0 -13 -4 -45h-715q2 -66 18 -123t48 -104t85.5 -74t123.5 -27q84 0 152 33t132 111l136 -105q-159 -209 -433 -209q-215 0 -344 149t-129 400zM223 1495h277l202 -307h-151zM313 618h514 q-13 126 -75 202.5t-181 76.5q-108 0 -175.5 -74t-82.5 -205z" />
<glyph unicode="&#xe9;" horiz-adv-x="1124" d="M102 522q0 248 133 393.5t336 145.5q116 0 206 -43t144.5 -119t82.5 -173t28 -210q0 -13 -4 -45h-715q2 -66 18 -123t48 -104t85.5 -74t123.5 -27q84 0 152 33t132 111l136 -105q-159 -209 -433 -209q-215 0 -344 149t-129 400zM313 618h514q-13 126 -75 202.5t-181 76.5 q-108 0 -175.5 -74t-82.5 -205zM467 1188l203 307h276l-328 -307h-151z" />
<glyph unicode="&#xea;" horiz-adv-x="1124" d="M102 522q0 248 133 393.5t336 145.5q116 0 206 -43t144.5 -119t82.5 -173t28 -210q0 -13 -4 -45h-715q2 -66 18 -123t48 -104t85.5 -74t123.5 -27q84 0 152 33t132 111l136 -105q-159 -209 -433 -209q-215 0 -344 149t-129 400zM246 1178l254 305h159l259 -305h-158 l-185 161l-176 -161h-153zM313 618h514q-13 126 -75 202.5t-181 76.5q-108 0 -175.5 -74t-82.5 -205z" />
<glyph unicode="&#xeb;" horiz-adv-x="1124" d="M102 522q0 248 133 393.5t336 145.5q116 0 206 -43t144.5 -119t82.5 -173t28 -210q0 -13 -4 -45h-715q2 -66 18 -123t48 -104t85.5 -74t123.5 -27q84 0 152 33t132 111l136 -105q-159 -209 -433 -209q-215 0 -344 149t-129 400zM270 1331q0 44 31.5 76.5t75.5 32.5 t75 -32t31 -77q0 -43 -31 -74.5t-75 -31.5t-75.5 31.5t-31.5 74.5zM313 618h514q-13 126 -75 202.5t-181 76.5q-108 0 -175.5 -74t-82.5 -205zM657 1331q0 44 31.5 76.5t75.5 32.5t76 -32.5t32 -76.5q0 -43 -32 -74.5t-76 -31.5t-75.5 31.5t-31.5 74.5z" />
<glyph unicode="&#xec;" horiz-adv-x="503" d="M-123 1495h277l202 -307h-151zM135 0v1036h209v-1036h-209z" />
<glyph unicode="&#xed;" horiz-adv-x="503" d="M137 0v1036h207v-1036h-207zM152 1188l202 307h277l-328 -307h-151z" />
<glyph unicode="&#xee;" horiz-adv-x="503" d="M-80 1171l252 308h162l258 -305l-158 -3l-184 164l-176 -164h-154zM135 0v1036h209v-1036h-209z" />
<glyph unicode="&#xef;" horiz-adv-x="503" d="M-49 1331q0 44 31.5 76.5t74.5 32.5q44 0 76.5 -32.5t32.5 -76.5q0 -43 -32.5 -74.5t-76.5 -31.5q-43 0 -74.5 31.5t-31.5 74.5zM135 0v1036h209v-1036h-209zM340 1331q0 45 31 77t75 32t75.5 -32.5t31.5 -76.5q0 -43 -31.5 -74.5t-75.5 -31.5t-75 31.5t-31 74.5z" />
<glyph unicode="&#xf0;" horiz-adv-x="1204" d="M117 502q0 119 36.5 216.5t99.5 159.5t144 95t172 33q189 0 301 -127q-55 166 -168 284l-202 -106l-74 102l166 88q-74 52 -164 80l53 137q97 -39 152 -66t106 -65l150 78l74 -102l-123 -64q124 -136 185.5 -312t61.5 -366q0 -121 -26.5 -223.5t-82.5 -186.5t-153.5 -132 t-228.5 -48q-142 0 -252 69.5t-168.5 188.5t-58.5 267zM332 487q0 -165 71 -252.5t193 -87.5q128 0 202 92t74 253q0 46 -7.5 90.5t-27 92t-49.5 82.5t-79.5 58t-112.5 23q-71 0 -124 -29.5t-82.5 -80.5t-43.5 -111t-14 -130z" />
<glyph unicode="&#xf1;" horiz-adv-x="1148" d="M143 0v1036h207v-129q42 66 116 109t181 43q188 0 273.5 -115.5t85.5 -343.5v-600h-209v573q0 162 -46.5 234t-160.5 72q-127 0 -183.5 -82t-56.5 -254v-543h-207zM215 1217q6 101 61.5 172t147.5 71q46 0 92 -17t77 -38t66 -38t60 -17q63 0 84 104l127 -8 q-13 -108 -67 -176t-142 -68q-44 0 -90.5 17.5t-79 39t-68 39t-59.5 17.5q-61 0 -80 -105z" />
<glyph unicode="&#xf2;" horiz-adv-x="1171" d="M102 520q0 244 130.5 395.5t355.5 151.5q224 0 352.5 -153t128.5 -398q0 -244 -128 -394.5t-353 -150.5q-224 0 -355 153t-131 396zM225 1495h277l203 -307h-152zM313 518q0 -75 14 -139t44.5 -119t85 -87t129.5 -32q74 0 129 31.5t85 87t44 119.5t14 139q0 76 -14 140.5 t-44 119.5t-84.5 87t-129.5 32t-129.5 -32t-85 -87t-44.5 -120t-14 -140z" />
<glyph unicode="&#xf3;" horiz-adv-x="1171" d="M102 520q0 244 130.5 395.5t355.5 151.5q224 0 352.5 -153t128.5 -398q0 -244 -128 -394.5t-353 -150.5q-224 0 -355 153t-131 396zM313 518q0 -75 14 -139t44.5 -119t85 -87t129.5 -32q74 0 129 31.5t85 87t44 119.5t14 139q0 76 -14 140.5t-44 119.5t-84.5 87 t-129.5 32t-129.5 -32t-85 -87t-44.5 -120t-14 -140zM481 1188l205 307h275l-328 -307h-152z" />
<glyph unicode="&#xf4;" horiz-adv-x="1171" d="M102 520q0 244 130.5 395.5t355.5 151.5q224 0 352.5 -153t128.5 -398q0 -244 -128 -394.5t-353 -150.5q-224 0 -355 153t-131 396zM262 1178l254 305h160l258 -305h-158l-184 161l-176 -161h-154zM313 518q0 -75 14 -139t44.5 -119t85 -87t129.5 -32q74 0 129 31.5 t85 87t44 119.5t14 139q0 76 -14 140.5t-44 119.5t-84.5 87t-129.5 32t-129.5 -32t-85 -87t-44.5 -120t-14 -140z" />
<glyph unicode="&#xf5;" horiz-adv-x="1171" d="M102 520q0 244 130.5 395.5t355.5 151.5q224 0 352.5 -153t128.5 -398q0 -244 -128 -394.5t-353 -150.5q-224 0 -355 153t-131 396zM238 1217q6 101 61 172t147 71q46 0 92.5 -17t77.5 -38t65.5 -38t59.5 -17q63 0 84 104l127 -8q-13 -108 -67 -176t-142 -68 q-44 0 -90.5 17.5t-79 39t-68 39t-59.5 17.5q-60 0 -79 -105zM313 518q0 -75 14 -139t44.5 -119t85 -87t129.5 -32q74 0 129 31.5t85 87t44 119.5t14 139q0 76 -14 140.5t-44 119.5t-84.5 87t-129.5 32t-129.5 -32t-85 -87t-44.5 -120t-14 -140z" />
<glyph unicode="&#xf6;" horiz-adv-x="1171" d="M102 520q0 244 130.5 395.5t355.5 151.5q224 0 352.5 -153t128.5 -398q0 -244 -128 -394.5t-353 -150.5q-224 0 -355 153t-131 396zM295 1331q0 45 31 77t75 32t75.5 -32.5t31.5 -76.5q0 -43 -31.5 -74.5t-75.5 -31.5t-75 31.5t-31 74.5zM313 518q0 -75 14 -139 t44.5 -119t85 -87t129.5 -32q74 0 129 31.5t85 87t44 119.5t14 139q0 76 -14 140.5t-44 119.5t-84.5 87t-129.5 32t-129.5 -32t-85 -87t-44.5 -120t-14 -140zM682 1331q0 45 31 77t75 32t76.5 -32.5t32.5 -76.5q0 -43 -32.5 -74.5t-76.5 -31.5t-75 31.5t-31 74.5z" />
<glyph unicode="&#xf7;" horiz-adv-x="1300" d="M82 561v174h1137v-174h-1137zM516 201q0 55 39 94t94 39q56 0 95.5 -39t39.5 -94q0 -54 -40 -93.5t-95 -39.5t-94 39.5t-39 93.5zM516 1094q0 56 39 94.5t94 38.5q56 0 95.5 -39t39.5 -94t-39.5 -94t-95.5 -39q-55 0 -94 38.5t-39 94.5z" />
<glyph unicode="&#xf8;" horiz-adv-x="1171" d="M102 -66l142 197q-121 146 -121 381q0 244 130.5 397.5t354.5 153.5q142 0 256 -68l111 154l145 -45l-147 -205q114 -145 114 -375q1 -113 -30.5 -212t-91 -174.5t-154 -119t-211.5 -43.5q-135 0 -246 62l-106 -148zM334 516q0 -128 37 -209l385 539q-60 47 -150 47 q-74 0 -129 -31.5t-85 -87t-44 -119.5t-14 -139zM463 188q58 -43 141 -43q131 0 202 99t71 274v2q0 116 -33 199z" />
<glyph unicode="&#xf9;" horiz-adv-x="1128" d="M123 449v587h209v-573q0 -162 45.5 -234.5t159.5 -72.5q68 0 116 25t74 72.5t37.5 105.5t11.5 135v542h209v-1036h-207v131q-99 -154 -297 -154q-87 0 -152 26.5t-103.5 69t-62 106t-32 127.5t-8.5 143zM184 1495h277l203 -307h-152z" />
<glyph unicode="&#xfa;" horiz-adv-x="1128" d="M123 449v587h209v-573q0 -162 45.5 -234.5t159.5 -72.5q68 0 116 25t74 72.5t37.5 105.5t11.5 135v542h209v-1036h-207v131q-99 -154 -297 -154q-87 0 -152 26.5t-103.5 69t-62 106t-32 127.5t-8.5 143zM428 1188l203 307h276l-327 -307h-152z" />
<glyph unicode="&#xfb;" horiz-adv-x="1128" d="M123 449v587h209v-573q0 -162 45.5 -234.5t159.5 -72.5q68 0 116 25t74 72.5t37.5 105.5t11.5 135v542h209v-1036h-207v131q-99 -154 -297 -154q-87 0 -152 26.5t-103.5 69t-62 106t-32 127.5t-8.5 143zM225 1188l254 305h162l258 -305h-158l-184 162l-178 -162h-154z " />
<glyph unicode="&#xfc;" horiz-adv-x="1128" d="M123 449v587h209v-573q0 -162 45.5 -234.5t159.5 -72.5q68 0 116 25t74 72.5t37.5 105.5t11.5 135v542h209v-1036h-207v131q-99 -154 -297 -154q-87 0 -152 26.5t-103.5 69t-62 106t-32 127.5t-8.5 143zM231 1331q0 44 32.5 76.5t76.5 32.5t75 -32t31 -77 q0 -43 -31 -74.5t-75 -31.5t-76.5 31.5t-32.5 74.5zM621 1331q0 45 31 77t75 32t75.5 -32.5t31.5 -76.5q0 -43 -31.5 -74.5t-75.5 -31.5t-75 31.5t-31 74.5z" />
<glyph unicode="&#xfd;" horiz-adv-x="1069" d="M57 1036h217l252 -819l269 819h217l-459 -1231q-86 -231 -264 -231q-70 0 -119 16v174q37 -28 86 -28q32 0 64 29t49 75l53 156zM434 1188l205 307h276l-329 -307h-152z" />
<glyph unicode="&#xfe;" horiz-adv-x="1134" d="M160 -410v1850h205v-522q107 143 290 143q131 0 223.5 -72.5t135.5 -192t43 -274.5q0 -248 -110.5 -397.5t-299.5 -149.5q-182 0 -282 138v-523h-205zM365 315q32 -78 99.5 -121.5t141.5 -43.5q66 0 114.5 31t76 85t40.5 119t13 141q0 166 -62 262.5t-182 96.5 q-56 1 -100 -21.5t-71.5 -63t-42 -74t-27.5 -77.5v-334z" />
<glyph unicode="&#xff;" horiz-adv-x="1077" d="M61 1036h218l251 -819l269 819h217l-459 -1231q-86 -231 -264 -231q-70 0 -119 16v174q37 -28 86 -28q32 0 64 29t49 75l53 156zM238 1327q0 44 32 75.5t76 31.5t75.5 -31.5t31.5 -75.5t-31.5 -75t-75.5 -31t-76 31t-32 75zM627 1327q0 44 31 75.5t75 31.5t75.5 -31.5 t31.5 -75.5t-31.5 -75t-75.5 -31t-75 31t-31 75z" />
<glyph unicode="&#x152;" horiz-adv-x="2150" d="M102 725q0 212 81 381.5t234 268t353 98.5q151 0 313 -33h945v-185h-740v-411h559v-182h-559v-480h780v-182h-985q-148 -29 -315 -29q-159 0 -288 64t-210 170.5t-124.5 240.5t-43.5 279zM330 723q0 -152 50.5 -278.5t152 -205.5t237.5 -79q181 0 297 41v1024 q-64 34 -127.5 48.5t-157.5 14.5q-138 0 -242.5 -77.5t-157 -204.5t-52.5 -283z" />
<glyph unicode="&#x153;" horiz-adv-x="1888" d="M102 512q0 244 131 397t357 152q244 0 373 -178q63 86 156 132t204 46q114 0 204 -42.5t145.5 -117t84.5 -171.5t29 -210q0 -9 -3 -27t-3 -22h-719q2 -65 19 -122.5t49.5 -104.5t85.5 -74t122 -27q85 0 154 33.5t133 110.5l135 -105q-159 -209 -432 -209 q-118 0 -212.5 47.5t-156.5 137.5q-135 -183 -376 -183q-221 0 -350.5 147t-129.5 390zM313 514q0 -178 73.5 -273.5t199.5 -95.5q131 0 201.5 98.5t70.5 272.5q0 52 -7 100.5t-25.5 100t-47.5 89.5t-78 62.5t-112 24.5q-75 -1 -130 -33t-85.5 -87t-45 -119.5t-14.5 -139.5z M1063 618h514q-11 126 -73.5 202.5t-182.5 76.5q-107 0 -175 -74t-83 -205z" />
<glyph unicode="&#x178;" horiz-adv-x="1339" d="M31 1440h252l383 -674l391 674h252l-537 -858v-582h-217v580zM371 1677q0 45 31 77t75 32t75.5 -32.5t31.5 -76.5q0 -43 -31.5 -74.5t-75.5 -31.5t-75 31.5t-31 74.5zM758 1677q0 45 31 77t75 32t76.5 -32.5t32.5 -76.5q0 -43 -32.5 -74.5t-76.5 -31.5t-75 31.5t-31 74.5 z" />
<glyph unicode="&#x2c6;" horiz-adv-x="958" d="M143 1188l254 305h160l258 -305h-156l-184 162l-178 -162h-154z" />
<glyph unicode="&#x2dc;" horiz-adv-x="1003" d="M143 1217q8 101 63 172t146 71q46 0 92.5 -17t77.5 -38t65.5 -38t59.5 -17q63 0 84 104l129 -8q-13 -108 -67.5 -176t-143.5 -68q-44 0 -90 17.5t-78.5 39t-68 39t-60.5 17.5q-61 0 -80 -105z" />
<glyph unicode="&#x2000;" horiz-adv-x="965" />
<glyph unicode="&#x2001;" horiz-adv-x="1931" />
<glyph unicode="&#x2002;" horiz-adv-x="965" />
<glyph unicode="&#x2003;" horiz-adv-x="1931" />
<glyph unicode="&#x2004;" horiz-adv-x="643" />
<glyph unicode="&#x2005;" horiz-adv-x="482" />
<glyph unicode="&#x2006;" horiz-adv-x="321" />
<glyph unicode="&#x2007;" horiz-adv-x="321" />
<glyph unicode="&#x2008;" horiz-adv-x="241" />
<glyph unicode="&#x2009;" horiz-adv-x="386" />
<glyph unicode="&#x200a;" horiz-adv-x="107" />
<glyph unicode="&#x2010;" horiz-adv-x="743" d="M102 604v199h539v-199h-539z" />
<glyph unicode="&#x2011;" horiz-adv-x="743" d="M102 604v199h539v-199h-539z" />
<glyph unicode="&#x2012;" horiz-adv-x="743" d="M102 604v199h539v-199h-539z" />
<glyph unicode="&#x2013;" horiz-adv-x="1052" d="M82 606v195h889v-195h-889z" />
<glyph unicode="&#x2014;" horiz-adv-x="1292" d="M82 606v195h1128v-195h-1128z" />
<glyph unicode="&#x2018;" horiz-adv-x="518" d="M82 956l231 517l133 -31l-153 -486h-211z" />
<glyph unicode="&#x2019;" horiz-adv-x="518" d="M72 952l153 488h211l-231 -516z" />
<glyph unicode="&#x201a;" horiz-adv-x="528" d="M82 -279l154 486h210l-231 -516z" />
<glyph unicode="&#x201c;" horiz-adv-x="901" d="M82 956l231 517l133 -31l-153 -486h-211zM465 956l231 517l133 -31l-153 -486h-211z" />
<glyph unicode="&#x201d;" horiz-adv-x="901" d="M72 952l153 488h211l-231 -516zM455 952l153 488h211l-231 -516z" />
<glyph unicode="&#x201e;" horiz-adv-x="911" d="M82 -279l154 486h210l-231 -516zM465 -279l153 486h211l-231 -516z" />
<glyph unicode="&#x2022;" horiz-adv-x="811" d="M133 735q0 114 79.5 194.5t193.5 80.5t193 -80.5t79 -194.5q0 -113 -79 -191.5t-193 -78.5t-193.5 78.5t-79.5 191.5z" />
<glyph unicode="&#x2026;" horiz-adv-x="1445" d="M82 104q0 52 37 89.5t90 37.5t90 -37.5t37 -89.5t-37 -89.5t-90 -37.5t-90 37.5t-37 89.5zM594 104q0 53 37.5 90t91.5 37q53 0 90 -37.5t37 -89.5t-37 -89.5t-90 -37.5q-54 0 -91.5 37t-37.5 90zM1110 104q0 52 37 89.5t90 37.5q54 0 90.5 -37t36.5 -90t-36.5 -90 t-90.5 -37q-53 0 -90 37.5t-37 89.5z" />
<glyph unicode="&#x202f;" horiz-adv-x="386" />
<glyph unicode="&#x2039;" horiz-adv-x="675" d="M82 580l338 473l162 -41l-312 -430l324 -441h-193z" />
<glyph unicode="&#x203a;" horiz-adv-x="673" d="M82 139l324 449l-312 424l160 41l338 -465l-320 -447z" />
<glyph unicode="&#x205f;" horiz-adv-x="482" />
<glyph unicode="&#x20ac;" horiz-adv-x="1460" d="M0 508l41 131h160q-4 54 -4 80q0 10 1 30t1 29h-199l41 133h172q47 253 210 407.5t413 154.5q205 0 347.5 -100.5t215.5 -270.5q-170 -64 -211 -78q-48 120 -138 190t-216 70q-154 0 -255.5 -102t-138.5 -271h498l-45 -133h-471q0 -9 -1 -28t-1 -29q0 -28 4 -82h514 l-45 -131h-447q18 -69 49 -128.5t78.5 -111t116.5 -81t152 -29.5q204 0 329 223l203 -92q-195 -320 -528 -320q-135 0 -245 42t-185.5 117t-124 170t-72.5 210h-219z" />
<glyph unicode="&#x2122;" horiz-adv-x="1568" d="M102 1335v105h574v-105h-223v-641h-123v641h-228zM774 694v746h144q100 -271 133 -359q52 -142 71 -209q8 31 70 207q15 41 73 200.5t58 160.5h143v-746h-116q0 62 -1 178t-1 211t2 179q-5 -18 -45 -156q-13 -37 -78 -206t-78 -206h-66q-4 12 -75.5 210t-89.5 249 q-4 14 -17 55.5t-16 53.5q3 -84 3 -179.5t-1.5 -211.5t-1.5 -177h-111z" />
<glyph unicode="&#x25fc;" horiz-adv-x="1034" d="M0 0v1034h1034v-1034h-1034z" />
</font>
</defs>
</svg>
