<?xml version="1.0" encoding="utf-8"?>
<!-- Generator: Adobe Illustrator 18.0.0, SVG Export Plug-In . SVG Version: 6.00 Build 0)  -->
<!DOCTYPE svg PUBLIC "-//W3C//DTD SVG 1.1//EN" "http://www.w3.org/Graphics/SVG/1.1/DTD/svg11.dtd">
<svg version="1.1" id="Layer_1" xmlns="http://www.w3.org/2000/svg" xmlns:xlink="http://www.w3.org/1999/xlink" x="0px" y="0px"
	 viewBox="0 0 76.3 105" enable-background="new 0 0 76.3 105" xml:space="preserve">
<g>
	<path fill="#FB896C" d="M74.1,67.8c0,19.5-17.3,35.2-36.8,35.2S2.1,87.2,2.1,67.8c0-8.7,3.2-15.5,8.8-21.2c9.4-9.5,8-17.1,9.5-20
		c1.3-2.5,4.6,1.9,5.4,7.9c0.9,6.3-0.1,12.7,0.9,11.2C43.8,20.2,19.5,1,22.1,1c4.5,0,21.8,4,34.5,30.8c10.7,22.4-0.4,37.5,2,36.2
		c11.4-6,8.6-23.6,10-21.5C72.6,52.2,74.1,60.4,74.1,67.8z"/>
	<path fill="#FA5B33" d="M46.6,81.5c-0.6,6.8-6,11.6-12.8,11.6s-12.5-5.5-12.3-12.3c0.4-12,13.5-6,13.9-24.5
		C35.6,49.5,48,65.4,46.6,81.5z"/>
</g>
</svg>
