<svg width="41" height="52" viewBox="0 0 41 52" version="1.1" xmlns="http://www.w3.org/2000/svg"><title>vip_status</title><desc>Created with Sketch.</desc><g id="Imported-Layers-2-+-V-2" stroke="none" stroke-width="1" fill="none"><path d="M19.3245,50.902322 C19.3245,50.902322 0,42.0736169 0,35.1557695 L0,3.89242373 C0,3.89242373 13.3874,0 19.3245,0 C25.2282875,0 38.8652875,3.89242373 38.915175,3.89242373 C38.915175,3.87461695 38.915175,26.2385492 38.915175,35.1557695 C38.915175,42.303722 19.3245,50.902322 19.3245,50.902322 Z" id="Imported-Layers" transform="translate(-816 -227) translate(817 227.5)" stroke="#fff" fill="#82BB41"/><path d="M30.894,10.692 L25.53,10.692 L19.482,30.348 L13.506,10.692 L8.106,10.692 L16.89,36 L22.038,36 L30.894,10.692 Z" id="V-2" fill="#fff" transform="translate(-816 -227) translate(817 227.5)"/></g></svg>